<svg width="46" height="22" viewBox="0 0 46 22" fill="none" xmlns="http://www.w3.org/2000/svg">
<path d="M11.8559 3.52572C12.5944 2.57662 13.0956 1.30225 12.9634 0C11.8823 0.0552336 10.563 0.732823 9.79912 1.68267C9.11329 2.49606 8.50627 3.82379 8.66452 5.07144C9.87816 5.17961 11.0907 4.44819 11.8559 3.52572Z" fill="white"/>
<path d="M12.9497 5.31484C11.1872 5.20698 9.68868 6.34257 8.84699 6.34257C8.00485 6.34257 6.71596 5.3692 5.32192 5.39543C3.50749 5.42281 1.82391 6.47683 0.90316 8.15322C-0.99066 11.5068 0.40338 16.4814 2.24502 19.2127C3.13936 20.564 4.21719 22.0518 5.6374 21.9984C6.97926 21.9443 7.50522 21.1057 9.13631 21.1057C10.7662 21.1057 11.24 21.9984 12.6604 21.9713C14.1334 21.9443 15.0544 20.6194 15.9487 19.2668C16.9747 17.7264 17.3947 16.2391 17.4211 16.1574C17.3947 16.1304 14.5806 15.0213 14.5546 11.6955C14.528 8.91084 16.7639 7.58629 16.8691 7.50415C15.6065 5.58554 13.6337 5.3692 12.9497 5.31484Z" fill="white"/>
<path d="M26.5922 1.50928V5.4367H29.6502V7.95016H26.5922V17.2507C26.5922 18.6801 27.2038 19.3556 28.5341 19.3556C28.8705 19.3556 29.4362 19.3087 29.6349 19.2773V21.7908C29.2985 21.8851 28.5494 21.9323 27.8613 21.9323C24.7571 21.9323 23.5339 20.691 23.5339 17.5334V7.95016H21.2097V5.4367H23.5339V1.50928H26.5922Z" fill="white"/>
<path d="M40.2199 21.8377H36.9936L31.1985 5.43652H34.4095L38.5838 18.6799H38.645L42.8194 5.43652H46L40.2199 21.8377Z" fill="white"/>
</svg>
