<svg width="96" height="16" viewBox="0 0 96 16" fill="none" xmlns="http://www.w3.org/2000/svg">
<path d="M82.6088 6.49908C82.6403 5.91481 82.7196 5.33371 82.8463 4.76097C83.1407 3.62757 83.6226 3.37607 84.9593 3.14917C85.7996 3.02212 86.6499 2.96304 87.5009 2.97256C88.3711 2.96572 89.2404 3.02478 90.1006 3.14917C92.2671 3.50126 92.6956 4.03108 92.6956 6.50243L82.6088 6.49908ZM90.0721 0.151349C88.3773 -0.0414521 86.6645 -0.0500783 84.9676 0.125641C82.2658 0.454261 80.7356 0.982959 79.8002 3.12346C79.1852 4.50836 78.9977 6.27218 78.9977 7.95999C78.9977 9.4969 79.158 11.159 79.6933 12.5193C80.6299 14.9124 82.1008 15.4914 84.9628 15.8446C85.8062 15.9389 86.6552 15.9811 87.5044 15.9709C88.3806 15.9724 89.2561 15.922 90.1255 15.82C92.7466 15.4925 94.5178 14.7369 95.395 12.3695L92.0249 11.6139C91.6509 12.3684 91.1417 12.5193 90.1006 12.7429C89.3242 12.9195 88.4149 12.9664 87.5056 12.9944C86.6649 13.0152 85.8241 12.956 84.9961 12.8178C83.5787 12.5942 83.1775 12.2891 82.8593 10.9287C82.7124 10.3336 82.6328 9.72553 82.6219 9.11463H95.9304C96.2735 3.35372 95.5031 0.832062 90.0721 0.151349ZM73.3792 0.277656L67.8948 12.7708L62.4116 0.277656H58.6129L65.3271 15.668H70.4898L77.1779 0.277656H73.3792ZM21.2407 0.277656V15.668H24.802V10.9075H29.2429L32.5597 15.668H36.5459L33.0677 10.58C35.3956 10.58 37.054 8.4898 37.054 5.61829C37.054 2.60035 35.6093 0.278773 31.7038 0.278773L21.2407 0.277656ZM24.802 3.24977H31.5435C33.1224 3.24977 33.5497 4.40888 33.6031 5.61717C33.6304 6.82658 33.1212 8.06059 31.5435 8.06059H24.7984L24.802 3.24977ZM0 7.9857C0 9.62321 0.187561 11.339 0.749058 12.6959C1.71179 15.0432 3.29063 15.4903 5.96516 15.8189C6.80799 15.9209 7.65697 15.9713 8.50673 15.9698C9.36518 15.9713 10.2228 15.9209 11.0744 15.8189C13.857 15.4914 15.4667 14.7861 16.3985 12.6959C16.6099 12.2028 16.7539 11.6863 16.8271 11.159L13.4557 10.4291C13.0581 11.9604 12.5464 12.2678 11.1017 12.545C10.2454 12.689 9.37646 12.7553 8.50673 12.7429C7.65418 12.7393 6.80365 12.6645 5.96516 12.5193C4.65935 12.2958 4.38751 11.9906 4.0658 10.9545C3.82839 10.172 3.71799 9.06545 3.71799 7.98234C3.71799 6.89924 3.82482 5.79042 4.0658 5.01023C4.38751 3.97743 4.65935 3.67563 5.96516 3.44537C6.80365 3.30016 7.65418 3.22535 8.50673 3.22182C9.37657 3.21054 10.2456 3.27792 11.1017 3.42302C12.5464 3.70022 13.0581 4.00202 13.4557 5.53893L16.8271 4.8068C16.754 4.27947 16.61 3.76303 16.3985 3.26989C15.4619 1.17968 13.857 0.475498 11.0744 0.146878C10.2227 0.0463994 9.36507 -0.00250978 8.50673 0.000452461C7.65697 -0.00106868 6.80799 0.0493362 5.96516 0.151349C3.29063 0.478852 1.71179 0.93266 0.749058 3.27548C0.187561 4.63467 0 6.34818 0 7.9857ZM56.1496 5.21478C56.1496 1.08356 53.0751 0.000452461 48.1261 0.000452461C45.8789 0.000452461 43.6056 0.302246 41.946 0.731464L42.8292 3.55268C44.5633 3.15967 46.3426 2.97193 48.1261 2.9938C51.3894 3.06981 52.8614 3.21735 52.6465 6.11681C51.1451 5.96779 49.6356 5.90359 48.1261 5.92455C42.8292 6.02515 40.1239 6.62986 40.1239 10.6605C40.1239 14.8666 42.8257 16 48.1225 16C50.3163 16 53.0715 15.9497 56.1473 15.1181L56.1496 5.21478ZM52.6453 8.99279V12.6959C51.1494 12.9068 49.6373 12.9996 48.1249 12.9731C44.7274 12.9228 43.6044 12.8971 43.6044 10.656C43.6044 8.7916 45.1833 8.71671 48.1249 8.71671C49.6368 8.71838 51.1471 8.81059 52.6465 8.99279H52.6453Z" fill="white"/>
</svg>
