<svg width="93" height="18" viewBox="0 0 93 18" fill="none" xmlns="http://www.w3.org/2000/svg">
<g clip-path="url(#clip0_4363_30115)">
<path d="M90.9282 13.935V3.34131H92.758V13.9504H90.9282V13.935Z" fill="white"/>
<path d="M86.9814 13.935V3.34131H88.8112V13.9504H86.9814V13.935Z" fill="white"/>
<path d="M85.4391 10.1164C85.4391 12.6724 84.184 14.0428 81.8703 14.0428C79.5566 14.0428 78.3015 12.6724 78.3015 10.1164C78.3015 7.56034 79.5566 6.18994 81.8703 6.18994C84.184 6.18994 85.4391 7.56034 85.4391 10.1164ZM83.7001 10.1164C83.7001 8.05307 83.0196 7.66813 81.961 7.66813C80.9025 7.66813 80.222 8.05307 80.222 10.1164C80.222 12.1797 80.9025 12.5646 81.961 12.5646C82.9288 12.5646 83.7001 12.1797 83.7001 10.1164Z" fill="white"/>
<path d="M77.5303 6.19V7.76057C76.5625 7.76057 75.4133 7.76057 75.4133 8.2533V13.9505H73.5835V7.17546C73.6742 5.98983 77.5303 6.19 77.5303 6.19Z" fill="white"/>
<path d="M66.5365 16.9837C67.8975 13.55 67.7916 13.8425 67.8975 13.55L65.1907 6.28223H67.1263L68.8653 11.5791L70.4985 6.28223H72.4341L69.5458 14.1351L68.4873 16.9837H66.5365Z" fill="white"/>
<path d="M64.1321 9.33104V13.9504H62.3023V9.22326C62.3023 8.53036 62.1057 7.85286 60.4726 7.85286C60.0492 7.86825 59.6257 7.92984 59.2175 8.05303V13.9504H57.3877V3.34131H59.2175V6.39007C59.7014 6.1745 60.2306 6.08211 60.7599 6.09751C62.9677 6.1899 64.1321 7.36013 64.1321 9.33104Z" fill="white"/>
<path d="M54.0155 12.4721C54.6809 12.4413 55.3311 12.3181 55.9511 12.0718V13.6423C55.2404 13.9349 54.4994 14.0581 53.7282 14.0273C51.4145 14.0273 50.1594 12.6569 50.1594 10.1009C50.1594 7.54482 51.4145 6.08203 53.7282 6.08203C54.4843 6.11283 55.2253 6.23601 55.9511 6.48237V8.05295C55.3311 7.80658 54.6809 7.6834 54.0155 7.668C52.7604 7.668 51.9892 8.05295 51.9892 10.0239C51.9892 12.0718 52.7604 12.4721 54.0155 12.4721Z" fill="white"/>
<path d="M48.9951 9.13079V13.9349H47.2561V9.13079C47.2561 8.43789 47.2561 7.76039 45.7137 7.76039C45.2298 7.76039 44.262 7.85278 44.262 8.14533V13.9349H42.5229V7.56022C42.5229 6.2822 44.0654 6.08203 45.9859 6.08203C47.9366 6.18982 48.9951 6.9751 48.9951 9.13079Z" fill="white"/>
<path d="M40.7989 6.28223V10.5012C40.7989 12.7647 40.0277 14.1351 37.4267 14.1351C34.8258 14.1351 34.1453 12.7647 34.1453 10.5012V6.28223H35.8843V10.7014C35.8843 11.9794 36.3682 12.3643 37.4267 12.3643C38.4853 12.3643 38.9692 11.9794 38.9692 10.7014V6.28223H40.7989Z" fill="white"/>
<path d="M32.7088 6.19V7.76057C31.741 7.76057 30.5917 7.76057 30.5917 8.2533V13.9505H28.762V7.17546C28.8527 5.98983 32.7088 6.19 32.7088 6.19Z" fill="white"/>
<path d="M25.178 12.4721C25.8131 12.4567 26.4331 12.3181 27.0078 12.0718V13.6423C26.297 13.9349 25.5561 14.0581 24.7848 14.0273C22.4712 14.0273 21.2161 12.6569 21.2161 10.1009C21.2161 7.54482 22.4712 6.08203 24.7848 6.08203C25.5409 6.11283 26.2819 6.23601 27.0078 6.48237V8.05295C26.418 7.82198 25.798 7.6834 25.178 7.668C23.9229 7.668 23.1517 8.05295 23.1517 10.0239C23.0609 12.0718 23.938 12.4721 25.178 12.4721Z" fill="white"/>
<path d="M2.34386 10.1161C2.34386 5.82016 5.76143 2.35566 9.98045 2.35566C13.9575 2.37105 17.2541 5.4814 17.5717 9.51562V9.02289C17.5717 4.1418 13.6853 0.18457 8.89167 0.18457C4.09801 0.18457 0.21167 4.1572 0.21167 9.03829C0.21167 13.9194 4.09801 17.8612 8.89167 17.8612H9.4663C5.47411 17.5841 2.35899 14.1965 2.34386 10.1161Z" fill="white"/>
<path d="M14.0937 10.5011C12.5512 10.5011 11.3112 9.23852 11.2961 7.68334C11.2961 6.48231 12.022 5.41987 13.1259 5.00413C12.2639 4.54219 11.3112 4.29583 10.3283 4.31123C6.97122 4.31123 4.24927 7.08283 4.24927 10.5011C4.24927 13.9194 6.97122 16.691 10.3283 16.691C13.6854 16.691 16.4073 13.9194 16.4073 10.5011C16.4224 10.1008 16.3922 9.71585 16.3166 9.3155C15.8478 10.1008 14.9859 10.5473 14.0937 10.5011Z" fill="white"/>
</g>
<defs>
<clipPath id="clip0_4363_30115">
<rect width="93" height="18" fill="white"/>
</clipPath>
</defs>
</svg>
