<svg width="56" height="30" viewBox="0 0 56 30" fill="none" xmlns="http://www.w3.org/2000/svg">
<g clip-path="url(#clip0_4640_13604)">
<path d="M25.2943 20.3313C25.3278 20.3368 25.3333 20.3368 25.3612 20.3424C25.8626 20.4086 26.3585 20.497 26.7318 20.6681C27.0828 20.8228 27.2889 21.016 27.4728 21.3584C27.7569 21.8829 27.7736 22.6173 27.5173 23.1695C27.3279 23.5837 26.9045 23.9315 26.5201 24.1138C26.1189 24.307 25.7289 24.3954 25.2721 24.4506C24.4809 24.5389 23.6285 24.3733 22.9153 24.0309C22.4919 23.8266 21.9793 23.4787 21.7231 23.026C21.5336 22.6946 21.5392 22.2639 21.7732 21.9492C22.1409 21.4467 22.9321 21.3363 23.5282 21.3584C23.9851 21.3749 24.8041 21.513 25.2331 21.6676C25.3501 21.7118 25.7958 21.8829 25.8682 21.9602C25.9239 22.0155 25.9573 22.0928 25.9351 22.1646C25.8348 22.4627 25.1049 22.6229 24.8932 22.6505C24.3249 22.7388 24.0352 22.5235 23.3889 22.2695C23.2273 22.2087 23.0156 22.1369 22.8541 22.1259C22.5644 22.0983 22.2078 22.1811 22.1521 22.4959C22.1242 22.6615 22.3192 22.8106 22.4641 22.8769C22.8095 23.026 23.0881 23.0756 23.4279 23.0812C24.4308 23.0977 25.5618 22.9321 26.3808 22.3578C26.4922 22.2805 26.6036 22.1646 26.6036 22.0155C26.6092 21.7173 26.0855 21.5351 26.0855 21.5351C25.5339 21.3087 24.5088 21.1927 23.9851 21.1541C23.4335 21.1044 22.5644 21.0381 22.3526 21.005C22.1353 20.9718 21.9013 20.9332 21.7175 20.8504C21.5281 20.7675 21.3498 20.5798 21.2941 20.37C21.1994 19.9945 21.3219 19.5362 21.5281 19.238C22.0796 18.4539 23.3611 18.1612 24.3249 18.0398C25.2554 17.9238 26.7596 17.9238 27.6734 18.4097C27.8126 18.487 27.8851 18.5533 27.8572 18.7024C27.7959 18.984 27.5842 19.1662 27.3279 19.2435C27.0549 19.3263 26.4978 19.3595 26.2526 19.376C25.1495 19.4368 23.8179 19.4036 22.7705 19.6908C22.6869 19.7129 22.5476 19.7515 22.4975 19.8012C22.3359 19.9779 22.8039 20.0276 22.9042 20.0497C22.9321 20.0552 22.9376 20.0552 22.9711 20.0607L25.2943 20.3313ZM18.7423 15.4666C18.7423 15.4666 18.9206 15.2015 19.0711 14.9972C19.3441 14.6273 19.8399 14.1193 20.2132 13.8045C20.3246 13.7107 20.4639 13.6002 20.4639 13.6002C20.4639 13.6002 20.2522 13.6223 20.1352 13.6444C19.8511 13.6996 19.4388 13.9702 19.2326 14.1469C18.8928 14.434 18.5139 14.9089 18.6866 15.3285C18.7033 15.3838 18.7423 15.4666 18.7423 15.4666ZM20.6422 15.9691C21.1826 15.9304 21.6896 15.7758 22.1576 15.5218C22.6201 15.2678 23.2998 14.7653 23.2273 14.18C23.2051 13.9923 23.0825 13.8487 22.9209 13.7824C22.7148 13.6941 22.6089 13.7107 22.3471 13.788C22.1576 13.8432 22.0685 13.8763 21.8902 13.9812C21.3609 14.2849 20.6088 14.9365 20.2021 15.4611C20.1073 15.5826 20.0126 15.7206 19.9402 15.8145C19.8956 15.8752 19.8566 15.9249 19.8622 15.9415C19.8733 15.9912 20.4305 15.9856 20.6422 15.9691ZM19.2661 16.9685C19.2103 17.0293 19.1491 17.1673 19.0878 17.2722C19.0543 17.3274 18.9931 17.3992 18.9541 17.4268C18.8148 17.5318 18.6922 17.5318 18.5585 17.4158C18.3691 17.2501 18.2576 16.9906 18.2521 16.7421C18.2465 16.6317 18.2688 16.5102 18.2465 16.4219C18.2131 16.2673 18.0571 16.1071 17.9679 15.958C17.8676 15.7813 17.7896 15.4776 17.7785 15.2789C17.7451 14.6604 18.0738 14.0972 18.4972 13.6499C18.9262 13.1971 19.4889 12.8216 20.0962 12.5676C20.6701 12.3247 21.5169 12.1645 22.1521 12.3799C22.3582 12.4517 22.6479 12.6229 22.7872 12.8051C22.8151 12.8437 22.8429 12.8824 22.8764 12.9045C22.9042 12.921 22.9766 12.9266 23.0379 12.9376C23.2385 12.9707 23.5282 13.1253 23.6508 13.2247C23.8903 13.429 24.0185 13.6223 24.0798 13.9039C24.2023 14.4727 23.8681 15.0966 23.4948 15.4776C22.8485 16.1292 22.2133 16.593 21.3888 16.9133C21.0266 17.0514 20.4639 17.1839 20.0516 17.1507C19.9235 17.1397 19.7953 17.1066 19.6672 17.1011C19.6059 17.0955 19.3719 17.0348 19.3496 17.0182C19.3162 16.9851 19.2716 16.963 19.2661 16.9685ZM20.0015 18.233C20.0293 18.2385 20.0628 18.2496 20.0962 18.2606C20.3859 18.3711 20.5029 18.6361 20.5753 18.9288C20.7425 19.608 20.8093 21.1044 20.8372 21.6897C20.8595 22.1314 20.8706 22.5621 20.8873 22.9983C20.9041 23.3683 20.9319 23.8542 20.8539 24.2021C20.8261 24.3236 20.7425 24.4727 20.6199 24.5445C20.4806 24.6328 20.1686 24.6383 19.9959 24.6052C19.5725 24.5168 19.4332 24.2463 19.3719 23.8321C19.2271 22.8437 19.2995 20.9001 19.3831 20.0773C19.4109 19.8067 19.5168 18.9398 19.6561 18.5754C19.7173 18.4428 19.8232 18.1944 20.0015 18.233ZM7.12035 19.8785C7.12035 19.8785 6.49077 19.9227 6.0562 19.9724C5.50463 20.0331 4.46835 20.2098 3.86663 20.4197C3.68835 20.4859 3.32063 20.635 3.29277 20.8172C3.25935 21.005 3.37635 21.1541 3.51006 21.3087C3.58806 21.397 4.01706 21.8112 4.13963 21.9105C4.64663 22.3302 5.67735 22.9818 6.43506 23.2965C6.69692 23.4014 7.12592 23.556 7.12592 23.556C7.12592 23.556 7.09249 22.3412 7.09806 21.1375C7.10363 20.508 7.12035 19.8785 7.12035 19.8785ZM18.6755 20.3644C18.7089 20.6902 18.6253 21.3087 18.6142 21.3915C18.5863 21.5792 18.4471 22.0155 18.4192 22.0652C18.3022 22.3302 18.1908 22.5456 18.0682 22.7609C17.8621 23.1309 17.3718 23.7162 17.0765 23.9647C15.9901 24.8923 14.3131 25.4224 12.8701 25.5991C11.8895 25.7151 10.7696 25.6985 9.73335 25.5108C9.37677 25.4445 8.84749 25.323 8.84749 25.323C8.84749 25.323 8.84749 25.5329 8.83077 25.6819C8.8252 25.7482 8.76949 25.9249 8.74163 25.9856C8.66363 26.1403 8.54106 26.2176 8.36277 26.2562C8.14549 26.2949 7.91706 26.3114 7.71649 26.2231C7.38777 26.085 7.27077 25.7813 7.20949 25.4279C7.16492 25.1463 7.11477 24.6549 7.11477 24.6549C7.11477 24.6549 6.86963 24.5389 6.66349 24.4395C6.03392 24.1303 5.4322 23.7604 4.90849 23.3738C4.76363 23.2689 4.13963 22.7499 4.00035 22.6173C3.62149 22.2529 3.27606 21.8885 3.00863 21.4246C2.80249 21.0602 2.7412 20.7399 2.90277 20.3589C3.12006 19.8233 3.89449 19.4202 4.42377 19.1938C4.81377 19.0226 6.02277 18.6306 6.5242 18.5588C6.76377 18.5257 7.13149 18.4594 7.15377 18.4429C7.16492 18.4373 7.17049 18.4318 7.17606 18.4208C7.1872 18.4042 7.20949 17.8741 7.20392 17.6808C7.19835 17.4876 7.34877 16.2396 7.39335 15.9746C7.41563 15.831 7.52706 15.2789 7.63849 15.1353C7.71092 15.0359 7.83906 15.0469 7.94492 15.1077C8.51877 15.4611 8.69706 16.6924 8.74163 17.3219C8.76949 17.7029 8.78063 18.2772 8.78063 18.2772C8.78063 18.2772 9.44363 18.2551 9.85035 18.2717C10.2459 18.2827 10.6805 18.3435 11.0928 18.4097C11.6165 18.4925 12.6416 18.7134 13.2266 19.0116C13.7113 19.2546 14.1626 19.6632 14.3075 20.0939C14.4412 20.4914 14.4245 20.7675 14.2183 21.1265C13.9843 21.5295 13.5442 21.8332 13.0985 21.8553C12.9648 21.8609 12.4633 21.7946 12.3129 21.6786C12.2516 21.6289 12.2572 21.5461 12.3018 21.4909C12.3185 21.4688 12.5525 21.3473 12.6918 21.2755C12.7586 21.2369 12.8199 21.1982 12.8701 21.1485C12.9871 21.0491 13.0873 20.9387 13.0762 20.8062C13.0595 20.6405 12.8812 20.5356 12.7085 20.4694C11.9062 20.1546 10.3072 19.8896 9.53277 19.8454C9.23192 19.8288 8.79735 19.8123 8.79735 19.8123L8.88649 24.042C8.88649 24.042 9.24306 24.1082 9.52163 24.1524C9.6832 24.1745 10.3629 24.2352 10.5468 24.2408C11.9285 24.2794 13.4662 24.1524 14.7309 23.5616C15.2881 23.302 15.7951 22.9818 16.1851 22.54C16.6921 21.9602 16.9595 21.1706 16.8926 20.3424C16.8146 19.4368 16.1739 18.3655 15.6613 17.714C14.3075 15.9912 11.9898 14.5721 9.95063 13.7383C7.86692 12.8879 5.81106 12.402 3.5992 12.3192C3.03092 12.2971 1.78849 12.3247 1.15892 12.5014C1.06977 12.529 0.980631 12.5566 0.897059 12.5732C0.830202 12.5897 0.729916 12.6339 0.696488 12.656C0.679773 12.667 0.663059 12.6836 0.663059 12.6836C0.663059 12.6836 0.702059 12.7057 0.741059 12.7223C0.807916 12.7499 1.08649 12.7664 1.23134 12.794C1.35949 12.8161 1.49877 12.8879 1.54892 12.9818C1.59906 13.0701 1.60463 13.1419 1.54334 13.2192C1.39849 13.3904 0.86363 13.3628 0.62963 13.3241C0.384488 13.2855 0.0780589 13.2137 0.0223447 12.9983C-0.0445125 12.7499 0.0780589 12.5069 0.206202 12.2805C0.468059 11.8277 0.835773 11.5958 1.38177 11.4467C2.1562 11.2369 3.1312 11.0878 3.85549 11.0602C5.50463 10.9994 7.06463 11.2866 8.66363 11.767C9.57735 12.0431 10.7752 12.5014 11.6555 12.921C12.2851 13.2192 13.2768 13.7769 13.8339 14.1358C14.0122 14.2518 15.0373 14.9972 15.1989 15.1298C15.5332 15.4003 15.9678 15.7869 16.2853 16.0961C16.8982 16.698 17.6559 17.6146 18.0236 18.3435C18.1128 18.5202 18.1796 18.6913 18.2966 18.8901C18.3356 18.9619 18.5028 19.376 18.5306 19.492C18.5585 19.608 18.5975 19.7846 18.6031 19.7902C18.6031 19.873 18.6866 20.2264 18.6755 20.3644ZM39.4235 19.4313C38.6491 19.608 36.6211 19.7073 36.6211 19.7073L36.3648 20.5025C36.3648 20.5025 37.3788 20.4141 38.1198 20.4914C38.1198 20.4914 38.3593 20.4638 38.3872 20.762C38.3983 21.0381 38.3649 21.3363 38.3649 21.3363C38.3649 21.3363 38.3482 21.5185 38.0919 21.5627C37.8134 21.6068 35.9024 21.6842 35.9024 21.6842L35.5904 22.7223C35.5904 22.7223 35.4734 22.9597 35.7352 22.8934C35.9748 22.8327 37.9749 22.4572 38.2368 22.5124C38.5153 22.5787 38.8273 22.9486 38.7382 23.2855C38.6323 23.7051 36.6322 24.9641 35.4176 24.8758C35.4176 24.8758 34.7769 24.9144 34.2365 24.0641C33.7351 23.2468 34.4259 21.7062 34.4259 21.7062C34.4259 21.7062 34.1083 20.9884 34.3368 20.7399C34.3368 20.7399 34.4761 20.6184 34.8716 20.5908L35.3619 19.5859C35.3619 19.5859 34.8048 19.6245 34.4705 19.2159C34.1641 18.8294 34.1362 18.6527 34.3702 18.5478C34.6209 18.4263 36.9442 18.0011 38.5432 18.0563C38.5432 18.0563 39.1003 18.0011 39.5795 18.9564C39.5851 18.9509 39.8191 19.3374 39.4235 19.4313ZM33.4119 23.291C33.2058 23.7659 32.6653 24.2794 31.9912 23.9591C31.3282 23.6444 30.2696 21.4964 30.2696 21.4964C30.2696 21.4964 29.8685 20.6957 29.7905 20.7178C29.7905 20.7178 29.7013 20.5632 29.6512 21.4357C29.5955 22.3081 29.6623 24.0033 29.3113 24.2684C28.9771 24.5334 28.5759 24.4285 28.3698 24.1193C28.1803 23.8101 28.1023 23.0812 28.2026 21.7946C28.3252 20.508 28.6261 19.1331 29.0105 18.7079C29.3949 18.2827 29.7069 18.5919 29.8239 18.7024C29.8239 18.7024 30.3365 19.1662 31.1889 20.5246L31.3393 20.7786C31.3393 20.7786 32.1138 22.0652 32.1918 22.0596C32.1918 22.0596 32.2531 22.1204 32.3088 22.0762C32.3923 22.0541 32.3589 21.64 32.3589 21.64C32.3589 21.64 32.1973 20.243 31.4953 17.8686C31.4953 17.8686 31.3895 17.5704 31.4619 17.2943C31.5343 17.0127 31.8185 17.1452 31.8185 17.1452C31.8185 17.1452 32.9105 17.6919 33.4398 19.4533C33.9746 21.2203 33.6181 22.8051 33.4119 23.291ZM45.1621 22.2308C44.6662 23.0922 43.2622 24.8923 41.3958 24.4671C40.7774 25.947 40.2648 27.4434 39.9639 29.6853C39.9639 29.6853 39.8971 30.1215 39.5349 29.9669C39.1728 29.8399 38.5766 29.2435 38.4541 28.4208C38.3259 27.3385 38.8106 25.5052 39.8079 23.407C39.5182 22.9376 39.3176 22.2695 39.4903 21.3197C39.4903 21.3197 39.7411 19.5527 41.5295 17.9625C41.5295 17.9625 41.7412 17.7802 41.8694 17.8355C42.0086 17.8907 41.9418 18.4649 41.8359 18.7465C41.7245 19.0226 40.9278 20.392 40.9278 20.392C40.9278 20.392 40.4319 21.3142 40.5712 22.0431C41.5072 20.6129 43.6411 17.7305 44.9671 18.6361C45.4128 18.9509 45.6134 19.6356 45.6134 20.3755C45.6134 21.0271 45.4573 21.7173 45.1621 22.2308ZM44.7776 19.9669C44.7776 19.9669 44.7052 19.3981 44.1425 20.0221C43.6578 20.5522 42.7886 21.5406 42.0922 22.8879C42.8276 22.8051 43.5352 22.413 43.7525 22.2087C44.0979 21.905 44.9058 21.0768 44.7776 19.9669ZM55.4358 19.8399H52.0205C51.9536 18.6858 51.8144 17.5649 51.5915 16.4108C51.5692 16.2893 51.4633 16.2065 51.3408 16.2065H50.5552C50.4884 16.2065 50.4215 16.2396 50.3769 16.2893C50.3324 16.3446 50.3156 16.4108 50.3268 16.4826C50.5496 17.598 50.6945 18.7024 50.7614 19.8454H47.4742C47.3182 19.8454 47.1956 19.9669 47.1956 20.1215V20.8172C47.1956 20.9663 47.3182 21.0933 47.4742 21.0933H50.8115C50.8115 21.2645 50.8171 21.4246 50.8171 21.5682C50.8171 22.5842 50.7725 23.418 50.6722 24.3622C50.6666 24.434 50.6889 24.5058 50.7391 24.561C50.7892 24.6162 50.8561 24.6438 50.9285 24.6438H51.6584C51.8032 24.6438 51.9202 24.5389 51.9314 24.3954C52.0316 23.4456 52.0762 22.6008 52.0762 21.5627C52.0762 21.4191 52.0762 21.259 52.0706 21.0878H55.4358C55.5862 21.0878 55.7143 20.9663 55.7143 20.8117V20.1049C55.7143 19.9613 55.5918 19.8399 55.4358 19.8399Z" fill="white"/>
<path d="M9.73292 10.4031C9.68278 10.4749 9.67164 10.5632 9.69949 10.6461C9.72735 10.7289 9.79421 10.7896 9.87221 10.8172L10.4851 11.0215C10.5241 11.0326 10.5575 11.0381 10.5965 11.0381C10.7079 11.0381 10.8194 10.9829 10.8806 10.889C12.8864 7.96797 15.6052 5.53286 18.7363 3.85422C21.9678 2.12038 25.6338 1.19823 29.3332 1.19823C33.8015 1.19823 38.1138 2.5069 41.8021 4.97515C45.4012 7.38266 48.1925 10.7454 49.8862 14.6991C49.9363 14.815 50.0533 14.8923 50.1815 14.8923H50.9113C50.9949 14.8923 51.0729 14.8482 51.1231 14.7819C51.1732 14.7101 51.1788 14.6218 51.1509 14.5445C49.4071 10.2982 46.4654 6.67587 42.6322 4.06957C38.7043 1.40806 34.1079 0 29.3332 0C21.4385 0 14.1121 3.88736 9.73292 10.4031Z" fill="white"/>
</g>
<defs>
<clipPath id="clip0_4640_13604">
<rect width="55.7143" height="30" fill="white"/>
</clipPath>
</defs>
</svg>
