<svg width="85" height="17" viewBox="0 0 85 17" fill="none" xmlns="http://www.w3.org/2000/svg">
<g clip-path="url(#clip0_4363_30295)">
<path d="M47.2011 0C50.3352 0 51.1899 1.84167 50.9525 3.87222C50.905 4.25 50.8575 4.76944 50.8575 4.76944H17.6648C17.6648 4.76944 17.7598 4.10833 17.8547 3.35278C18.0922 1.36944 19.7542 0 22.3184 0H47.2011ZM50.6201 6.61111C50.6201 6.61111 50.5251 7.27222 50.4302 8.02778C50.2402 9.49167 49.148 10.5778 47.1536 10.5778H40.0782L39.3184 17H33.7151L34.9972 6.61111C34.9497 6.61111 50.6201 6.61111 50.6201 6.61111ZM2.08939 0H17.1425L16.5726 4.76944H1.51955L2.08939 0ZM1.28212 6.56389H16.3352L15.8603 10.5306H6.41061L6.17318 12.4667H15.5754L15.0531 17H0L1.28212 6.56389ZM52.567 0H64.8184C66.7654 0 68.7598 0.897222 68.3799 4.01389C68.3324 4.58056 68.2849 4.76944 68.2849 4.76944H51.9972L52.567 0ZM50.4777 17L51.7598 6.61111H57.3631L56.081 17H50.4777ZM61.162 17L62.4441 6.61111H68.095L66.8128 17H61.162ZM29.8212 6.61111C31.5782 6.61111 33.8101 7.36667 33.3827 10.625C33.2877 11.1917 33.0503 13.8361 32.7179 14.5917C31.7682 16.9056 28.9665 16.9528 28.5866 17C28.1117 17 16.1927 17 16.1927 17L16.7626 12.4667H27.6844L27.9218 10.5306C27.9218 10.5306 21.3687 10.5306 20.324 10.5306C18.4246 10.5306 17.0475 9.30278 17.4749 6.56389C19.3743 6.56389 28.824 6.61111 29.8212 6.61111Z" fill="white"/>
<path fill-rule="evenodd" clip-rule="evenodd" d="M80.6295 6.75279L81.1519 2.45557H76.7832L76.2608 6.75279H72.177L71.7021 11.0028H75.786L75.2636 15.3945H79.6323L80.1547 11.0028H84.2385L84.7133 6.75279H80.6295Z" fill="white"/>
</g>
<defs>
<clipPath id="clip0_4363_30295">
<rect width="85" height="17" fill="white"/>
</clipPath>
</defs>
</svg>
