<svg width="317" height="317" viewBox="0 0 317 317" fill="none" xmlns="http://www.w3.org/2000/svg">
<g clip-path="url(#clip0_4722_6985)">
<path d="M113.371 45.906C111.66 52.0864 110.67 58.0457 109.449 64.0723C108.786 67.2922 106.008 67.4556 103.586 68.561C103.278 68.7019 102.961 68.7372 102.634 68.6667C100.007 68.09 98.9465 66.3855 99.4528 63.5532C102.477 46.5852 104.726 33.5613 106.2 24.4813C106.719 21.319 109.843 19.1564 113.073 19.6466C114.527 19.8709 116.001 19.9125 117.494 19.7715C117.644 19.7577 117.795 19.7761 117.938 19.8255C118.08 19.8749 118.21 19.9541 118.319 20.0578C118.428 20.1616 118.514 20.2875 118.571 20.4271C118.627 20.5667 118.654 20.7168 118.647 20.8673C118.551 23.5105 120.272 25.5098 120.868 28.0665C122.06 33.1415 123.857 38.5882 126.26 44.4066C126.76 45.6176 127.141 45.5792 127.404 44.2912C128.743 37.7232 129.861 31.4403 130.758 25.4425C130.941 24.2795 131.681 22.2706 132.892 21.7131C134.167 21.1236 134.936 19.8677 135.199 17.9453C135.244 17.6441 135.407 17.5512 135.689 17.6666L138.409 18.7911C138.717 18.9193 138.874 19.15 138.88 19.4832L138.89 21.4536C138.89 21.8253 139.073 22.0239 139.438 22.0495L139.861 22.0784C140.027 22.0912 140.12 22.0175 140.139 21.8573L140.437 19.8004C140.482 19.5184 140.639 19.3454 140.908 19.2813C141.017 19.2557 141.12 19.2749 141.216 19.339C141.402 19.4608 141.491 19.6338 141.485 19.8581C141.351 24.8946 139.966 29.7005 139.207 34.6698C138.867 36.9062 138.489 39.0912 138.073 41.2251C137.179 45.8483 137.025 50.5965 135.939 54.9987C135.382 57.2671 134.847 59.5195 134.334 61.7558C134.026 63.0534 133.007 64.6105 131.671 65.1007C129.432 65.9177 125.799 67.0231 123.684 65.4179C122.524 64.5336 121.48 63.5404 120.551 62.4383C120.458 62.3295 120.399 62.197 120.378 62.0559C120.358 61.9149 120.378 61.7709 120.435 61.6405C121.723 58.7858 116.61 48.9722 114.937 45.7426C114.277 44.4546 113.755 44.5091 113.371 45.906Z" fill="white"/>
<path d="M34.3235 66.1387C33.9967 66.6385 33.6026 67.0454 33.1412 67.3594C32.6607 67.699 32.462 67.5773 32.5453 66.9941C32.8625 64.6873 32.9586 62.3324 33.4488 60.016C35.4545 50.6157 36.5246 41.1 36.6592 31.469C36.6656 30.8154 36.3548 30.2995 35.7268 29.9215C35.4736 29.7698 35.2659 29.5533 35.1255 29.2945C34.9851 29.0357 34.9172 28.7443 34.929 28.4509L35.1501 22.9241C35.1629 22.482 35.3904 22.2289 35.8325 22.1648C37.7357 21.8956 42.2532 21.9821 41.7726 18.8103C41.7085 18.3873 41.888 18.2175 42.3109 18.3008C47.9242 19.3581 54.2391 18.445 60.0639 18.445C62.9955 18.4354 65.7636 19.4254 68.6952 19.7714C69.0605 19.8163 69.3488 19.9989 69.5603 20.3193C69.7461 20.6141 69.666 20.7935 69.32 20.8576C68.7305 20.9665 68.2018 21.2132 67.7341 21.5977C67.6316 21.6841 67.5539 21.7961 67.5087 21.9224C67.4636 22.0486 67.4527 22.1845 67.4771 22.3163C67.5015 22.4481 67.5603 22.5711 67.6477 22.6728C67.735 22.7745 67.8477 22.8512 67.9744 22.8953C69.0957 23.2861 70.2876 23.4047 71.5499 23.2509C73.3185 23.0266 73.4339 23.363 71.896 24.2601C70.6336 24.997 69.2303 25.5802 67.686 26.0095C67.0004 26.2017 66.7697 26.631 66.9939 27.2975C67.0309 27.4072 67.0423 27.5239 67.0272 27.6386C67.0122 27.7534 66.9711 27.8632 66.9071 27.9597C66.8431 28.0561 66.7579 28.1367 66.658 28.1951C66.5581 28.2536 66.4462 28.2885 66.3307 28.2971L50.0964 29.4986C49.6799 29.5306 49.4396 29.7549 49.3755 30.1714L48.1645 38.0146C48.1533 38.0964 48.1639 38.1797 48.1951 38.2562C48.2264 38.3326 48.2771 38.3995 48.3424 38.4502C48.4076 38.5008 48.485 38.5334 48.5668 38.5447C48.6486 38.5559 48.732 38.5455 48.8085 38.5144C52.0861 37.1399 54.0469 38.2068 57.2764 38.7451C57.6096 38.7964 57.8692 38.9662 58.055 39.2545C58.4971 39.9338 58.3882 40.6418 57.7282 41.3787C57.2412 41.9298 57.3629 42.2406 58.0934 42.3111C58.7983 42.3816 59.5064 42.3079 60.2176 42.09C60.8777 41.885 61.0346 42.0804 60.6886 42.6763C59.9838 43.913 59.0066 44.8518 57.757 45.4926C57.3918 45.6784 57.1675 45.97 57.0842 46.3673C56.9881 46.803 56.7926 47.165 56.4979 47.4534C56.2544 47.6969 55.9596 47.8346 55.6136 47.8667L47.5589 48.6164C47.2065 48.6484 46.9822 48.8343 46.8861 49.1739C46.492 50.606 46.2806 52.0382 45.7519 53.4511C44.7074 56.2321 43.8648 59.0708 43.224 61.9672C42.5223 65.1391 39.783 66.1868 38.7738 69.2817C38.6264 69.7303 38.3444 69.8424 37.9279 69.6182L35.2078 68.1091C35.0449 68.0207 34.9111 67.8866 34.8224 67.7229C34.7337 67.5592 34.694 67.3729 34.708 67.1864L34.7945 66.3021C34.8521 65.6421 34.6951 65.5876 34.3235 66.1387Z" fill="white"/>
<path d="M260.595 20.4637C260.601 20.124 260.675 19.8004 260.816 19.4929C260.931 19.2366 261.13 19.1084 261.412 19.1084L289.68 19.2045C290.103 19.2109 290.279 19.4192 290.208 19.8293L288.767 28.7779C288.709 29.1175 288.51 29.2873 288.171 29.2873H269.37C269.225 29.2878 269.085 29.3401 268.975 29.435C268.864 29.53 268.789 29.6614 268.765 29.8063L267.621 36.7749C267.607 36.856 267.611 36.9392 267.633 37.0188C267.655 37.0983 267.695 37.1721 267.749 37.2352C267.802 37.2984 267.87 37.3492 267.946 37.3842C268.022 37.4193 268.104 37.4376 268.188 37.4381L282.913 37.39C282.976 37.3906 283.038 37.4047 283.095 37.4313C283.153 37.4579 283.203 37.4964 283.243 37.544C283.284 37.5917 283.313 37.6473 283.329 37.707C283.345 37.7668 283.347 37.8292 283.336 37.8898L281.837 46.675C281.766 47.1043 281.513 47.319 281.077 47.319H266.458C265.939 47.319 265.634 47.5753 265.545 48.0879L264.276 55.6524C264.186 56.1907 264.41 56.4566 264.949 56.4502L283.317 56.4021C283.386 56.401 283.454 56.4153 283.517 56.444C283.58 56.4727 283.635 56.5151 283.68 56.5682C283.725 56.6214 283.758 56.684 283.777 56.7516C283.795 56.8192 283.799 56.8902 283.788 56.9596L282.183 65.8601C282.099 66.3151 281.827 66.5426 281.366 66.5426H252.771C252.717 66.5419 252.665 66.5297 252.616 66.5071C252.568 66.4845 252.526 66.4518 252.492 66.4115C252.458 66.3712 252.433 66.3242 252.42 66.2737C252.407 66.2233 252.405 66.1707 252.415 66.1196C255.093 51.0804 257.737 36.0251 260.345 20.9539C260.37 20.8065 260.434 20.6847 260.537 20.5886C260.575 20.5502 260.595 20.5085 260.595 20.4637ZM262.238 43.4166C262.249 43.3631 262.278 43.315 262.32 43.28C262.362 43.2451 262.414 43.2255 262.469 43.2244L278.05 42.9841C278.089 42.9827 278.127 42.9717 278.161 42.9521C278.195 42.9326 278.223 42.905 278.244 42.8718C278.265 42.8386 278.278 42.8009 278.281 42.7618C278.283 42.7227 278.277 42.6836 278.261 42.6477L277.963 41.8979C277.944 41.855 277.913 41.8184 277.874 41.7928C277.835 41.7672 277.789 41.7536 277.742 41.7538L262.661 41.475C262.625 41.4758 262.589 41.4684 262.557 41.4534C262.524 41.4385 262.495 41.4163 262.472 41.3886C262.449 41.3609 262.432 41.3284 262.423 41.2934C262.414 41.2585 262.414 41.222 262.421 41.1867L265.439 25.1542C265.45 25.1007 265.479 25.0526 265.521 25.0176C265.562 24.9827 265.615 24.9631 265.67 24.962L284.634 24.6063C284.696 24.6064 284.755 24.5824 284.8 24.5394C284.845 24.4964 284.871 24.4377 284.874 24.3757L284.893 23.8855C284.894 23.8531 284.889 23.8208 284.878 23.7905C284.866 23.7603 284.849 23.7326 284.826 23.7093C284.804 23.686 284.777 23.6674 284.747 23.6547C284.717 23.642 284.685 23.6355 284.653 23.6356L264.362 23.376C264.305 23.3753 264.249 23.3953 264.205 23.4323C264.161 23.4694 264.131 23.521 264.122 23.5779L257.528 61.7367C257.523 61.7713 257.525 61.8067 257.534 61.8405C257.544 61.8742 257.561 61.9055 257.584 61.932C257.607 61.9586 257.635 61.9798 257.667 61.9942C257.699 62.0086 257.734 62.0159 257.769 62.0154L278.117 61.852C278.179 61.8521 278.239 61.8281 278.283 61.7851C278.328 61.7421 278.355 61.6834 278.357 61.6213L278.386 61.16C278.387 61.1276 278.382 61.0953 278.371 61.065C278.359 61.0348 278.342 61.0071 278.319 60.9838C278.297 60.9605 278.27 60.9419 278.24 60.9292C278.21 60.9166 278.178 60.91 278.146 60.9101L259.182 60.8332C259.146 60.8325 259.112 60.824 259.08 60.8085C259.049 60.7929 259.021 60.7705 258.999 60.743C258.977 60.7155 258.961 60.6835 258.953 60.6492C258.945 60.615 258.944 60.5793 258.951 60.5448L262.238 43.4166Z" fill="white"/>
<path d="M167.581 30.0464C167.602 29.9282 167.597 29.8068 167.565 29.6908C167.534 29.5747 167.478 29.4667 167.4 29.3743C167.322 29.2819 167.225 29.2074 167.115 29.1558C167.005 29.1042 166.886 29.0769 166.764 29.0757L156.893 29.0564C156.543 29.056 156.205 29.1792 155.937 29.4044C155.67 29.6296 155.491 29.9422 155.432 30.2867L151.107 54.8449C150.895 56.0752 151.411 56.6871 152.654 56.6807L161.266 56.6326C161.728 56.6308 162.173 56.4672 162.527 56.1704C162.88 55.8736 163.117 55.4623 163.198 55.0083L164.198 49.3277C164.214 49.2368 164.261 49.1544 164.331 49.0947C164.401 49.035 164.49 49.0018 164.582 49.0009L173.521 48.9913C173.596 48.9904 173.671 49.0059 173.739 49.0367C173.808 49.0674 173.869 49.1127 173.918 49.1694C173.968 49.2261 174.004 49.2928 174.025 49.3649C174.046 49.437 174.051 49.5129 174.04 49.5872C172.762 57.6996 172.118 65.735 161.958 66.4943C160.119 66.6353 155.714 66.6385 148.742 66.504C140.841 66.3502 140.034 60.3716 141.283 53.9798C142.764 46.3993 144.109 38.7804 145.32 31.123C146.493 23.7507 149.761 18.9256 157.816 19.1371C161.161 19.2268 164.662 19.2172 168.321 19.1082C174.29 18.9256 178.241 21.1363 177.712 27.903C177.469 31.0236 176.943 33.8848 176.136 36.4863C176.114 36.5561 176.07 36.6176 176.01 36.6623C175.95 36.707 175.876 36.7328 175.799 36.7363C172.685 36.7811 169.6 36.7651 166.543 36.6882C166.529 36.6882 166.514 36.6854 166.501 36.6797C166.488 36.6741 166.476 36.6659 166.467 36.6558C166.458 36.6456 166.451 36.6337 166.448 36.6211C166.444 36.6084 166.444 36.5952 166.447 36.5825L167.581 30.0464ZM150.578 33.5644C150.873 31.8919 151.244 30.2355 151.693 28.5951C152.318 26.2882 154.125 24.9234 156.432 24.8945C160.212 24.8369 164.182 24.8176 168.341 24.8369C169.699 24.8433 170.657 25.1701 171.214 25.8173C172.772 27.6339 171.907 29.6043 171.637 31.6805C171.612 31.8663 171.657 32.0329 171.772 32.1803C171.862 32.2892 171.977 32.3437 172.118 32.3437C172.464 32.3373 172.688 32.1707 172.791 31.8439C173.867 28.4317 174.04 23.7796 169.196 23.472C165.146 23.2221 161.141 23.158 157.181 23.2797C154.317 23.3663 151.203 24.9714 150.395 27.8453C149.87 29.7229 149.45 31.6676 149.136 33.6797C147.951 41.1577 146.672 48.6901 145.301 56.277C144.772 59.1894 146.455 62.0441 149.588 61.9864C153.324 61.9159 157.181 61.9031 161.161 61.948C166.447 62.0152 168.302 58.7184 169.033 53.951C169.046 53.8476 169.026 53.7429 168.976 53.6528C168.926 53.5626 168.848 53.4918 168.754 53.4511L168.456 53.3262C168.033 53.1468 167.777 53.2813 167.687 53.7299C167.552 54.4348 167.421 55.1781 167.293 55.9598C166.735 59.3688 164.717 61.0477 161.237 60.9964C157.406 60.9387 153.567 60.8843 149.723 60.833C149.218 60.8278 148.72 60.7118 148.264 60.4932C147.809 60.2745 147.407 59.9586 147.086 59.5674C146.766 59.1763 146.534 58.7195 146.409 58.2291C146.283 57.7387 146.266 57.2266 146.358 56.7288C147.845 48.7638 149.252 41.0423 150.578 33.5644Z" fill="white"/>
<path d="M209.796 57.2095C208.835 62.6498 204.385 66.3023 199.079 66.456C195.196 66.5778 190.784 66.597 185.844 66.5137C178.904 66.4048 176.072 62.8132 177.347 55.7389C178.737 48.0431 180.205 39.6584 181.749 30.5849C182.96 23.4721 186.324 18.9642 193.985 19.1468C197.81 19.2365 201.732 19.2269 205.75 19.118C212.872 18.9258 215.9 22.7512 214.66 29.7775C212.91 39.6007 211.289 48.7447 209.796 57.2095ZM181.489 56.2579C181.353 56.9975 181.385 57.7584 181.583 58.4839C181.781 59.2095 182.14 59.8811 182.633 60.449C183.126 61.0169 183.741 61.4664 184.431 61.7642C185.122 62.062 185.871 62.2004 186.622 62.1692L200.502 61.6117C201.637 61.5647 202.723 61.1328 203.581 60.3869C204.438 59.6411 205.017 58.6256 205.221 57.5075L210.44 29.1623C210.575 28.4285 210.544 27.6737 210.35 26.9533C210.156 26.2329 209.803 25.5649 209.317 24.9984C208.832 24.4318 208.226 23.9808 207.544 23.6785C206.862 23.3762 206.121 23.2302 205.375 23.2511L191.534 23.6451C190.389 23.6788 189.291 24.1035 188.422 24.8486C187.553 25.5936 186.965 26.614 186.757 27.7398L181.489 56.2579Z" fill="white"/>
<path d="M218.303 55.6812L222.849 29.7678C222.866 29.678 222.863 29.5854 222.84 29.4969C222.817 29.4084 222.774 29.3261 222.715 29.2561C222.656 29.1862 222.583 29.1302 222.499 29.0924C222.416 29.0545 222.325 29.0357 222.234 29.0373L219.946 29.0758C219.504 29.0822 219.322 28.8675 219.398 28.4318L220.879 19.7331C220.943 19.3615 221.164 19.1756 221.542 19.1756C229.68 19.1885 237.904 19.1853 246.215 19.166C252.54 19.1564 254.491 23.8662 253.52 29.3641C252.155 37.1305 250.666 45.7298 249.051 55.1622C247.724 62.9093 244.005 66.6194 235.969 66.581C227.613 66.5297 220.097 66.5201 213.42 66.5521C213.328 66.5535 213.237 66.5346 213.154 66.4968C213.07 66.459 212.996 66.4033 212.936 66.3335C212.876 66.2638 212.833 66.1818 212.809 66.0933C212.784 66.0048 212.78 65.9121 212.795 65.8216L214.256 57.171C214.333 56.7033 214.612 56.463 215.092 56.4501L217.438 56.4117C217.931 56.4053 218.219 56.1618 218.303 55.6812ZM220.879 60.8043L217.178 60.9773C216.896 60.9901 216.79 61.1343 216.861 61.4098L216.928 61.679C216.947 61.7505 216.989 61.8138 217.046 61.8589C217.103 61.9041 217.173 61.9287 217.245 61.9289C223.781 61.9481 230.407 61.9577 237.123 61.9577C241.461 61.9577 244.005 59.8655 244.754 55.6812C246.382 46.582 247.974 37.5213 249.531 28.4991C249.635 27.8963 249.606 27.2782 249.445 26.688C249.285 26.0978 248.997 25.5499 248.602 25.0828C248.208 24.6156 247.715 24.2406 247.16 23.9839C246.605 23.7272 246 23.5952 245.389 23.5971H223.935C223.711 23.5971 223.596 23.7092 223.589 23.9335L223.58 24.2603C223.573 24.5038 223.695 24.6287 223.945 24.6351L226.896 24.7216C227.575 24.7409 227.857 25.0869 227.741 25.7597L221.734 60.045C221.651 60.5255 221.366 60.7787 220.879 60.8043Z" fill="white"/>
<path d="M93.7242 66.4944L91.8883 68.5225C91.7617 68.6613 91.6058 68.7702 91.4319 68.8414C91.258 68.9126 91.0705 68.9443 90.8829 68.9341C90.6952 68.924 90.5122 68.8724 90.347 68.7829C90.1818 68.6934 90.0385 68.5684 89.9275 68.4168L89.2547 67.5037C88.9727 67.1128 88.6011 66.9878 88.1397 67.1288C87.5694 67.2954 87.0472 67.2377 86.573 66.9558C86.259 66.7636 86.0668 66.4656 85.9963 66.0619C85.3555 62.6273 84.9294 59.135 84.7179 55.585C84.6912 55.1771 84.5116 54.7945 84.2155 54.5145C83.9194 54.2344 83.5287 54.0777 83.1224 54.076C80.021 54.0696 77.0798 54.3676 74.2987 54.9699C73.8374 55.0724 73.4753 55.3159 73.2126 55.7004C70.233 60.0129 66.8176 64.2004 62.9665 68.263C62.8913 68.3416 62.7977 68.4003 62.6942 68.4336C62.5906 68.4669 62.4804 68.4739 62.3735 68.4538C62.2666 68.4338 62.1664 68.3874 62.0819 68.3188C61.9975 68.2502 61.9315 68.1617 61.8899 68.0611C61.7233 67.651 61.435 67.3146 61.0249 67.0519C60.7173 66.8533 60.4065 66.8404 60.0925 67.0135L57.4108 68.4937C56.7444 68.8653 56.1869 68.7436 55.7384 68.1284C54.6234 66.6098 54.0852 64.7259 55.1521 63.0534C62.1623 52.0511 69.4736 38.6266 77.0862 22.78C78.576 19.685 82.6322 19.1372 85.583 19.7042C87.4605 20.0631 89.3925 20.0503 91.3789 19.6658C92.103 19.5248 92.5419 19.8164 92.6957 20.5405C93.1571 22.6743 93.4743 24.9427 93.3589 27.1245C93.2243 29.5147 93.2564 31.9016 93.455 34.2853C94.2688 43.9612 95.214 53.4608 96.2905 62.7843C96.4827 64.4311 95.8772 65.5012 94.4739 65.9946C94.1791 66.0971 93.9292 66.2637 93.7242 66.4944ZM77.3841 44.7045C77.3637 44.7538 77.3557 44.8074 77.3608 44.8606C77.3659 44.9137 77.3839 44.9648 77.4133 45.0094C77.4427 45.054 77.4826 45.0907 77.5294 45.1163C77.5763 45.1419 77.6287 45.1556 77.6821 45.1563L83.4684 45.089C83.5113 45.0877 83.5536 45.078 83.5927 45.0605C83.6319 45.0429 83.6672 45.0177 83.6967 44.9865C83.7262 44.9553 83.7492 44.9185 83.7644 44.8784C83.7797 44.8382 83.7869 44.7955 83.7856 44.7526L83.1704 33.2569C83.1664 33.1836 83.1379 33.1139 83.0895 33.0588C83.0411 33.0038 82.9755 32.9666 82.9034 32.9533C82.8313 32.94 82.7568 32.9513 82.692 32.9854C82.6271 33.0196 82.5755 33.0746 82.5457 33.1415L77.3841 44.7045Z" fill="white"/>
<path d="M244.745 48.8855C244.187 51.7691 243.947 54.7775 243.043 57.5457C242.345 59.6731 240.74 60.7625 238.228 60.8137C232.948 60.9163 227.863 60.9227 222.974 60.833C222.88 60.8323 222.787 60.8084 222.703 60.7634C222.62 60.7184 222.55 60.6536 222.497 60.5748C222.445 60.496 222.413 60.4056 222.404 60.3115C222.395 60.2174 222.409 60.1225 222.445 60.0352C222.638 59.5738 222.897 59.1894 222.993 58.6703C224.813 48.4562 226.707 37.7391 228.674 26.5189C228.885 25.3334 229.593 24.7343 230.798 24.7215C234.938 24.6702 239.301 24.6734 243.889 24.7311C247.984 24.7792 248.561 26.74 248.003 30.2771C247.055 36.2813 245.969 42.4841 244.745 48.8855ZM227.818 55.2966C227.793 55.4441 227.8 55.5954 227.84 55.7398C227.88 55.8841 227.951 56.0179 228.048 56.1317C228.145 56.2455 228.266 56.3365 228.403 56.3981C228.539 56.4598 228.688 56.4906 228.837 56.4884L238.497 56.3443C238.734 56.3414 238.962 56.2564 239.142 56.1038C239.323 55.9513 239.445 55.7406 239.487 55.508L243.899 30.3155C243.924 30.1696 243.917 30.02 243.879 29.877C243.84 29.7341 243.771 29.6013 243.676 29.4878C243.58 29.3744 243.462 29.283 243.328 29.2201C243.194 29.1572 243.047 29.1243 242.899 29.1237L233.307 29.0083C233.064 29.0048 232.828 29.0881 232.641 29.2432C232.454 29.3982 232.329 29.6149 232.288 29.8542L227.818 55.2966Z" fill="white"/>
<path d="M182.701 56.527L187.968 28.1145C188.122 27.2719 188.562 26.508 189.213 25.9514C189.864 25.3948 190.687 25.0793 191.544 25.058L205.49 24.7216C206.045 24.7081 206.595 24.8185 207.101 25.0445C207.607 25.2706 208.057 25.6067 208.417 26.0284C208.777 26.4501 209.038 26.9467 209.182 27.4822C209.326 28.0176 209.349 28.5784 209.249 29.1237L204.058 57.6611C203.905 58.5119 203.46 59.2828 202.801 59.8421C202.142 60.4014 201.309 60.7143 200.444 60.7273L186.43 60.9388C185.877 60.9481 185.329 60.8344 184.826 60.6059C184.322 60.3774 183.876 60.0398 183.519 59.6175C183.162 59.1952 182.903 58.6989 182.762 58.1643C182.62 57.6298 182.6 57.0705 182.701 56.527ZM187.372 55.114C187.338 55.309 187.348 55.5091 187.4 55.7C187.452 55.8909 187.546 56.068 187.674 56.2185C187.803 56.3691 187.963 56.4894 188.143 56.571C188.324 56.6525 188.52 56.6933 188.718 56.6904L198.877 56.575C199.19 56.5711 199.491 56.4587 199.729 56.257C199.968 56.0553 200.129 55.777 200.185 55.4697L204.616 30.604C204.651 30.4091 204.643 30.2088 204.592 30.0173C204.541 29.8259 204.448 29.6481 204.321 29.4966C204.193 29.3451 204.034 29.2237 203.854 29.141C203.674 29.0582 203.478 29.0162 203.28 29.018L193.081 29.0853C192.766 29.0874 192.462 29.2002 192.221 29.404C191.98 29.6077 191.819 29.8896 191.765 30.2003L187.372 55.114Z" fill="white"/>
<path d="M65.0624 97.8191C65.6391 97.1078 66.3536 96.7041 67.2058 96.608C67.6223 96.5632 67.8081 96.7522 67.7633 97.1751L67.6768 98.0017C67.6319 98.4054 67.4109 98.5912 67.0136 98.5592L65.3123 98.4054C65.2463 98.3986 65.1832 98.3742 65.1296 98.335C65.0761 98.2958 65.0342 98.2432 65.0085 98.1829C64.9828 98.1226 64.9742 98.0568 64.9837 97.9927C64.9932 97.9286 65.0204 97.8686 65.0624 97.8191Z" fill="white"/>
<path d="M84.6412 100.04C84.6648 100.041 84.6879 100.047 84.7091 100.057C84.7303 100.068 84.7492 100.082 84.7645 100.1C84.7798 100.118 84.7912 100.139 84.7981 100.162C84.805 100.185 84.8072 100.208 84.8046 100.232L84.795 100.299C84.7509 100.807 84.4948 101.276 84.0825 101.604C83.6701 101.931 83.1351 102.091 82.5939 102.048L81.9403 102C81.6708 101.978 81.408 101.907 81.1669 101.79C80.9258 101.672 80.7112 101.512 80.5353 101.317C80.3595 101.123 80.2258 100.898 80.142 100.655C80.0581 100.413 80.0258 100.158 80.0467 99.905L80.0563 99.8377C80.0612 99.7935 80.0829 99.7529 80.1169 99.7243C80.1509 99.6956 80.1946 99.6812 80.239 99.6839L84.6412 100.04Z" fill="white"/>
<path d="M114.486 193.351C116.639 192.678 118.898 192.091 121.137 192.774C123.281 193.418 125.626 193.783 127.866 193.437C130.788 192.976 133.636 192.723 136.411 192.678C136.66 192.678 136.757 192.8 136.699 193.043L136.603 193.427C136.579 193.519 136.524 193.6 136.449 193.656C136.374 193.712 136.282 193.74 136.189 193.735C133.434 193.575 131.323 193.78 129.855 194.35C126.414 195.683 126.485 196.398 130.067 196.494C130.573 196.506 131.755 196.25 133.614 195.725C133.703 195.699 133.764 195.731 133.796 195.821L134.017 196.359C134.062 196.474 134.03 196.558 133.921 196.609C132.268 197.461 130.666 197.878 129.115 197.859C128.737 197.852 128.398 197.964 128.096 198.195C127.372 198.746 127.126 199.486 127.356 200.415C127.44 200.729 127.327 200.928 127.02 201.011C124.726 201.678 122.506 201.902 120.359 201.684C120.35 201.682 120.34 201.683 120.332 201.686C120.323 201.689 120.315 201.695 120.308 201.702C120.302 201.71 120.297 201.719 120.294 201.729C120.291 201.739 120.29 201.75 120.292 201.761L120.311 202.011C120.315 202.06 120.33 202.108 120.354 202.152C120.379 202.195 120.413 202.232 120.454 202.262C120.495 202.291 120.542 202.311 120.592 202.321C120.642 202.331 120.694 202.33 120.743 202.318C121.878 202.024 122.55 202.421 122.762 203.51C122.789 203.654 122.847 203.79 122.932 203.908C123.017 204.026 123.128 204.124 123.255 204.195C123.383 204.266 123.525 204.308 123.67 204.317C123.816 204.327 123.962 204.304 124.098 204.25C125.136 203.853 126.161 203.888 127.174 204.356C127.68 204.593 127.657 204.753 127.106 204.837C125.812 205.042 124.562 204.997 123.358 204.702C121.224 204.193 118.936 203.933 118.523 206.817C118.503 206.975 118.438 207.124 118.336 207.247C118.234 207.37 118.098 207.46 117.946 207.509C115.953 208.15 113.791 208.406 111.458 208.278C111.42 208.278 111.397 208.294 111.391 208.326L111.353 208.595C111.314 208.832 111.414 208.979 111.651 209.037C114.509 209.742 117.543 209.982 120.753 209.758C121.323 209.719 121.551 209.979 121.435 210.536L121.339 210.988C121.288 211.238 121.166 211.467 120.989 211.65C120.812 211.832 120.586 211.959 120.34 212.017C116.591 212.92 113.054 214.15 109.132 214.314C98.6298 214.743 88.0344 215.913 77.3461 217.822C77.2241 217.844 77.1135 217.907 77.0329 218C76.9524 218.093 76.9068 218.21 76.904 218.332C76.8463 220.485 77.0097 222.654 77.3942 224.839C77.4198 224.961 77.4871 225.047 77.596 225.098C77.6281 225.111 77.6569 225.121 77.6825 225.127C77.8043 225.153 77.8684 225.105 77.8748 224.983C77.9068 223.157 77.9933 221.388 78.1343 219.677C78.1471 219.523 78.1984 219.383 78.2881 219.254C78.397 219.107 78.5252 218.988 78.6726 218.899C78.7656 218.843 78.8708 218.81 78.9793 218.803C79.0877 218.796 79.1962 218.816 79.2954 218.86C79.3946 218.905 79.4816 218.973 79.5488 219.058C79.6161 219.143 79.6618 219.244 79.6818 219.35C80.2649 222.285 79.7715 224.541 78.2016 226.117C77.8876 226.438 77.721 226.822 77.7018 227.271C77.5864 229.994 77.1411 232.528 76.3657 234.874C76.0453 235.841 75.8691 236.831 75.8371 237.844C75.8307 238.125 75.7153 238.353 75.4911 238.526C73.8763 239.756 72.646 239.929 72.7133 242.39C72.7261 243.044 72.6556 243.688 72.5018 244.322C71.3035 249.205 70.1854 254.011 69.1473 258.74C67.9939 263.968 66.456 269.072 65.043 274.282C64.6105 275.877 63.6493 276.896 62.8708 278.28C62.7129 278.552 62.6238 278.859 62.6113 279.174C62.5792 279.725 62.4286 280.238 62.1595 280.712C61.9481 281.097 61.6405 281.209 61.2368 281.049C60.7242 280.85 60.5127 280.488 60.6024 279.962C60.9228 278.066 61.381 275.656 61.9769 272.734C62.0025 272.619 61.9577 272.542 61.8423 272.504L61.5828 272.427C61.2688 272.324 61.0766 272.436 61.0061 272.763C59.481 279.748 57.5138 286.502 55.1045 293.025C55.0596 293.147 54.9763 293.188 54.8546 293.15L54.6239 293.083C54.3996 293.018 54.3131 292.871 54.3644 292.64C55.5242 287.578 56.165 282.715 56.2867 278.05C56.3252 276.666 56.8154 275.57 57.0941 274.253C57.1774 273.849 57.0108 273.654 56.5943 273.667C56.3636 273.68 56.2098 273.785 56.1329 273.984C53.0507 281.859 51.3302 286.703 50.9714 288.517C50.0102 293.38 48.8151 297.895 47.3862 302.06C47.3679 302.11 47.3381 302.156 47.2992 302.193C47.2603 302.23 47.2134 302.257 47.1626 302.272C47.1117 302.287 47.0584 302.29 47.007 302.28C46.9556 302.27 46.9076 302.247 46.8672 302.214L46.6365 302.041C46.5852 301.996 46.5692 301.941 46.5884 301.877C47.101 299.743 47.4727 297.549 47.7034 295.293C47.7546 294.768 47.5272 294.431 47.0209 294.284L46.7422 294.207C46.3513 294.098 46.1367 294.249 46.0982 294.659C46.0149 295.626 45.6048 296.254 44.8679 296.543C44.4706 296.697 44.3008 296.559 44.3585 296.129C44.429 295.61 44.634 295.149 44.9736 294.745C45.0797 294.618 45.1583 294.47 45.2046 294.309C45.2509 294.149 45.2639 293.98 45.2428 293.813C45.1467 293.14 44.807 292.583 44.2239 292.141C43.9548 291.935 43.676 291.926 43.3877 292.112C41.4333 293.374 39.7192 294.809 38.2454 296.418C38.2003 296.467 38.1438 296.503 38.0811 296.525C38.0183 296.547 37.9511 296.553 37.8855 296.542C37.8199 296.532 37.7579 296.505 37.705 296.465C37.6521 296.425 37.6099 296.372 37.5822 296.312C36.7363 294.419 38.5626 292.275 39.2546 290.564C39.6007 289.718 39.3475 289.065 38.4953 288.603C38.1813 288.43 38.0051 288.52 37.9666 288.873L37.7744 290.766C37.7296 291.227 37.4732 291.458 37.0055 291.458H36.6979C36.3967 291.458 36.2686 291.311 36.3134 291.016C36.5153 289.641 37.3996 288.767 37.5726 287.325C37.8289 285.275 38.0692 283.253 38.2934 281.26C38.4665 279.722 39.3315 278.415 39.4661 276.877C39.5109 276.32 39.3636 276.265 39.0239 276.714C38.6715 277.188 38.4056 277.726 38.2262 278.328C38.1236 278.655 37.9474 278.931 37.6975 279.155C36.7299 279.994 36.009 281.068 35.5349 282.375C35.4259 282.683 35.4131 282.993 35.4964 283.307C36.0539 285.492 35.7111 287.504 34.468 289.344C33.9874 290.055 33.7855 289.981 33.8624 289.122C34.0867 286.534 34.5288 283.868 35.1888 281.125C35.2515 280.843 35.3952 280.586 35.6021 280.385L35.9001 280.078C36.1885 279.796 36.1532 279.565 35.7944 279.386C35.0319 279.014 34.2565 278.867 33.4683 278.944C33.0839 278.982 32.8756 279.19 32.8436 279.568C32.8051 279.966 32.7891 280.356 32.7955 280.741C32.7955 280.933 32.7442 281.116 32.6417 281.289C32.5969 281.359 32.5552 281.433 32.5168 281.51C32.3309 281.85 32.2508 281.827 32.2765 281.443C32.3918 279.495 32.6802 277.537 33.1415 275.57C34.4423 270.027 35.6758 264.744 36.8421 259.72C37.1304 258.49 37.0695 257.323 36.6594 256.221C36.4928 255.754 36.3615 255.763 36.2654 256.25C35.3554 260.998 34.3879 265.731 33.3626 270.447C32.9974 272.119 31.9785 273.398 31.7382 275.012C31.2096 278.396 29.7005 281.462 29.4025 284.845C29.2424 286.607 28.6208 288.353 27.5379 290.084C27.3594 290.379 27.3042 290.732 27.3841 291.064L27.682 292.208C27.8358 292.829 27.6724 292.929 27.1918 292.506C26.7177 292.089 26.1922 291.791 25.6155 291.612C25.1413 291.465 24.9971 291.157 25.183 290.689C25.8942 288.873 26.5767 287.133 26.2691 285.143C25.9872 283.298 26.4613 281.443 27.6916 279.578C27.8077 279.409 27.8813 279.213 27.9064 279.007C27.9315 278.802 27.9073 278.592 27.8358 278.396C27.6949 277.998 27.4257 277.694 27.0284 277.483C26.6376 277.278 26.503 276.96 26.6247 276.531C27.3745 273.888 27.336 271.129 27.9223 268.409C32.5648 246.84 37.1016 225.358 38.8894 203.289C40.4144 184.521 41.6159 165.912 42.4938 147.464C42.5023 147.287 42.4551 147.111 42.3587 146.962C42.2623 146.812 42.1214 146.695 41.9555 146.628C39.7544 145.763 36.7075 144.58 35.8905 142.101C35.3779 140.543 35.1152 138.977 35.1023 137.4C35.0511 132.325 35.3138 127.257 35.8905 122.195C36.134 120.016 37.3387 117.796 39.5045 115.534C39.7352 115.29 40.0204 115.152 40.36 115.12C44.9672 114.697 49.693 114.201 54.5374 113.63C55.8125 113.483 57.0717 113.22 58.3148 112.842C58.6499 112.737 58.9363 112.515 59.1222 112.217C60.2115 110.475 60.7882 108.722 60.8523 106.96C60.8843 106.191 61.2944 105.746 62.0826 105.624C62.6145 105.541 63.1015 105.339 63.5436 105.018C63.9537 104.717 63.9089 104.515 63.409 104.413C63.1079 104.349 62.8548 104.204 62.6497 103.98C62.4062 103.705 62.3197 103.384 62.3902 103.019C62.4222 102.833 62.3934 102.676 62.3037 102.548C62.0922 102.253 61.8167 102.167 61.4771 102.289L59.9104 102.846C59.8558 102.865 59.7975 102.873 59.74 102.867C59.6825 102.861 59.6272 102.843 59.5782 102.813C59.5292 102.784 59.4878 102.744 59.4571 102.696C59.4264 102.649 59.4072 102.595 59.4009 102.538C59.2856 101.568 59.747 100.482 60.8619 100.424C63.8159 100.283 66.5329 100.459 69.0127 100.952C71.0696 101.366 72.9151 101.097 74.972 101.202C75.0729 101.208 75.1712 101.239 75.2583 101.293C75.3455 101.346 75.4188 101.421 75.4718 101.51L75.6064 101.741C75.6316 101.782 75.6455 101.83 75.6466 101.879C75.6477 101.927 75.636 101.976 75.6126 102.018C75.5893 102.061 75.5551 102.097 75.5135 102.123C75.472 102.148 75.4244 102.162 75.3757 102.164C72.992 102.266 70.7076 102.494 68.5225 102.846C67.8305 102.955 67.2153 103.224 66.6771 103.653C66.4656 103.826 66.3503 104.047 66.331 104.317C66.3054 104.643 66.456 104.797 66.7828 104.778C70.0508 104.579 73.2836 103.996 76.4811 103.029C76.9937 102.875 77.4294 102.993 77.7883 103.384C78.0061 103.634 78.2593 103.833 78.5476 103.98C78.9577 104.198 79.3966 104.272 79.8644 104.201C83.8053 103.644 87.7621 103.157 91.735 102.74C92.3886 102.67 92.9781 102.446 93.5035 102.067C93.8111 101.843 94.1443 101.792 94.5032 101.914C95.3875 102.221 96.2493 102.333 97.0887 102.25C109.719 100.981 122.509 100.302 135.459 100.212C137.433 100.2 141.418 100.744 147.416 101.846C149.069 102.154 150.155 102.827 151.52 103.682C152.876 104.518 155.23 104.365 156.759 104.278C158.998 104.144 160.815 104.884 162.939 105.259C164.644 105.553 164.676 105.973 163.035 106.518C162.023 106.857 160.664 106.941 158.96 106.768C158.743 106.745 158.526 106.805 158.352 106.935C158.179 107.065 158.063 107.257 158.027 107.469L157.979 107.758C157.969 107.815 157.973 107.875 157.989 107.931C158.005 107.988 158.034 108.04 158.074 108.084C158.113 108.128 158.163 108.163 158.218 108.187C158.273 108.21 158.333 108.221 158.393 108.219C162.43 108.104 166.351 108.132 170.158 108.306C170.747 108.331 171.135 108.613 171.321 109.151C171.449 109.523 171.317 109.728 170.926 109.766C168.254 109.991 165.807 109.994 163.583 109.776C162.827 109.706 162.346 110.039 162.141 110.776C162.1 110.929 162.011 111.065 161.886 111.164C161.761 111.263 161.608 111.319 161.449 111.324C159.719 111.394 157.928 111.24 156.076 110.862C155.198 110.683 154.391 110.821 153.654 111.276C152.866 111.763 152.936 112.022 153.866 112.054C155.922 112.131 161.738 111.958 160.007 115.908C159.822 116.331 159.514 116.456 159.085 116.283C157.592 115.687 156.169 115.71 154.817 116.351C152.712 117.35 150.79 117.321 148.618 117.956C148.566 117.969 148.544 118.001 148.55 118.052L148.56 118.34C148.566 118.468 148.634 118.52 148.762 118.494C151.52 117.994 156.259 116.995 158.979 118.11C160.164 118.597 161.513 118.638 163.026 118.234C163.557 118.087 164.057 118.161 164.525 118.456C166.281 119.558 167.94 119.433 169.504 118.081C177.732 110.978 186.959 108.017 197.993 108.056C214.897 108.113 232.314 108.132 250.243 108.113C252.659 108.113 255.01 108.405 257.298 108.988C274.138 113.246 280.376 127.933 277.723 144.157C276.121 153.949 274.33 164.112 272.35 174.646C272.325 174.786 272.253 174.912 272.146 175.004C272.039 175.095 271.903 175.145 271.764 175.146L235.508 175.155C235.079 175.155 234.903 174.944 234.979 174.521C236.453 166.479 237.86 158.402 239.199 150.29C239.699 147.243 237.988 145.292 235.114 145.32C223.259 145.449 211.229 145.439 199.022 145.292C194.956 145.244 192.101 147.397 191.371 151.51C185.681 183.518 180.058 215.435 174.502 247.263C173.839 251.041 175.377 252.675 179.116 252.684C191.861 252.729 203.607 252.729 214.353 252.684C218.825 252.665 221.43 250.723 222.167 246.859C223.641 239.099 225.038 231.266 226.358 223.359C226.376 223.244 226.434 223.139 226.522 223.064C226.61 222.988 226.722 222.946 226.838 222.945H263.132C263.639 222.945 263.847 223.195 263.757 223.695C262.251 231.974 260.854 240.041 259.566 247.897C258.259 255.869 256.622 261.876 254.655 265.92C248.868 277.79 238.497 286.633 225.454 289.161C221.936 289.847 217.259 290.154 211.421 290.084C197.939 289.923 184.643 289.914 171.532 290.055C163.785 290.144 158.271 289.686 154.99 288.68C142.296 284.81 135.738 275.618 135.315 261.104C135.161 255.645 136.747 248.82 137.795 242.851C144.1 206.98 149.989 173.589 155.461 142.677C155.73 141.159 156.326 139.669 156.538 138.112C156.548 138.039 156.541 137.966 156.517 137.897C156.493 137.828 156.454 137.765 156.401 137.715C156.349 137.664 156.285 137.626 156.215 137.605C156.145 137.584 156.071 137.58 155.999 137.593C154.192 137.91 152.491 137.794 150.886 138.89C149.726 139.672 148.432 139.864 147.003 139.467C143.389 138.467 138.621 138.727 134.978 139.054C127.27 139.726 119.061 140.556 110.353 141.543C103.977 142.261 97.5854 142.613 91.1775 142.6C90.8571 142.594 90.6809 142.751 90.6488 143.071C89.5275 153.087 87.4834 164.073 84.5165 176.03C84.2282 177.177 84.0135 178.334 83.8725 179.5C83.8632 179.588 83.8745 179.677 83.9057 179.76C83.9368 179.842 83.9869 179.916 84.0517 179.976C84.1165 180.035 84.1942 180.078 84.2784 180.1C84.3626 180.123 84.4508 180.125 84.5357 180.106C86.1826 179.76 87.7717 179.433 89.3032 179.125C90.2259 178.943 90.793 178.568 91.3505 177.837C91.5748 177.542 91.8695 177.385 92.2348 177.366C94.1475 177.28 97.4444 177.135 98.7612 175.425C98.9791 175.143 99.261 174.947 99.607 174.838C99.8762 174.755 100.11 174.803 100.309 174.982C100.693 175.328 100.661 175.626 100.213 175.876C99.9114 176.037 99.5878 176.133 99.2418 176.165C98.7612 176.21 98.7452 176.315 99.1937 176.482C99.7192 176.668 100.229 176.639 100.722 176.395C101.805 175.864 102.936 175.498 104.115 175.3C104.493 175.236 104.823 175.332 105.105 175.588C105.823 176.248 106.284 176.975 106.489 177.77C106.566 178.052 106.749 178.212 107.037 178.25C109.949 178.625 111.91 176.924 114.938 177.904C116.931 178.552 118.968 179.035 121.051 179.356C121.608 179.439 122.172 179.625 122.743 179.913C124.421 180.778 124.335 181.397 122.483 181.768C121.977 181.871 121.56 182.098 121.234 182.451C120.599 183.136 120.74 183.406 121.656 183.258C123.784 182.925 125.985 182.912 128.26 183.22C128.631 183.271 128.731 183.466 128.558 183.806C128.391 184.139 128.103 184.319 127.693 184.344C126.674 184.402 125.665 184.437 124.665 184.45C124.223 184.456 123.858 184.626 123.569 184.959C122.64 186.036 121.31 186.347 119.58 185.892C119.164 185.783 118.751 185.78 118.34 185.882C117.982 185.972 117.696 186.171 117.485 186.478C117.28 186.767 117.354 186.885 117.706 186.834C119.398 186.584 120.724 187.119 121.685 188.439C121.878 188.702 121.948 188.993 121.897 189.314C121.756 190.236 121.294 190.771 120.513 190.919C120.309 190.956 120.098 190.939 119.902 190.868C119.706 190.797 119.532 190.675 119.398 190.515C119.27 190.355 119.113 190.24 118.927 190.169C118.6 190.041 118.315 190.105 118.071 190.361C117.04 191.463 115.681 192.271 113.996 192.783C113.957 192.796 113.945 192.822 113.957 192.86L114.025 193.101C114.089 193.344 114.243 193.427 114.486 193.351ZM155.142 115.498C155.211 115.511 155.285 115.5 155.358 115.466C155.431 115.431 155.502 115.374 155.567 115.298C155.633 115.221 155.691 115.126 155.739 115.019C155.786 114.912 155.823 114.794 155.846 114.672C155.869 114.551 155.878 114.428 155.873 114.311C155.867 114.193 155.848 114.084 155.815 113.989C155.782 113.893 155.736 113.814 155.681 113.755C155.626 113.697 155.561 113.66 155.492 113.647C155.422 113.634 155.349 113.645 155.276 113.679C155.203 113.713 155.132 113.77 155.067 113.847C155.001 113.924 154.943 114.019 154.895 114.126C154.847 114.233 154.811 114.351 154.788 114.472C154.765 114.594 154.756 114.717 154.761 114.834C154.767 114.952 154.786 115.061 154.819 115.156C154.852 115.251 154.898 115.331 154.953 115.389C155.008 115.448 155.073 115.485 155.142 115.498ZM164.928 121.019C164.925 120.922 164.752 120.835 164.447 120.776C164.142 120.717 163.731 120.691 163.303 120.705C163.091 120.712 162.881 120.728 162.686 120.752C162.49 120.777 162.313 120.809 162.165 120.848C162.016 120.886 161.898 120.93 161.818 120.977C161.739 121.024 161.698 121.073 161.7 121.121C161.703 121.218 161.876 121.305 162.181 121.364C162.486 121.423 162.897 121.448 163.325 121.435C163.537 121.428 163.747 121.412 163.942 121.388C164.137 121.363 164.315 121.331 164.463 121.292C164.612 121.254 164.73 121.21 164.81 121.163C164.889 121.116 164.929 121.067 164.928 121.019ZM175.569 147.224C177.434 136.747 185.19 128.942 196.09 129C208.521 129.064 222.106 129.038 236.844 128.923C242.874 128.872 246.985 129.346 249.176 130.345C254.552 132.8 257.01 137.497 256.548 144.436C256.305 148.05 255.561 152.6 254.318 158.085C254.158 158.796 254.44 159.168 255.164 159.2L257.586 159.315C258.189 159.341 258.551 159.059 258.672 158.469C261.287 146.32 264.565 131.845 251.56 126.039C248.862 124.835 244.463 124.274 238.363 124.357C226.188 124.511 213.734 124.517 201.002 124.376C195.946 124.319 191.845 124.79 188.699 125.789C178.722 128.961 172.839 137.833 171.09 147.781C165.278 180.891 159.261 214.993 153.039 250.089C150.626 263.68 156.47 273.724 171.436 273.657C183.528 273.606 196.375 273.628 209.979 273.724C216.675 273.776 221.6 273.292 224.752 272.273C239.334 267.573 242.573 254.309 244.207 239.862C244.252 239.478 244.082 239.292 243.697 239.305L240.718 239.353C240.263 239.365 240 239.596 239.929 240.045C238.962 246.164 238.267 250.089 237.844 251.819C235.024 263.366 227.617 269.136 215.621 269.13C200.973 269.124 186.366 269.111 171.801 269.091C165.217 269.082 159.085 266.189 157.508 259.316C156.868 256.516 156.775 253.806 157.23 251.185C163.131 217.473 169.244 182.819 175.569 147.224ZM161.187 127.373C161.179 127.241 160.993 127.125 160.669 127.049C160.345 126.974 159.91 126.946 159.46 126.972C159.009 126.998 158.58 127.076 158.267 127.188C157.954 127.3 157.782 127.437 157.79 127.569C157.798 127.702 157.984 127.818 158.308 127.893C158.632 127.969 159.067 127.996 159.517 127.97C159.968 127.944 160.397 127.867 160.71 127.755C161.023 127.643 161.195 127.506 161.187 127.373ZM156.874 132.056C156.381 132.12 155.971 132.332 155.644 132.691C155.394 132.966 155.083 133.117 154.711 133.142C152.174 133.335 147.349 132.844 145.128 134.123C144.629 134.411 144.664 134.555 145.234 134.555C148.656 134.562 152.142 134.728 155.692 135.055C158.479 135.315 158.893 132.258 159.69 130.326C159.717 130.259 159.727 130.187 159.72 130.116C159.714 130.044 159.69 129.975 159.651 129.916C159.612 129.856 159.559 129.807 159.498 129.773C159.436 129.739 159.367 129.721 159.296 129.721C157.649 129.727 156.89 130.448 157.018 131.883C157.025 131.986 156.977 132.043 156.874 132.056ZM45.7234 288.834C45.4606 289.353 45.2139 289.856 44.9832 290.343C44.65 291.042 44.8359 291.234 45.5407 290.92C46.4507 290.51 46.6685 289.629 46.1943 288.277C46.0405 287.841 45.8932 287.841 45.7522 288.277C45.6945 288.462 45.6849 288.648 45.7234 288.834Z" fill="white"/>
<path d="M36.8901 115.303C36.9799 115.969 36.9414 116.642 36.7748 117.322C36.6787 117.7 36.5153 117.732 36.2846 117.418C35.9578 116.975 35.7656 116.472 35.7079 115.909C35.663 115.46 35.8425 115.143 36.2462 114.957C36.3104 114.926 36.381 114.911 36.4523 114.912C36.5236 114.914 36.5935 114.932 36.6563 114.966C36.7191 115 36.7731 115.048 36.8137 115.106C36.8544 115.165 36.8805 115.232 36.8901 115.303Z" fill="white"/>
<path d="M165.438 116.816C165.992 116.938 166.507 116.742 166.587 116.379C166.666 116.016 166.281 115.623 165.727 115.501C165.172 115.379 164.657 115.575 164.578 115.938C164.498 116.301 164.883 116.694 165.438 116.816Z" fill="white"/>
<path d="M88.6979 170.625C88.3965 171.852 88.2985 172.883 88.4789 172.927C88.6594 172.971 89.0499 172.012 89.3513 170.786C89.6527 169.559 89.7507 168.528 89.5703 168.484C89.3898 168.439 88.9993 169.398 88.6979 170.625Z" fill="white"/>
<path d="M89.2649 176.165C89.0085 175.71 88.9957 175.297 89.2264 174.925C89.2724 174.847 89.3409 174.784 89.4231 174.747C89.5053 174.709 89.5974 174.697 89.6875 174.712C89.7775 174.728 89.8615 174.77 89.9284 174.834C89.9953 174.897 90.042 174.979 90.0626 175.069C90.1587 175.46 90.0883 175.832 89.8512 176.184C89.8207 176.234 89.7776 176.275 89.7261 176.302C89.6746 176.33 89.6164 176.343 89.5572 176.341C89.4981 176.34 89.44 176.322 89.3888 176.291C89.3375 176.26 89.2948 176.217 89.2649 176.165Z" fill="white"/>
<path d="M125.52 190.938C125.45 191.617 125.226 191.672 124.848 191.102C124.521 190.595 124.274 190.041 124.107 189.439C124.005 189.093 124.133 188.897 124.492 188.852C124.639 188.84 124.783 188.852 124.924 188.891C125.053 188.923 125.149 188.997 125.213 189.112C125.495 189.669 125.597 190.278 125.52 190.938Z" fill="white"/>
<path d="M130.379 200.798C130.673 200.514 130.75 200.117 130.551 199.911C130.352 199.705 129.952 199.768 129.658 200.052C129.364 200.335 129.287 200.733 129.486 200.939C129.685 201.145 130.085 201.082 130.379 200.798Z" fill="white"/>
</g>
<defs>
<clipPath id="clip0_4722_6985">
<rect width="316.228" height="316.228" fill="white"/>
</clipPath>
</defs>
</svg>
