<svg width="66" height="23" viewBox="0 0 66 23" fill="none" xmlns="http://www.w3.org/2000/svg">
<path fill-rule="evenodd" clip-rule="evenodd" d="M57.1525 1.79366L55.8834 7.0053L54.2846 7.02214L55.5043 1.81054L53.6748 1.84425L54.0539 0.410645L60.9928 0.427477L61.3883 4.91389L63.7288 0.427477H65.4429L61.6685 7.0053L60.2181 7.02214L59.3116 0.613005L59.4952 1.77678L57.1525 1.79366Z" fill="white"/>
<path fill-rule="evenodd" clip-rule="evenodd" d="M0.656283 9.73845L1.44743 5.79182L3.65599 5.84241C4.3262 1.54716 7.10614 -0.100146 11.8475 0.546315L11.1223 4.47618L9.34226 4.44236C8.46127 4.47682 7.99016 4.96967 7.85887 5.84232L10.1663 5.82678L9.44112 9.72282L7.08422 9.75664L4.69434 22.2039L0.557373 22.2194L2.91428 9.7215L0.656283 9.73845ZM11.5212 5.65644H15.8725L14.2078 14.4268C13.8781 16.2821 13.532 18.3398 15.6912 18.7278C16.2904 18.8159 16.9063 18.7285 17.4893 18.4492C19.2467 17.6065 19.6746 15.8235 20.0299 14.0339L21.6906 5.6734L25.8605 5.65786L22.663 22.1025L18.8392 22.153L19.0041 21.3435C16.4609 23.0594 13.3682 22.8297 11.523 21.5828C9.73079 20.2898 9.32226 18.0252 9.77162 15.1581L11.5212 5.65644ZM24.0774 22.1537L28.165 22.1383L28.4122 20.8059C30.9229 23.5832 36.6641 22.6668 38.6639 20.8397C37.5622 19.6843 37.0952 18.3126 36.9169 16.8424C35.4939 18.7427 32.7029 18.9732 31.2635 17.8375C29.9121 16.8543 29.5617 14.895 29.9133 13.197C30.231 11.6633 31.2151 10.3054 32.6527 9.71505C34.3539 9.01656 36.3936 9.46333 37.3948 10.8211C39.0803 13.6268 37.7252 15.9612 38.904 18.4742C39.6056 19.97 40.99 21.2401 42.4623 21.8892C44.2343 22.6704 46.3991 22.8206 48.4027 22.2245C50.7557 21.5244 52.6899 19.7917 53.7569 17.5441C55.0261 14.871 55.1154 11.5712 53.7834 9.09054C51.5785 4.98428 45.5828 3.98129 41.878 6.89127C42.8106 8.0733 43.2308 9.4255 43.5262 10.8549C45.0645 8.77472 48.0367 9.0221 49.4267 10.2814C50.6193 11.3563 50.9517 13.8688 50.0572 15.8464C49.3635 17.3797 48.0984 18.2094 46.4992 18.4626C43.6836 18.9084 42.1794 16.5892 42.0428 14.1775C42.011 11.7705 41.8216 10.037 40.9531 8.6356C40.3559 7.67168 39.3895 6.79317 38.4001 6.2729C36.2579 5.14635 33.2456 5.0644 31.1648 6.38536L32.2691 0.583358L28.1651 0.567821L24.0774 22.1537Z" fill="white"/>
</svg>
