<svg width="58" height="19" viewBox="0 0 58 19" fill="none" xmlns="http://www.w3.org/2000/svg">
<path d="M35.5036 18.5H40.1093V0.5H35.5036V18.5ZM27.403 13.3727C27.403 14.0055 26.8476 14.5291 26.1764 14.5291H23.4916C22.8204 14.5291 22.265 14.0055 22.265 13.3727C22.265 13.1327 22.265 6.10727 22.265 6.10727H17.6361V13.7218C17.6361 16.8418 19.7422 18.4782 22.8667 18.4782H27.3799C30.2498 18.4782 31.9856 16.5145 31.9856 13.7218V6.10727H27.3799C27.403 6.10727 27.403 13.1327 27.403 13.3727ZM53.3711 6.10727C53.3711 6.10727 53.3711 13.1327 53.3711 13.3727C53.3711 14.0055 52.8156 14.5291 52.1445 14.5291H49.4597C48.7885 14.5291 48.233 14.0055 48.233 13.3727C48.233 13.1327 48.233 6.10727 48.233 6.10727H43.6273V13.7218C43.6273 16.8418 45.7334 18.4782 48.8811 18.4782H53.3942C56.2642 18.4782 58 16.5145 58 13.7218V6.10727H53.3711ZM9.11891 6.10727C9.11891 6.10727 6.71189 6.10727 6.15642 6.10727C5.11492 6.10727 4.60575 6.36909 4.60575 6.36909V0.5H0V18.5H4.60575V11.2345C4.60575 10.6018 5.16121 10.0782 5.8324 10.0782H8.51716C9.18835 10.0782 9.74381 10.6018 9.74381 11.2345V18.5H14.3496V10.6673C14.3496 7.37273 12.0351 6.10727 9.11891 6.10727Z" fill="white"/>
</svg>
