<svg width="112" height="35" viewBox="0 0 112 35" fill="none" xmlns="http://www.w3.org/2000/svg">
<path d="M108 0H76C73.7909 0 72 1.79086 72 4V31C72 33.2091 73.7909 35 76 35H108C110.209 35 112 33.2091 112 31V4C112 1.79086 110.209 0 108 0Z" fill="white"/>
<path d="M89.86 21.22C89.86 22.94 89.3667 24.2067 88.38 25.02C87.4067 25.8333 86 26.24 84.16 26.24C82.32 26.24 80.9067 25.8333 79.92 25.02C78.9467 24.2067 78.46 22.94 78.46 21.22V21.04H82.6V21.2C82.6 21.8267 82.7133 22.2733 82.94 22.54C83.18 22.8067 83.54 22.94 84.02 22.94C84.5 22.94 84.8533 22.8067 85.08 22.54C85.32 22.2733 85.44 21.8267 85.44 21.2V12.24H89.86V21.22ZM100.54 12.24C101.393 12.24 102.153 12.44 102.82 12.84C103.487 13.2267 104.007 13.7667 104.38 14.46C104.753 15.14 104.94 15.9067 104.94 16.76V17.02C104.94 17.8733 104.753 18.6467 104.38 19.34C104.007 20.0333 103.487 20.58 102.82 20.98C102.153 21.3667 101.393 21.56 100.54 21.56H97.2398V26H92.8198V12.24H100.54ZM97.2398 18.34H99.0598C99.5265 18.34 99.8732 18.22 100.1 17.98C100.34 17.74 100.46 17.4133 100.46 17V16.84C100.46 16.4133 100.34 16.0867 100.1 15.86C99.8732 15.62 99.5265 15.5 99.0598 15.5H97.2398V18.34Z" fill="black"/>
<path d="M35.5036 26H40.1093V8H35.5036V26ZM27.403 20.8727C27.403 21.5055 26.8476 22.0291 26.1764 22.0291H23.4916C22.8204 22.0291 22.265 21.5055 22.265 20.8727C22.265 20.6327 22.265 13.6073 22.265 13.6073H17.6361V21.2218C17.6361 24.3418 19.7422 25.9782 22.8667 25.9782H27.3799C30.2498 25.9782 31.9856 24.0145 31.9856 21.2218V13.6073H27.3799C27.403 13.6073 27.403 20.6327 27.403 20.8727ZM53.3711 13.6073C53.3711 13.6073 53.3711 20.6327 53.3711 20.8727C53.3711 21.5055 52.8156 22.0291 52.1445 22.0291H49.4597C48.7885 22.0291 48.233 21.5055 48.233 20.8727C48.233 20.6327 48.233 13.6073 48.233 13.6073H43.6273V21.2218C43.6273 24.3418 45.7334 25.9782 48.8811 25.9782H53.3942C56.2642 25.9782 58 24.0145 58 21.2218V13.6073H53.3711ZM9.11891 13.6073C9.11891 13.6073 6.71189 13.6073 6.15642 13.6073C5.11492 13.6073 4.60575 13.8691 4.60575 13.8691V8H0V26H4.60575V18.7345C4.60575 18.1018 5.16121 17.5782 5.8324 17.5782H8.51716C9.18835 17.5782 9.74381 18.1018 9.74381 18.7345V26H14.3496V18.1673C14.3496 14.8727 12.0351 13.6073 9.11891 13.6073Z" fill="white"/>
</svg>
