<svg width="3000" height="777" viewBox="0 0 3000 777" fill="none" xmlns="http://www.w3.org/2000/svg">
<g clip-path="url(#clip0_4654_7002)">
<mask id="mask0_4654_7002" style="mask-type:luminance" maskUnits="userSpaceOnUse" x="0" y="0" width="777" height="777">
<path d="M776.978 388.489C776.978 173.933 603.046 0 388.489 0C173.933 0 0 173.933 0 388.489C0 603.046 173.933 776.978 388.489 776.978C603.046 776.978 776.978 603.046 776.978 388.489Z" fill="white"/>
</mask>
<g mask="url(#mask0_4654_7002)">
<path d="M0 388.489C0 603.045 173.933 776.978 388.489 776.978C603.045 776.978 776.978 603.045 776.978 388.489C776.978 173.933 603.045 0 388.489 0C173.933 0 0 173.933 0 388.489Z" fill="#FAFAFA"/>
<path d="M565.01 176.03C564.453 172.888 563.283 169.887 561.565 167.198C559.85 164.51 557.618 162.186 555.002 160.359C552.388 158.533 549.438 157.239 546.322 156.554C543.205 155.868 539.985 155.803 536.845 156.362L515.236 160.247L468.132 242.801L573.509 224.104L565.01 176.03ZM453.078 171.173L353.283 188.898L306.179 270.967L405.973 253.485L453.078 171.173ZM291.369 199.824L202.501 215.364C196.26 216.438 190.685 219.906 186.965 225.032C183.246 230.158 181.676 236.534 182.591 242.801L190.846 291.363L244.021 281.892L291.369 199.824ZM194.246 315.643V534.168C194.246 547.047 199.362 559.398 208.469 568.506C217.576 577.612 229.927 582.729 242.808 582.729H534.175C547.053 582.729 559.405 577.612 568.511 568.506C577.619 559.398 582.736 547.047 582.736 534.168V315.643H194.246ZM443.366 468.611L378.779 517.172C375.171 519.876 370.882 521.525 366.391 521.929C361.899 522.334 357.384 521.48 353.35 519.464C349.319 517.448 345.926 514.349 343.556 510.511C341.184 506.676 339.93 502.256 339.93 497.747V400.625C339.93 396.116 341.184 391.696 343.556 387.859C345.926 384.024 349.319 380.924 353.35 378.909C357.384 376.891 361.899 376.038 366.391 376.442C370.882 376.847 375.171 378.494 378.779 381.201L443.366 429.762C446.381 432.024 448.828 434.957 450.514 438.328C452.199 441.699 453.078 445.416 453.078 449.186C453.078 452.955 452.199 456.673 450.514 460.045C448.828 463.416 446.381 466.349 443.366 468.611Z" fill="black"/>
</g>
<mask id="mask1_4654_7002" style="mask-type:luminance" maskUnits="userSpaceOnUse" x="874" y="97" width="2110" height="583">
<path d="M2983.6 97.1223H874.101V679.856H2983.6V97.1223Z" fill="white"/>
</mask>
<g mask="url(#mask1_4654_7002)">
<path d="M1398.12 308.65C1380.35 298.453 1359.52 293.353 1335.63 293.353C1311.73 293.353 1291.34 298.306 1273.56 308.212C1255.79 318.119 1242.24 332.178 1232.92 350.387C1223.59 368.599 1218.93 389.504 1218.93 413.104C1218.93 436.705 1223.59 457.975 1232.92 476.04C1242.24 494.104 1255.79 508.163 1273.56 518.214C1291.34 528.268 1312.17 533.294 1336.06 533.294C1359.95 533.294 1380.64 528.268 1398.12 518.214C1415.61 508.163 1429.08 494.178 1438.55 476.258C1448.02 458.34 1452.76 437.288 1452.76 413.104C1452.76 388.921 1448.09 368.743 1438.77 350.825C1429.45 332.905 1415.9 318.848 1398.12 308.65ZM1378.67 450.473C1375.03 460.524 1369.57 468.32 1362.28 473.855C1355 479.391 1346.26 482.158 1336.06 482.158C1325.86 482.158 1317.12 479.391 1309.84 473.855C1302.55 468.32 1297.02 460.453 1293.23 450.255C1289.44 440.057 1287.55 427.82 1287.55 413.543C1287.55 399.266 1289.44 386.081 1293.23 375.736C1297.02 365.394 1302.55 357.527 1309.84 352.135C1317.12 346.746 1325.72 344.05 1335.63 344.05C1346.7 344.05 1355.8 346.964 1362.94 352.791C1370.08 358.619 1375.4 366.704 1378.89 377.048C1382.39 387.391 1384.14 399.557 1384.14 413.543C1384.14 427.528 1382.32 440.42 1378.67 450.473ZM1678.27 449.161C1672.74 456.883 1665.74 462.71 1657.29 466.643C1648.85 470.577 1638.94 472.543 1627.58 472.543C1610.97 472.543 1597.13 468.391 1586.05 460.088C1574.98 451.783 1566.75 440.348 1561.36 425.78C1555.97 411.212 1553.28 394.604 1553.28 375.956C1553.28 357.309 1555.97 339.535 1561.36 325.258C1566.75 310.981 1574.98 299.836 1586.05 291.822C1597.13 283.811 1610.97 279.805 1627.58 279.805C1637.77 279.805 1646.95 281.407 1655.11 284.612C1663.27 287.817 1670.19 292.552 1675.87 298.815C1681.55 305.081 1685.27 312.291 1687.01 320.45H1760.44C1757.53 298.597 1750.09 279.95 1738.15 264.507C1726.2 249.065 1710.91 237.484 1692.26 229.761C1673.61 222.041 1652.19 218.18 1628.01 218.18C1597.13 218.18 1570.25 224.955 1547.38 238.502C1524.5 252.052 1507.02 270.773 1494.93 294.665C1482.84 318.557 1476.79 345.654 1476.79 375.956C1476.79 406.258 1482.77 433.791 1494.71 457.684C1506.66 481.576 1523.92 500.296 1546.5 513.844C1569.08 527.394 1596.11 534.168 1627.58 534.168C1652.63 534.168 1675.14 529.507 1695.1 520.183C1715.06 510.859 1731.01 497.601 1742.96 480.41C1754.9 463.22 1761.6 443.553 1763.06 421.409H1688.32C1687.16 432.19 1683.81 441.44 1678.27 449.161ZM1008.3 427.528C1008.3 438.309 1007.35 447.05 1005.46 453.751C1003.56 460.453 1000.29 465.55 995.624 469.047C990.963 472.543 984.408 474.291 975.958 474.291C964.012 474.291 955.342 470.795 949.953 463.802C944.562 456.809 941.868 445.593 941.868 430.15H874.101V436.705C874.101 457.101 877.962 474.583 885.682 489.151C893.404 503.72 904.912 514.865 920.21 522.585C935.506 530.307 954.371 534.168 976.806 534.168C1001.28 534.168 1021.39 530.161 1037.12 522.149C1052.85 514.135 1064.51 502.189 1072.08 486.311C1079.66 470.43 1083.45 450.838 1083.45 427.528V225.173H1008.27V427.528H1008.3ZM1121.93 527.176H1190.11V299.035H1121.93V527.176ZM1176.76 203.32C1170.79 200.115 1164.01 198.513 1156.44 198.513C1148.28 198.513 1141.21 200.115 1135.24 203.32C1129.26 206.525 1124.6 210.75 1121.25 215.996C1117.9 221.24 1116.23 227.504 1116.23 234.788C1116.23 242.072 1117.9 248.409 1121.25 253.8C1124.6 259.189 1129.19 263.56 1135.02 266.912C1140.85 270.261 1147.84 271.938 1156 271.938C1164.16 271.938 1170.86 270.335 1176.98 267.13C1183.09 263.925 1187.68 259.554 1190.74 254.018C1193.8 248.482 1195.33 242.219 1195.33 235.226C1195.33 228.233 1193.73 221.603 1190.53 216.214C1187.32 210.823 1182.73 206.525 1176.76 203.32ZM1789.72 527.176H1857.9V299.035H1789.72V527.176ZM2315.94 308.868C2298.88 298.524 2277.97 293.353 2253.22 293.353C2230.19 293.353 2209.94 298.524 2192.46 308.868C2174.98 319.211 2161.42 333.561 2151.82 351.917C2142.2 370.273 2137.39 390.816 2137.39 413.543C2137.39 438.309 2142.27 459.65 2152.04 477.57C2161.79 495.488 2175.41 509.255 2192.89 518.871C2210.37 528.486 2230.92 533.294 2254.53 533.294C2282.78 533.294 2306.24 527.247 2324.89 515.156C2343.54 503.063 2356.36 485.802 2363.35 463.366H2301.28C2298.37 470.359 2293.21 475.895 2285.76 479.974C2278.34 484.053 2269.1 486.093 2258.03 486.093C2246.37 486.093 2236.6 483.762 2228.74 479.1C2220.86 474.438 2214.91 467.955 2210.83 459.65C2206.83 451.541 2204.53 441.561 2203.88 429.712H2367.71V421.409C2367.71 395.478 2363.35 372.822 2354.61 353.448C2345.87 334.071 2332.96 319.211 2315.94 308.868ZM2203.83 389.504V389.068C2205 378.87 2207.76 370.129 2212.12 362.845C2216.5 355.561 2222.24 350.025 2229.39 346.237C2236.53 342.449 2244.76 340.554 2254.08 340.554C2263.4 340.554 2271.56 342.52 2278.55 346.455C2285.55 350.387 2291.01 356.07 2294.96 363.499C2298.88 370.93 2301.15 379.597 2301.73 389.504H2203.83ZM2972.98 332.687C2965.99 319.284 2955 309.304 2939.98 302.75C2924.98 296.193 2905.83 292.917 2882.53 292.917C2859.22 292.917 2841.5 295.466 2826.8 300.563C2812.08 305.663 2800.71 313.239 2792.7 323.29C2784.69 333.343 2779.51 345.507 2777.18 359.784H2842.32C2844.06 352.209 2847.91 346.381 2853.88 342.302C2859.86 338.223 2868.54 336.184 2879.89 336.184C2889.22 336.184 2896.64 337.714 2902.19 340.772C2907.71 343.832 2911.66 348.421 2913.99 354.54C2916.32 360.658 2917.49 368.381 2917.49 377.704V388.194H2880.78C2856.58 388.194 2836.12 390.887 2819.35 396.279C2802.6 401.668 2789.87 409.681 2781.13 420.315C2772.39 430.951 2768.01 444.719 2768.01 461.618C2768.01 476.478 2771.22 489.298 2777.63 500.079C2784.04 510.859 2793.13 519.089 2804.94 524.771C2816.74 530.452 2830.66 533.294 2846.68 533.294C2858.63 533.294 2869.34 531.764 2878.79 528.704C2888.27 525.645 2895.99 521.64 2901.97 516.686C2907.93 511.733 2913.11 505.906 2917.49 499.204H2919.67L2922.73 527.176H2983.47V383.385C2983.47 362.989 2979.97 346.09 2972.98 332.687ZM2917.49 440.202C2917.49 450.108 2915.44 458.704 2911.36 465.989C2907.28 473.273 2901.97 478.735 2895.41 482.376C2888.85 486.02 2881.06 487.841 2872.04 487.841C2865.04 487.841 2859.06 486.676 2854.1 484.345C2849.16 482.014 2845.14 478.589 2842.08 474.073C2839.04 469.556 2837.5 463.802 2837.5 456.809C2837.5 448.651 2839.68 442.168 2844.06 437.361C2848.42 432.553 2854.68 429.056 2862.84 426.872C2871 424.686 2880.78 423.594 2892.13 423.594H2917.49V440.202ZM1844.55 203.32C1838.57 200.115 1831.8 198.513 1824.22 198.513C1816.07 198.513 1809 200.115 1803.03 203.32C1797.05 206.525 1792.39 210.75 1789.04 215.996C1785.69 221.24 1784.02 227.504 1784.02 234.788C1784.02 242.072 1785.69 248.409 1789.04 253.8C1792.39 259.189 1796.98 263.56 1802.81 266.912C1808.64 270.261 1815.63 271.938 1823.79 271.938C1831.94 271.938 1838.65 270.335 1844.76 267.13C1850.88 263.925 1855.47 259.554 1858.53 254.018C1861.59 248.482 1863.12 242.219 1863.12 235.226C1863.12 228.233 1861.52 221.603 1858.31 216.214C1855.11 210.823 1850.52 206.525 1844.55 203.32ZM2707.45 302.968C2695.94 296.558 2682.02 293.353 2665.71 293.353C2649.39 293.353 2636.22 296.413 2624.42 302.532C2612.61 308.65 2602.49 318.119 2594.03 330.939H2592.28C2587.34 318.702 2579.4 309.378 2568.47 302.968C2557.55 296.558 2544.37 293.353 2528.91 293.353C2513.48 293.353 2500.58 296.484 2489.37 302.75C2478.15 309.013 2468.74 318.266 2461.17 330.503H2458.99L2457.67 299.035H2393.87V527.176H2462.05V396.061C2462.05 379.161 2465.18 366.632 2471.44 358.474C2477.72 350.316 2486.96 346.237 2499.19 346.237C2511.43 346.237 2520.32 350.387 2525.85 358.692C2531.4 366.995 2534.16 379.453 2534.16 396.061V527.176H2602.77V396.061C2602.77 384.989 2604.17 375.665 2606.94 368.089C2609.7 360.514 2613.84 354.978 2619.39 351.481C2624.91 347.985 2631.63 346.237 2639.48 346.237C2651.44 346.237 2660.18 350.316 2665.71 358.474C2671.25 366.632 2674.01 379.161 2674.01 396.061V527.176H2742.63V374.644C2742.63 357.453 2739.65 342.812 2733.67 330.721C2727.71 318.628 2718.97 309.378 2707.45 302.968ZM2077.71 303.186C2066.06 296.631 2051.78 293.353 2034.88 293.353C2019.15 293.353 2005.38 296.484 1993.58 302.75C1981.78 309.013 1972.38 318.119 1965.39 330.065H1963.2L1961.89 299.035H1897.21V527.176H1965.39V397.809C1965.39 380.035 1968.81 366.995 1975.66 358.692C1982.51 350.387 1992.78 346.237 2006.47 346.237C2020.17 346.237 2029.34 350.461 2035.75 358.91C2042.16 367.36 2045.37 380.18 2045.37 397.371V527.176H2113.55V379.015C2113.55 360.367 2110.49 344.707 2104.37 332.031C2098.25 319.358 2089.37 309.743 2077.71 303.186Z" fill="#FAFAFA"/>
</g>
</g>
<defs>
<clipPath id="clip0_4654_7002">
<rect width="3000" height="776.978" fill="white"/>
</clipPath>
</defs>
</svg>
