<svg width="106" height="27" viewBox="0 0 106 27" fill="none" xmlns="http://www.w3.org/2000/svg">
<g clip-path="url(#clip0_4363_30532)">
<path d="M18.2809 16.6391L14.2645 27H13.6227L13.7055 17.5213C13.7055 17.5213 13.9332 16.9673 13.3949 17.0904C12.8566 17.2135 5.17578 19.3062 5.17578 19.3062L11.3453 14.2591L0 8.7196L12.0078 10.8739C12.0078 10.8739 12.0906 10.9559 12.4012 10.8328L9.75117 5.99088L14.3887 8.53495C14.3887 8.53495 14.4922 8.69909 14.7406 8.69909C14.9891 8.69909 17.5355 0.943769 17.5355 0.943769L18.2188 8.63754C18.2188 8.63754 18.2188 9.41717 18.3844 9.51976C18.55 9.62234 32.2762 0 32.2762 0L32.6695 0.0205167L20.4754 12.9255L27.5559 18.2394C27.5559 18.2394 18.8398 16.4134 18.5914 16.557C18.343 16.7211 18.2809 16.6391 18.2809 16.6391Z" fill="white"/>
<path d="M36.479 5.43701H34.4501L34.4708 13.6437C34.4708 13.6437 34.7813 15.9211 32.6075 15.9211C30.4337 15.9211 30.8477 13.7463 30.8477 13.7463L29.0052 13.6847C29.0052 13.6847 28.7153 17.3983 32.5868 17.3983C36.4583 17.3983 36.479 14.013 36.479 14.013V5.43701Z" fill="white"/>
<path d="M38.2802 8.43262L38.2388 17.2138L40.0813 17.1933V8.43262H38.2802Z" fill="white"/>
<path d="M39.1911 5.10889C39.1911 5.10889 38.0938 4.98579 38.0317 6.21679C38.0317 6.21679 38.0731 7.24263 39.1911 7.26314C39.1911 7.26314 40.2056 7.42728 40.2884 6.05266C40.2884 6.05266 40.1021 5.1294 39.1911 5.10889Z" fill="white"/>
<path d="M45.3812 8.14551C44.3254 8.14551 41.4684 8.61739 41.4062 13.3568C41.4062 13.3568 41.9031 17.337 45.8574 17.4601C45.8574 17.4601 50.2465 17.1729 50.2051 12.7413C50.1844 8.33016 45.7539 8.18654 45.7539 8.18654C45.7539 8.18654 45.6297 8.14551 45.3812 8.14551ZM45.8781 9.60219C48.1141 9.62271 48.2383 12.4335 48.2383 12.4335C48.259 16.0034 45.816 15.9213 45.816 15.9213C43.2695 15.9624 43.3938 12.7207 43.3938 12.7207C43.2695 9.66374 45.8781 9.60219 45.8781 9.60219Z" fill="white"/>
<path d="M53.3935 11.9203L53.4142 17.1931L51.5095 17.2136L51.4888 5.41651H53.4142L53.3935 10.2174H59.1696L59.1075 5.396H61.1157L61.095 17.2341L59.0454 17.2136V11.8793L53.3935 11.9203Z" fill="white"/>
<path d="M66.9541 8.02246C66.9541 8.02246 62.358 8.20711 62.4408 12.8439C62.4408 12.8439 62.5857 17.3781 66.8506 17.3986C66.8506 17.3986 71.3017 17.4807 71.2396 12.2694C71.2189 12.2694 70.9084 8.12504 66.9541 8.02246ZM66.9748 9.58173C69.1693 9.6638 69.2935 12.6592 69.2935 12.6592C69.1486 16.024 66.8092 15.9214 66.8092 15.9214C64.5732 15.9419 64.3662 13.0901 64.3662 13.0901C64.2006 9.45863 66.9748 9.58173 66.9748 9.58173Z" fill="white"/>
<path d="M72.9372 9.82751L71.2603 9.80699V8.37082H72.9786L72.9165 5.62158H74.8419L74.904 8.37082L76.8915 8.43237L76.9122 9.80699L74.8419 9.82751L74.8212 14.4848C74.8833 15.0593 75.0489 15.5517 75.5458 15.7774L76.8294 15.7979L76.8501 17.193H75.1938C75.1938 17.193 73.2685 17.5213 72.9993 15.3055L72.9372 9.82751Z" fill="white"/>
<path d="M84.7587 10.6687L83.0817 10.6892C83.0817 10.6892 82.9989 9.47875 81.1978 9.47875C81.1978 9.47875 79.0032 9.62236 79.7899 11.079L81.6946 11.7971C81.6946 11.7971 85.3591 12.2895 85.0485 14.7721C85.0485 14.7721 85.0692 17.3572 81.5497 17.4392C78.0095 17.5213 77.6368 15.1003 77.6368 15.1003L77.5747 14.5259H79.3138C79.3138 14.5259 79.3966 16.0646 81.322 16.0031C81.322 16.0031 83.3302 16.0236 83.3095 14.7926C83.2888 13.5616 80.9907 13.3974 80.9907 13.3974L79.1895 12.905C79.1895 12.905 77.8645 12.3101 77.8024 10.6072C77.8024 10.6072 77.7403 8.12464 81.177 8.10413C84.5931 8.08361 84.7587 10.6687 84.7587 10.6687Z" fill="white"/>
<path d="M88.9821 9.8074L90.9696 9.78688V8.41226H89.0028L89.0235 5.80664H86.9325L86.9946 8.39175L85.3176 8.41226L85.3383 9.8074L87.0567 9.82792L86.9532 14.5262C86.9532 14.5262 86.8082 17.2139 89.1063 17.1729L90.9075 17.1524L90.9282 15.7983H89.8102C89.4168 15.6957 89.0649 15.4905 88.9614 14.834L88.9821 9.8074Z" fill="white"/>
<path d="M95.5658 8.02246C91.6943 8.02246 92.0049 10.6896 92.0049 10.6896L93.8061 10.7102C93.8061 10.7102 93.8061 9.43811 95.7728 9.47915C97.7396 9.49966 97.4498 11.7975 97.4498 11.7975L95.483 11.8181C95.483 11.8181 91.6943 11.7975 91.6115 14.4032C91.5287 17.0088 93.6197 17.4191 94.6549 17.3781C95.69 17.3165 97.015 16.8652 97.5119 15.9419L97.5947 17.214L99.3338 17.1524L99.3131 11.0795C99.3131 11.1 99.4166 8.02246 95.5658 8.02246ZM97.4498 13.0696L97.4705 14.0339C97.4705 14.0339 97.0564 16.024 94.9447 16.024C94.9447 16.024 92.4396 15.6957 93.9303 13.5209C93.9303 13.5209 95.0896 12.9465 96.3525 13.1106L97.4498 13.0696Z" fill="white"/>
<path d="M100.969 8.43281V17.255H102.957L102.936 11.736C102.936 11.736 103.205 9.84846 105.255 9.84846L105.979 10.0126L106 8.20713C106 8.20713 103.412 7.77627 102.874 9.82795L102.853 8.37126L100.969 8.43281Z" fill="white"/>
</g>
<defs>
<clipPath id="clip0_4363_30532">
<rect width="106" height="27" fill="white"/>
</clipPath>
</defs>
</svg>
