<svg width="65" height="19" viewBox="0 0 65 19" fill="none" xmlns="http://www.w3.org/2000/svg">
<path d="M10.2473 0.5C8.47386 0.5 6.67234 1.29791 4.36376 3.0922V0.955989H0V18.044H4.64534V7.42076C6.67226 5.79745 7.60063 5.28442 8.36113 5.28442C9.26138 5.28442 9.85296 5.85436 9.85296 7.27818V18.044H14.4972V7.39224C16.5241 5.79744 17.4255 5.28442 18.2131 5.28442C19.1144 5.28442 19.7048 5.85436 19.7048 7.27818V18.044H24.3491V5.62647C24.3491 1.7814 22.1813 0.5 20.0981 0.5C18.3247 0.5 16.523 1.2409 14.1581 3.06369C13.3997 1.1543 11.739 0.5 10.2473 0.5ZM33.7807 0.5C29.1646 0.5 25.336 4.51604 25.336 9.49994C25.336 14.4838 29.1646 18.5 33.7807 18.5C36.0611 18.5 38.0318 17.6462 39.5528 15.7939V18.044H43.9726V0.955989H39.5528V3.20613C38.0318 1.35375 36.0611 0.5 33.7807 0.5ZM44.7884 0.955989C46.7025 3.97441 48.8702 6.68046 51.404 9.38652C48.8702 12.2055 46.7025 15.1396 44.7884 18.044H50.39C51.7126 15.8794 53.2044 13.9141 54.9225 12.063C56.6113 13.9141 58.0183 15.8794 59.3421 18.044H65C63.0577 15.0541 60.9464 12.2055 58.4127 9.38652C60.9182 6.68046 63.0577 3.89002 65 0.955989H59.4548C58.0758 3.12061 56.5842 4.94324 54.9225 6.73741C53.2337 4.94324 51.7419 3.12061 50.39 0.955989H44.7884ZM34.4838 4.45914C37.2419 4.45914 39.466 6.70931 39.466 9.49994C39.466 12.2906 37.2419 14.5409 34.4838 14.5409C31.7256 14.5409 29.5015 12.2917 29.5015 9.49994C29.5015 6.70821 31.7256 4.45914 34.4838 4.45914ZM34.4838 5.59796C32.3724 5.59796 30.6552 7.33517 30.6552 9.49994C30.6552 11.6647 32.3724 13.402 34.4838 13.402C36.5952 13.402 38.3122 11.6647 38.3122 9.49994C38.3122 7.33517 36.5952 5.59796 34.4838 5.59796Z" fill="white"/>
</svg>
