<svg width="98" height="30" viewBox="0 0 98 30" fill="none" xmlns="http://www.w3.org/2000/svg">
<path d="M54.4185 21.26C53.9351 20.5225 53.2827 19.911 52.5156 19.4761C53.0962 19.0881 53.5845 18.5773 53.9461 17.98C54.304 17.3858 54.4833 16.6596 54.4841 15.8014C54.4933 15.097 54.35 14.399 54.0639 13.7552C53.7923 13.1515 53.3944 12.6132 52.8969 12.1765C52.3739 11.7259 51.7673 11.3826 51.1118 11.1661C50.3801 10.923 49.6131 10.8032 48.8421 10.8115H39.7902V29.1838H49.3667C50.1658 29.1939 50.9605 29.0648 51.7153 28.8025C52.386 28.571 53.0048 28.2104 53.5369 27.7411C54.0476 27.2815 54.451 26.7152 54.7185 26.0823C55.0056 25.4021 55.1487 24.6699 55.1387 23.9317C55.1395 22.8849 54.8994 21.9943 54.4185 21.26ZM43.2013 13.703H48.5798C49.3667 13.703 49.9792 13.8912 50.4172 14.2677C50.8551 14.6441 51.0737 15.1995 51.0729 15.9338C51.0729 16.6673 50.8543 17.2445 50.4172 17.6655C49.98 18.0865 49.3675 18.2961 48.5798 18.2945H43.2013V13.703ZM51.1118 25.6038C50.7013 26.0677 50.0322 26.2997 49.1044 26.2997H43.2013V21.1811H49.1044C50.0144 21.1811 50.6795 21.4389 51.0996 21.9546C51.5213 22.4779 51.7441 23.1335 51.7287 23.8054C51.7287 24.5405 51.5231 25.1375 51.1118 25.5966V25.6038Z" fill="white"/>
<path d="M33.0455 29.026C33.9398 28.6911 34.7566 28.178 35.4463 27.5177C36.1017 26.8797 36.6156 26.1109 36.9546 25.2614C37.3081 24.3814 37.4867 23.441 37.4804 22.4926V10.8164H34.0741V22.4926C34.0828 23.096 33.9786 23.6957 33.7669 24.2608C33.5817 24.7543 33.2917 25.2017 32.9168 25.5723C32.5384 25.9383 32.0869 26.2202 31.5919 26.3993C30.4785 26.783 29.2687 26.783 28.1552 26.3993C27.6598 26.2202 27.2079 25.9383 26.8291 25.5723C26.455 25.2011 26.1651 24.7538 25.9791 24.2608C25.7696 23.694 25.6675 23.0932 25.6779 22.489V10.8164H22.2619V22.4926C22.2558 23.4408 22.434 24.3812 22.7865 25.2614C23.1255 26.1109 23.6393 26.8797 24.2947 27.5177C24.9816 28.1758 25.794 28.6887 26.6834 29.026C28.7404 29.7611 30.9885 29.7611 33.0455 29.026Z" fill="white"/>
<path d="M10.1667 29.1838L14.3393 21.1811C14.5822 20.7269 14.8004 20.2983 14.9938 19.8951C15.1873 19.4919 15.3711 19.094 15.5452 18.7014C15.72 18.3079 15.8909 17.9055 16.0576 17.4943C16.2244 17.083 16.4037 16.6503 16.5956 16.1961H16.7C16.6644 16.6818 16.6296 17.1409 16.5956 17.5732C16.5592 18.0019 16.5337 18.4172 16.5167 18.8191C16.4997 19.2211 16.4863 19.6376 16.4766 20.0663C16.4669 20.495 16.4632 20.954 16.4632 21.4434V29.1838H19.8744V10.8164H16.071L12.5019 17.7954C12.2591 18.269 12.036 18.7066 11.8328 19.1082C11.6312 19.5101 11.4394 19.9048 11.256 20.2885C11.0726 20.6723 10.8917 21.067 10.718 21.4701C10.5444 21.8733 10.3537 22.3008 10.1667 22.7549C9.97402 22.3016 9.79025 21.8725 9.61538 21.4677C9.44051 21.0629 9.26118 20.669 9.07741 20.2861C8.89404 19.9024 8.70095 19.5077 8.50058 19.1057C8.30021 18.7038 8.07676 18.2666 7.83146 17.793L4.26241 10.8164H0.458984V29.1838H3.86895V21.4434C3.86895 20.9577 3.8649 20.4986 3.85681 20.0663C3.84871 19.634 3.83535 19.2183 3.81673 18.8191C3.79973 18.4143 3.77342 17.999 3.7378 17.5732C3.70218 17.1474 3.66736 16.6883 3.63336 16.1961H3.7378C3.91267 16.6503 4.08754 17.083 4.26241 17.4943C4.43728 17.9055 4.61255 18.3079 4.78823 18.7014C4.96189 19.0948 5.14647 19.4931 5.33834 19.8951C5.53022 20.297 5.75002 20.7269 5.99411 21.1811L10.1667 29.1838Z" fill="white"/>
<path d="M60.754 10.8164H57.3428V29.1838H60.754V10.8164Z" fill="white"/>
<path d="M93.5178 18.8252C95.7398 18.8252 97.541 17.0239 97.541 14.802C97.541 12.58 95.7398 10.7787 93.5178 10.7787C91.2958 10.7787 89.4946 12.58 89.4946 14.802C89.4946 17.0239 91.2958 18.8252 93.5178 18.8252Z" fill="white"/>
<path d="M72.7994 18.8252C75.0213 18.8252 76.8226 17.0239 76.8226 14.802C76.8226 12.58 75.0213 10.7787 72.7994 10.7787C70.5774 10.7787 68.7761 12.58 68.7761 14.802C68.7761 17.0239 70.5774 18.8252 72.7994 18.8252Z" fill="white"/>
<path d="M83.1591 18.8252C85.3811 18.8252 87.1824 17.0239 87.1824 14.802C87.1824 12.58 85.3811 10.7787 83.1591 10.7787C80.9372 10.7787 79.1359 12.58 79.1359 14.802C79.1359 17.0239 80.9372 18.8252 83.1591 18.8252Z" fill="white"/>
<path d="M72.7994 8.50545C75.0213 8.50545 76.8226 6.70418 76.8226 4.48222C76.8226 2.26025 75.0213 0.458984 72.7994 0.458984C70.5774 0.458984 68.7761 2.26025 68.7761 4.48222C68.7761 6.70418 70.5774 8.50545 72.7994 8.50545Z" fill="white"/>
<path d="M83.1591 8.50545C85.3811 8.50545 87.1824 6.70418 87.1824 4.48222C87.1824 2.26025 85.3811 0.458984 83.1591 0.458984C80.9372 0.458984 79.1359 2.26025 79.1359 4.48222C79.1359 6.70418 80.9372 8.50545 83.1591 8.50545Z" fill="white"/>
<path d="M72.7994 29.1462C75.0213 29.1462 76.8226 27.3449 76.8226 25.123C76.8226 22.901 75.0213 21.0997 72.7994 21.0997C70.5774 21.0997 68.7761 22.901 68.7761 25.123C68.7761 27.3449 70.5774 29.1462 72.7994 29.1462Z" fill="white"/>
<path d="M83.1591 29.1462C85.3811 29.1462 87.1824 27.3449 87.1824 25.123C87.1824 22.901 85.3811 21.0997 83.1591 21.0997C80.9372 21.0997 79.1359 22.901 79.1359 25.123C79.1359 27.3449 80.9372 29.1462 83.1591 29.1462Z" fill="white"/>
</svg>
