<svg width="69" height="19" viewBox="0 0 69 19" fill="none" xmlns="http://www.w3.org/2000/svg">
<g clip-path="url(#clip0_4640_13569)">
<path d="M53.29 17.2407C54.2619 17.3151 55.229 17.3993 56.1961 17.4885V0H53.29V17.2407ZM6.54702 10.7538L2.76097 0H0V19C0.967064 18.8612 1.93413 18.7225 2.90603 18.5936V8.26108L6.27141 18.1674C7.33034 18.0436 8.38928 17.9246 9.45305 17.8106V0H6.54702V10.7538ZM12.2479 17.5381C14.9266 17.2903 17.6151 17.0822 20.318 16.9236V13.9898C18.5918 14.0939 16.8704 14.2128 15.1539 14.3516V9.91132C16.2805 9.90141 17.765 9.86672 19.0802 9.88159V6.94783C18.0309 6.94288 16.3434 6.9627 15.1539 6.97757V2.96348H20.318V0H12.2479V17.5381ZM22.1796 2.96348H25.221V16.6857C26.1881 16.6461 27.1551 16.6163 28.127 16.5915V2.96348H31.1685V0H22.1796V2.96348ZM33.0301 16.5073H35.9361V9.73292H39.8769V6.79917H35.9361V2.96348H41.1437V0H33.0301V16.5073ZM69 0H65.8087L63.7053 5.00026L61.8147 0H58.6718L62.0516 8.9301L58.3623 17.6917C59.3825 17.7958 60.398 17.9048 61.4182 18.0188L63.5651 12.9244L65.6878 18.5391C66.7951 18.6828 67.8975 18.8365 69 19H69.0048L65.2188 8.99452L69 0ZM45.9113 0H43.0053V16.656C45.6454 16.7501 48.2758 16.8839 50.8966 17.0623V14.1286C49.238 14.0146 47.5795 13.9204 45.9113 13.8412V0Z" fill="white"/>
</g>
<defs>
<clipPath id="clip0_4640_13569">
<rect width="69" height="19" fill="white"/>
</clipPath>
</defs>
</svg>
