<svg width="105" height="24" viewBox="0 0 105 24" fill="none" xmlns="http://www.w3.org/2000/svg">
<path d="M26.841 6.11442C26.841 1.9873 22.4292 0 17.1878 0C11.581 0 6.43664 2.46467 4.54843 6.28632C4.02731 7.30451 3.75652 8.43083 3.75799 9.57289C3.73415 10.5604 4.00957 11.5323 4.54843 12.3628C5.35745 13.5481 6.80236 14.293 8.92189 14.293C11.5234 14.293 13.585 12.8786 13.585 10.4139C13.585 10.4139 13.6233 9.72646 12.8142 9.72646C12.1591 9.72646 11.9855 10.1848 12.0049 10.4139C12.1017 12.3439 10.9452 13.8917 8.88346 13.8917C6.57199 13.8917 5.60777 11.9426 5.60777 9.86002C5.60777 5.59871 8.84482 2.77034 12.2167 1.54764C13.7924 0.957237 15.4658 0.665211 17.1501 0.687194C20.9651 0.687194 24.0865 2.13972 24.0865 6.03816C24.0865 9.28607 21.3313 12.0568 18.0361 12.3055L18.1709 11.8663C18.8455 9.47746 19.674 6.85985 21.0224 4.92975C21.1 4.81442 21.2345 4.62387 21.3887 4.433L21.1963 4.20349C20.908 4.37706 20.6311 4.56844 20.3671 4.7766C14.0479 9.66864 13.8559 23.4265 5.43515 23.4265C5.14514 23.4265 4.85566 23.4073 4.56827 23.3691C2.81519 23.0826 1.88972 21.9166 1.88972 20.2933C1.88972 19.9683 2.00554 19.5286 2.00554 19.2805C2.01887 18.819 1.65263 18.4342 1.18748 18.4208C1.18381 18.4208 1.18034 18.4208 1.17688 18.4208H1.0808C0.329526 18.4208 0.0211407 19.0123 0.00182072 19.8537C-0.0557193 22.2805 1.7549 23.694 4.54927 23.9621C4.85723 23.981 5.16562 23.9999 5.49322 23.9999C12.0632 23.9999 16.0901 19.0699 17.8052 13.0889C18.6739 12.9879 19.5315 12.809 20.3675 12.5543C23.4125 11.7127 26.841 9.68822 26.841 6.11442ZM89.4242 7.54746H87.1112L86.5915 8.75151L85.6855 10.7769H84.6073L84.2783 11.465H85.3967L84.0472 14.4269C83.0853 16.5095 81.5819 18.5543 80.7147 18.5543C80.5223 18.5543 80.406 18.4774 80.406 18.287C80.406 18.0968 80.4634 17.9234 80.6759 17.3886C80.9459 16.7576 81.3895 15.8408 81.7169 15.1721C82.1978 14.1976 82.9689 12.688 82.9689 11.9428C82.9689 11.1974 82.4879 10.6049 81.5431 10.6049C80.4836 10.6049 79.5201 11.2362 78.6328 12.1524L79.2114 10.7767H77.0349L75.2615 14.7895C74.5494 16.2036 73.1035 18.5539 72.1974 18.5539C72.005 18.5539 71.9275 18.4391 71.9275 18.2482C71.9463 18.0765 71.9917 17.9088 72.0625 17.7512C72.14 17.5793 73.1996 15.1144 73.1996 15.1144L75.1265 10.7386H72.7762L70.9066 14.9995C70.3296 16.3182 68.8651 18.5539 67.9202 18.5539C67.7557 18.57 67.609 18.4506 67.5929 18.2869C67.5929 18.2869 67.5929 18.2869 67.5929 18.2867V18.2098C67.5929 17.9807 67.7667 17.5601 67.9017 17.2542L68.8838 15.1144L70.9067 10.7386H68.5766L68.1127 11.7322C67.7668 12.4007 67.1881 13.1842 66.2635 13.1842C65.8199 13.1842 65.6089 13.0127 65.5127 12.8405C65.3778 11.369 64.433 10.5856 63.0459 10.5856C61.1191 10.5856 59.7509 11.7129 58.8448 13.089C58.2512 14.0375 57.7849 15.0587 57.4581 16.1268C56.6294 17.484 55.7628 18.5352 55.069 18.5352C54.8954 18.5352 54.7796 18.4391 54.7796 18.21C54.7796 17.9807 55.011 17.4651 55.0881 17.2732L56.6103 14.0632C57.0341 13.07 57.3238 12.4202 57.3238 11.7704C57.3238 11.0824 56.8429 10.5852 56.0517 10.5852C54.9534 10.5852 53.7585 11.2163 52.8145 12.2478C52.8465 12.084 52.8593 11.9172 52.8529 11.7506C52.8529 10.9861 52.4679 10.5847 51.6775 10.5847C50.6759 10.5847 49.6355 11.1777 48.6915 12.2473L49.3081 10.7561H47.1883L45.3968 14.7701C44.5491 16.6621 43.1811 18.5352 42.4101 18.5352C42.2369 18.5352 42.1212 18.4389 42.1212 18.21C42.1212 17.847 42.5259 16.9489 42.6798 16.5858L45.05 11.2547C45.2233 10.8536 44.0863 10.6048 42.6413 10.6048C41.1577 10.6048 39.6354 11.3313 38.5182 12.2674C37.7283 12.9167 37.1502 13.2419 36.8606 13.2419C36.7662 13.262 36.6732 13.2022 36.6528 13.1087C36.6501 13.0961 36.6488 13.083 36.649 13.0702C36.649 12.7453 37.4389 11.8276 37.4389 11.1208C37.4389 10.7961 37.2658 10.5857 36.8221 10.5857C35.9748 10.5857 34.9724 11.3884 34.2403 12.2288L34.857 10.7572H32.7764L30.9848 14.7703C30.1368 16.6623 28.7302 18.6308 27.9595 18.6308C27.786 18.6308 27.6709 18.5354 27.6709 18.3056C27.6709 17.9427 28.0562 17.0642 28.268 16.605L30.6381 11.2549C30.8114 10.8538 29.6745 10.605 28.2292 10.605C26.0904 10.605 24.0093 12.0382 22.9112 13.5096C21.6975 15.0951 20.8693 16.7769 20.8498 18.153C20.8309 19.2612 21.4082 19.9489 22.5645 19.9489C23.8556 19.9489 24.8964 18.9364 25.4933 18.1719C25.4579 18.323 25.432 18.4763 25.4157 18.6307C25.4157 19.3946 25.7241 19.9488 26.668 19.9488C27.4964 19.9488 28.5948 19.261 29.4812 18.1718L28.7674 19.7962H31.0214L33.2375 14.8086C33.9713 13.1848 34.7999 12.3443 35.0302 12.3443C35.0833 12.3343 35.1345 12.3687 35.1448 12.4212C35.1458 12.4273 35.1465 12.4336 35.1465 12.4397C35.1465 12.6118 34.7999 13.071 34.7999 13.4907C34.7999 13.9105 35.0303 14.2356 35.6479 14.2356C36.1287 14.2356 36.6686 14.0063 37.1504 13.7002C36.0137 15.2294 35.2422 16.8345 35.2422 18.1532C35.2232 19.2616 35.8006 19.9494 36.9572 19.9494C38.1708 19.9494 39.3076 18.8027 39.9242 18.0384C39.901 18.2158 39.8882 18.3945 39.8858 18.5734C39.8858 19.3189 40.3098 19.9494 41.1767 19.9494C42.1398 19.9494 42.9108 19.3566 43.8742 18.1915L43.1606 19.7965H45.4723L47.5915 15.0382C48.5164 12.9745 49.7686 11.8658 50.3852 11.8658C50.5393 11.85 50.6773 11.9611 50.6934 12.1141C50.6934 12.1143 50.6934 12.1148 50.6935 12.115V12.172C50.6681 12.404 50.6029 12.6302 50.5009 12.8406L47.4594 19.8154H49.8294L51.9875 14.9615C52.9118 12.879 53.9335 11.8658 54.7041 11.8658C54.9352 11.8658 55.0319 11.9812 55.0319 12.2289C55.0113 12.4951 54.9393 12.7548 54.8199 12.9943L52.7387 17.3887C52.5471 17.8118 52.4298 18.2639 52.3918 18.726C52.3918 19.3951 52.7577 19.9884 53.7987 19.9884C55.1483 19.9884 56.1686 18.9757 57.3243 17.466V17.7908C57.421 18.9946 58.0952 20.0456 59.8869 20.0456C62.0062 20.0456 63.7219 18.5932 64.7614 16.2816C65.1545 15.4688 65.409 14.5967 65.5137 13.701C65.7458 13.8177 66.0051 13.8709 66.2646 13.855C66.6148 13.8589 66.9598 13.7733 67.2668 13.6061L66.9008 14.3894C66.4756 15.2686 66.0133 16.2431 65.6488 17.0655C65.4179 17.5516 65.2804 18.0761 65.244 18.6126C65.244 19.4338 65.7062 20.0268 66.6495 20.0268C67.5928 20.0268 68.8851 19.1477 69.8098 17.9057H69.8299C69.7679 18.1625 69.7353 18.4251 69.7321 18.6889C69.7321 19.3771 69.9446 20.0269 70.908 20.0269C72.0266 20.0269 72.8923 19.2241 73.7408 18.2112L73.0272 19.8166H75.3589L77.2285 15.6126C78.2881 13.2433 79.3477 11.8103 80.3296 11.8103C80.4983 11.8044 80.6426 11.9299 80.6585 12.0968V12.1534C80.6585 12.555 80.0799 13.6442 79.5601 14.7332C79.0776 15.727 78.7115 16.4909 78.4617 17.0839C78.2299 17.5834 78.0927 18.1208 78.0569 18.6695C78.0569 19.3953 78.4617 19.9496 79.3679 19.9496C80.716 19.9496 82.0843 18.6503 82.815 17.6754C82.6502 18.1428 82.5595 18.6325 82.5465 19.1273C82.5465 20.4657 83.3547 21.1343 84.4919 21.1343C85.2474 21.1286 85.9819 20.8881 86.5925 20.4467C87.4784 19.8349 88.1921 18.9179 88.7893 18.0772L88.3845 17.6946C87.826 18.4782 87.2086 19.2236 86.5724 19.6822C86.2372 19.9634 85.8165 20.125 85.3777 20.1408C84.8969 20.1408 84.5881 19.8922 84.5881 19.2813C84.5881 18.6705 84.8767 17.8478 85.3205 16.7393C85.339 16.7207 85.9751 15.3063 86.5724 13.9499C87.0735 12.8027 87.5745 11.6949 87.6708 11.4656H89.1928L89.5013 10.7776H87.9982L89.4242 7.54746ZM23.7011 18.5733C23.3737 18.5733 23.1425 18.4587 23.1425 18.0383C23.1616 16.9106 24.1054 14.9045 25.2815 13.299C26.1098 12.1908 27.1886 11.3694 28.3448 11.3694L26.8802 14.6173C25.7819 17.0637 24.5874 18.5733 23.7011 18.5733ZM38.1135 18.5733C37.7862 18.5733 37.555 18.4587 37.536 18.0383C37.5551 16.9106 38.499 14.9045 39.6747 13.299C40.5027 12.1908 41.582 11.3694 42.7381 11.3694L41.2733 14.6173C40.1561 17.1212 39.0194 18.5733 38.1131 18.5733H38.1135ZM63.7007 12.2488C63.6433 13.4905 62.5449 16.49 61.2541 18.287C60.7344 19.0131 60.2906 19.223 59.906 19.223C59.366 19.223 59.2109 18.7832 59.2884 18.1337C59.4033 17.0065 60.348 14.3695 61.659 12.5542C62.2562 11.7325 62.6612 11.3884 63.1234 11.3884C63.5858 11.3884 63.7208 11.7707 63.7007 12.2488ZM99.6619 10.7767L101.784 5.91668H99.2726L97.1502 10.7767H91.8119L90.9214 12.8149H96.2613L94.139 17.6748H96.6506L98.7731 12.8149H104.111L105 10.7767H99.6619Z" fill="white"/>
</svg>
