<svg width="80" height="24" viewBox="0 0 80 24" fill="none" xmlns="http://www.w3.org/2000/svg">
<g clip-path="url(#clip0_4363_30278)">
<path d="M5.14074 7.4131C2.30507 7.4131 0 9.65799 0 12.4196V23.9999H2.43761V17.5722L3.33313 18.4923L6.91521 17.12C8.95521 16.3447 10.2819 14.5516 10.2819 12.4201C10.2819 9.65843 7.97685 7.4131 5.14074 7.4131ZM6.05327 15.0203L2.43806 16.3931V12.4201C2.43806 10.821 3.66537 9.67456 5.14119 9.67456C6.617 9.67456 7.84431 10.8371 7.84431 12.4201C7.84431 13.4213 7.34685 14.5197 6.05327 15.0203ZM48.1593 7.4131C45.3236 7.4131 43.0186 9.65799 43.0186 12.4196C43.0186 15.1813 45.3236 17.4261 48.1593 17.4261C50.995 17.4261 53.3001 15.1813 53.3001 12.4196C53.3001 9.65799 50.995 7.4131 48.1593 7.4131ZM48.1593 15.1656C46.6007 15.1656 45.4562 13.9546 45.4562 12.4201C45.4562 10.8855 46.6338 9.67456 48.1593 9.67456C49.718 9.67456 50.8624 10.8855 50.8624 12.4201C50.8624 13.9546 49.718 15.1656 48.1593 15.1656ZM59.2871 9.67456C60.3478 9.67456 61.2102 10.2397 61.6584 11.0796L63.5654 9.65843C62.6368 8.31795 61.0781 7.42967 59.2871 7.42967C56.4509 7.42967 54.1459 9.67456 54.1459 12.4362C54.1459 15.1978 56.4509 17.4427 59.2871 17.4427C61.0615 17.4427 62.6363 16.5544 63.5654 15.214L61.6584 13.7924C61.2102 14.6327 60.3478 15.1978 59.2871 15.1978C57.728 15.1978 56.5839 13.9869 56.5839 12.4523C56.5839 10.9178 57.7611 9.67456 59.2871 9.67456ZM38.4908 9.67456C39.5525 9.67456 40.4149 10.2397 40.8626 11.0796L42.7696 9.65843C41.841 8.31795 40.2819 7.42967 38.4908 7.42967C35.6552 7.42967 33.3501 9.67456 33.3501 12.4362C33.3501 15.1978 35.6552 17.4427 38.4908 17.4427C40.2653 17.4427 41.841 16.5544 42.7696 15.214L40.8626 13.7924C40.4149 14.6327 39.5525 15.1978 38.4908 15.1978C36.9322 15.1978 35.7877 13.9869 35.7877 12.4523C35.7877 10.9178 36.9487 9.67456 38.4908 9.67456ZM29.9668 8.60837C29.1376 7.7685 28.0432 7.41354 26.8988 7.41354C24.5104 7.41354 22.0898 9.52935 22.0898 12.4201C22.0898 15.3108 24.5104 17.4266 26.8988 17.4266C28.0432 17.4266 29.1376 17.0716 29.9668 16.2318V17.1362H32.4049V7.71966H29.9668V8.60837ZM27.2637 15.1656C25.7055 15.1656 24.5274 13.9546 24.5274 12.4201C24.5274 10.8855 25.7382 9.67456 27.2637 9.67456C28.8228 9.67456 29.9668 10.8855 29.9668 12.4201C29.9668 13.9546 28.8228 15.1656 27.2637 15.1656ZM70.3481 12.0808H69.2538L73.4824 7.70396H70.3481L66.9317 11.2898V2.56836H64.4941V17.1366H66.9317V14.4556L68.2749 13.0663L71.1438 17.1366H74.0958L70.3481 12.0808ZM16.2188 7.4131C13.3831 7.4131 11.078 9.65799 11.078 12.4196C11.078 15.1813 13.3831 17.4261 16.2188 17.4261C17.9104 17.4261 19.5022 16.6351 20.4147 15.4076L18.4576 14.0832C18.2252 14.4548 17.4792 15.1647 16.2188 15.1647C15.0582 15.1647 14.1125 14.4866 13.7149 13.5015H21.128C21.2113 13.1466 21.2444 12.7912 21.2444 12.4196C21.2601 9.65843 19.0549 7.4131 16.2188 7.4131ZM13.7315 11.3377C14.1295 10.3522 15.0747 9.67456 16.2188 9.67456C17.3798 9.67456 18.2588 10.3526 18.6237 11.3377H13.7315Z" fill="white"/>
<path d="M78.5251 15.7153C77.7124 15.7153 77.0488 16.3612 77.0488 17.1531C77.0488 17.9441 77.712 18.5899 78.5251 18.5899C79.3373 18.5899 80.0009 17.9445 80.0009 17.1531C80.0009 16.3612 79.3378 15.7153 78.5251 15.7153Z" fill="white"/>
<path d="M78.5251 11.7905C77.7124 11.7905 77.0488 12.4363 77.0488 13.2283C77.0488 14.0193 77.712 14.6651 78.5251 14.6651C79.3373 14.6651 80.0009 14.0197 80.0009 13.2283C79.9843 12.4202 79.3378 11.7905 78.5251 11.7905Z" fill="white"/>
<path d="M78.5251 19.6396C77.7124 19.6396 77.0488 20.2855 77.0488 21.0774C77.0488 21.8684 77.712 22.5142 78.5251 22.5142C79.3373 22.5142 80.0009 21.8688 80.0009 21.0774C80.0009 20.2855 79.3378 19.6396 78.5251 19.6396Z" fill="white"/>
<path d="M78.5251 7.84961C77.7124 7.84961 77.0488 8.49543 77.0488 9.28733C77.0488 10.0784 77.712 10.7246 78.5251 10.7246C79.3373 10.7246 80.0009 10.0788 80.0009 9.28733C79.9843 8.49586 79.3378 7.84961 78.5251 7.84961Z" fill="white"/>
<path d="M78.5251 3.9248C77.7124 3.9248 77.0488 4.57062 77.0488 5.36253C77.0488 6.15356 77.712 6.79982 78.5251 6.79982C79.3373 6.79982 80.0009 6.154 80.0009 5.36253C79.9843 4.57106 79.3378 3.9248 78.5251 3.9248Z" fill="white"/>
<path d="M78.5251 0C77.7124 0 77.0488 0.64582 77.0488 1.43772C77.0488 2.22876 77.712 2.87501 78.5251 2.87501C79.3373 2.87501 80.0009 2.22919 80.0009 1.43772C79.9843 0.646256 79.3378 0 78.5251 0Z" fill="white"/>
</g>
<defs>
<clipPath id="clip0_4363_30278">
<rect width="80" height="24" fill="white"/>
</clipPath>
</defs>
</svg>
