<svg width="81" height="20" viewBox="0 0 81 20" fill="none" xmlns="http://www.w3.org/2000/svg">
<g clip-path="url(#clip0_4640_13612)">
<path d="M51.6768 3.18175C47.9266 3.18175 44.8865 6.2316 44.8865 9.99378C44.8865 13.756 47.9266 16.8058 51.6768 16.8058C55.427 16.8058 58.4672 13.756 58.4672 9.99378C58.4672 6.2316 55.427 3.18175 51.6768 3.18175ZM51.6768 13.1224C49.9544 13.1224 48.5582 11.7217 48.5582 9.99378C48.5582 8.2659 49.9544 6.86517 51.6768 6.86517C53.3992 6.86517 54.7955 8.2659 54.7955 9.99378C54.7955 10.8235 54.4669 11.6193 53.882 12.2061C53.2972 12.7928 52.5039 13.1224 51.6768 13.1224ZM40.7923 6.94951V11.1678C40.7923 12.4615 41.3672 13.038 42.6565 13.038H43.9557V16.5478H42.065C40.4926 16.5478 39.1984 16.0851 38.3226 15.2098C37.4467 14.3345 36.985 13.0447 36.985 11.4774V6.94951H34.6421V3.43972H36.985V1.54315L40.7923 0V3.43972H43.9557V6.94951H40.7923ZM33.1511 3.44182V10.6131C33.1585 12.8305 31.9835 14.8827 30.0705 15.9935C28.1575 17.1044 25.7985 17.1044 23.8855 15.9935C21.9725 14.8827 20.7975 12.8305 20.8049 10.6131V5.11692L24.5865 3.5842V10.7232C24.5865 12.0482 25.6572 13.1224 26.978 13.1224C28.2988 13.1224 29.3695 12.0482 29.3695 10.7232V4.97455L33.1511 3.44182ZM19.1677 0.00027972V16.5478H15.3603V1.54343L19.1677 0.00027972ZM7.54785 3.18308C5.95706 3.18308 4.60794 3.72245 3.60436 4.75112L3.07842 3.47503L0 4.72273V19.9876H3.80665V15.4796C4.79692 16.376 6.07911 16.8051 7.54785 16.8051C9.26877 16.8133 10.9121 16.0875 12.0682 14.8087C13.2247 13.542 13.8615 11.8366 13.8615 10.0069C13.8615 6.18042 11.0883 3.18308 7.54785 3.18308ZM6.96565 13.1224C5.216 13.1224 3.79731 11.7217 3.79731 9.99378C3.79731 8.26587 5.216 6.86524 6.96565 6.86524C8.71531 6.86524 10.1341 8.26594 10.1341 9.99378C10.1341 11.7216 8.71566 13.1224 6.96565 13.1224Z" fill="white"/>
<path d="M68.2463 9.99377C68.2463 4.64133 68.7478 3.2935 68.7478 3.2935L67.1633 3.3258C63.413 3.40273 60.3729 6.23161 60.3729 9.99377C60.3729 13.7559 63.4131 16.5849 67.1633 16.6617L68.7478 16.6941C68.7478 16.6941 68.2463 15.3462 68.2463 9.99377Z" fill="#FF2CD2"/>
<path d="M68.2463 9.99378C68.2463 5.70951 70.5606 3.25629 70.5606 3.25629L68.7478 3.2935C64.9977 3.37028 61.9578 6.23154 61.9578 9.99378C61.9578 13.756 64.998 16.6173 68.7482 16.6941L70.561 16.7312C70.561 16.7312 68.2467 14.278 68.2467 9.99378" fill="#5E00FF"/>
<path d="M68.2463 9.99378C68.2463 5.15699 72.373 3.21923 72.373 3.21923L70.5606 3.25629C66.8104 3.33315 63.7702 6.23154 63.7702 9.99378C63.7702 13.756 66.8103 16.6544 70.5605 16.7312L72.373 16.769C72.373 16.769 68.2463 14.8305 68.2463 9.99378Z" fill="#FFDE2B"/>
<path d="M68.2463 9.99378C68.2463 6.84217 70.291 3.5686 73.9296 3.187L72.3734 3.21923C68.6231 3.29616 65.5831 6.23161 65.5831 9.99378C65.5831 13.7559 68.6231 16.6915 72.3734 16.769L73.9349 16.8008C70.2979 16.4211 68.2463 13.1454 68.2463 9.99378Z" fill="#FF6700"/>
<path d="M74.1855 3.18175C70.4353 3.18175 67.3952 6.2316 67.3952 9.99377C67.3952 13.756 70.4353 16.8058 74.1855 16.8058C77.9357 16.8058 80.9759 13.756 80.9759 9.99377C80.9759 6.2316 77.9357 3.18175 74.1855 3.18175ZM76.867 13.321H75.6014L73.789 8.92371H71.9716V11.1925C71.9716 11.6811 72.2065 11.9844 72.7603 11.9844H73.5641V13.321H72.5763C71.2361 13.321 70.5184 12.5603 70.5184 11.2893V8.92385H69.516V7.64531H70.5184V6.73671L71.9718 6.14762V7.64531H74.8328L76.2345 11.3183L77.6496 7.61035H79.2209L76.867 13.321Z" fill="white"/>
</g>
<defs>
<clipPath id="clip0_4640_13612">
<rect width="81" height="20" fill="white"/>
</clipPath>
</defs>
</svg>
