<svg width="81" height="26" viewBox="0 0 81 26" fill="none" xmlns="http://www.w3.org/2000/svg">
<path d="M16.9608 3.05997C16.5727 3.05997 16.2584 2.94905 16.0273 2.73651C15.7963 2.52392 15.6761 2.22818 15.6761 1.85847C15.6761 1.48879 15.7963 1.20227 16.0273 0.980466C16.2584 0.767919 16.5727 0.656997 16.9608 0.656997C17.349 0.656997 17.6632 0.767919 17.8943 0.980466C18.1253 1.19305 18.2455 1.48879 18.2455 1.85847C18.2455 2.22818 18.1253 2.5147 17.8943 2.73651C17.6632 2.94905 17.349 3.05997 16.9608 3.05997Z" fill="white"/>
<path d="M16.2214 12.1081C16.092 12.1081 15.9904 12.0804 15.9349 12.0157C15.8702 11.951 15.8425 11.8585 15.8425 11.7292V4.65887C15.8425 4.511 15.8702 4.41855 15.9349 4.36309C15.9996 4.30767 16.092 4.27994 16.2214 4.27994H17.6909C17.8296 4.27994 17.9312 4.30767 17.9867 4.36309C18.0422 4.41855 18.0698 4.52022 18.0698 4.65887V11.7292C18.0698 11.8585 18.0422 11.9602 17.9867 12.0157C17.9312 12.0804 17.8296 12.1081 17.6909 12.1081H16.2214Z" fill="white"/>
<path fill-rule="evenodd" clip-rule="evenodd" d="M0.740785 15.1858C0.796246 15.2412 0.897912 15.269 1.02731 15.269H2.50608C2.64469 15.269 2.74636 15.2412 2.80182 15.1858C2.85728 15.1303 2.88501 15.0287 2.88501 14.89V11.5351C3.15302 11.7754 3.47649 11.9603 3.85542 12.0897C4.22513 12.2283 4.63179 12.293 5.04767 12.293C5.68539 12.293 6.24918 12.1173 6.73903 11.7754C7.22884 11.4242 7.61703 10.9436 7.90356 10.3059C8.18082 9.66816 8.32869 8.92882 8.32869 8.07851C8.32869 6.84005 8.04217 5.86039 7.45991 5.13026C6.87765 4.40013 6.09205 4.03967 5.10313 4.03967C4.65027 4.03967 4.20666 4.12286 3.77227 4.29846C3.33788 4.46481 2.96816 4.70508 2.66321 5.00086L2.55228 4.60346C2.50608 4.38161 2.35821 4.27073 2.12715 4.27073H1.02731C0.897912 4.27073 0.805504 4.29846 0.740785 4.35388C0.676108 4.40934 0.648376 4.50179 0.648376 4.64966V14.89C0.648376 15.0287 0.676108 15.1303 0.740785 15.1858ZM5.65766 10.0101C5.38966 10.3983 4.96452 10.5924 4.39147 10.5924C3.83694 10.5924 3.33788 10.4538 2.88501 10.1857V6.14691C3.35635 5.8696 3.85542 5.73099 4.39147 5.73099C4.97374 5.73099 5.39891 5.92506 5.66692 6.31325C5.93493 6.70144 6.06432 7.32065 6.06432 8.17092C6.06432 9.01197 5.92571 9.62196 5.65766 10.0101Z" fill="white"/>
<path d="M9.90006 12.0157C9.95548 12.0804 10.0572 12.1081 10.1865 12.1081L11.6653 12.0896C11.8039 12.0896 11.9056 12.0619 11.9611 11.9972C12.0165 11.9418 12.0443 11.8401 12.0443 11.7107V6.55354C12.2753 6.45188 12.5711 6.36869 12.9038 6.30401C13.2458 6.23929 13.5322 6.20235 13.7633 6.20235C13.9297 6.20235 14.0776 6.2116 14.1884 6.22082L14.2439 6.22555C14.3305 6.23296 14.4045 6.23929 14.4657 6.23929C14.6044 6.23929 14.706 6.2116 14.7615 6.14688C14.8169 6.09142 14.8446 5.98976 14.8446 5.86036V4.5757C14.8446 4.43709 14.8169 4.33542 14.7522 4.27996C14.6968 4.2245 14.5859 4.19677 14.4472 4.19677H14.2346C13.828 4.19677 13.4398 4.28922 13.0794 4.48329C12.7189 4.67737 12.3308 4.99162 11.9241 5.44449L11.7208 4.61269C11.6746 4.39085 11.5267 4.27996 11.2956 4.27996H10.1865C10.0572 4.27996 9.96474 4.30769 9.90006 4.36316C9.83535 4.41858 9.80762 4.51102 9.80762 4.65889V11.7292C9.80762 11.8586 9.83535 11.951 9.90006 12.0157Z" fill="white"/>
<path d="M20.0476 12.0157C20.1031 12.0804 20.2047 12.1082 20.3341 12.1082L21.8314 12.1174C21.9701 12.1174 22.0717 12.0896 22.1272 12.025C22.1824 11.9695 22.2104 11.8678 22.2104 11.7384V6.18388C22.765 5.90662 23.3286 5.76796 23.9018 5.76796C24.521 5.76796 24.8353 6.1192 24.8353 6.81235V11.7384C24.8353 11.8678 24.8629 11.9603 24.9275 12.025C24.983 12.0896 25.0846 12.1174 25.2142 12.1174H26.6835C26.8221 12.1174 26.9237 12.0896 26.9793 12.025C27.0348 11.9695 27.0624 11.8678 27.0624 11.7384V6.16541C27.6265 5.89736 28.1807 5.76796 28.7353 5.76796C29.3545 5.76796 29.6688 6.1192 29.6688 6.81235V11.7384C29.6688 11.8678 29.7058 11.9603 29.7614 12.025C29.8165 12.0896 29.9181 12.1174 30.0478 12.1174H31.5174C31.656 12.1174 31.7577 12.0896 31.8128 12.025C31.8683 11.9695 31.8963 11.8678 31.8963 11.7384V6.32253C31.8963 5.61088 31.7021 5.04709 31.3047 4.64969C30.9167 4.25224 30.3526 4.04891 29.6413 4.04891C29.1512 4.04891 28.6707 4.1321 28.2177 4.27997C27.7647 4.42784 27.2656 4.67742 26.7481 5.02862C26.3691 4.37242 25.7223 4.04891 24.7983 4.04891C24.3358 4.04891 23.8923 4.12285 23.4578 4.27076C23.0143 4.41863 22.5337 4.66816 21.9886 5.02862L21.8684 4.6127C21.822 4.3909 21.6743 4.27997 21.443 4.27997H20.3341C20.2047 4.27997 20.1123 4.3077 20.0476 4.36316C19.9829 4.41863 19.9552 4.51103 19.9552 4.6589V11.7292C19.9552 11.8586 19.9829 11.951 20.0476 12.0157Z" fill="white"/>
<path fill-rule="evenodd" clip-rule="evenodd" d="M37.1644 12.3484C35.9165 12.3484 34.9648 12.0527 34.1975 11.2763C33.6984 10.768 33.2274 9.81605 33.2274 8.19866C33.2274 6.88627 33.6429 5.88813 34.3177 5.16722C34.9924 4.43709 36.0276 4.10436 36.9981 4.10436C38.218 4.10436 38.9389 4.38163 39.4935 4.93616C39.5856 5.0286 40.1403 5.60161 40.1403 6.52581V6.56354C40.1407 6.86681 40.1411 7.19122 39.937 7.63487C39.7893 7.94912 39.5675 8.1432 39.5025 8.19866C38.597 9.03045 36.8225 8.97503 36.2218 8.93805L35.2512 8.79018C35.3158 9.46484 35.5009 9.99165 35.9165 10.2874C36.3049 10.5739 36.7299 10.6848 37.5988 10.6848C38.0333 10.6848 38.6155 10.6016 39.3639 10.3983L39.3803 10.3944L39.4075 10.3879C39.4462 10.3787 39.4927 10.3678 39.512 10.3614C39.5153 10.3614 39.5206 10.361 39.5272 10.3606C39.5568 10.3589 39.6128 10.3555 39.6507 10.3706C39.7338 10.3983 39.8263 10.4722 39.8263 10.7033V11.4057C39.8263 11.5721 39.8078 11.683 39.7613 11.7477C39.7153 11.8124 39.6227 11.8771 39.4935 11.9325C38.6986 12.2098 37.9778 12.3484 37.1644 12.3484ZM38.0979 6.59975C38.0979 5.85114 37.5709 5.63855 36.9241 5.63855C36.4991 5.63855 36.0831 5.79568 35.7963 6.10068C35.5194 6.40567 35.3528 6.85854 35.2792 7.4408C35.2792 7.4408 36.425 7.65339 37.2569 7.51473C37.691 7.4408 38.0979 7.20052 38.0979 6.59975Z" fill="white"/>
<path fill-rule="evenodd" clip-rule="evenodd" d="M66.2413 11.2763C67.0087 12.0527 67.9603 12.3484 69.2082 12.3484C70.0216 12.3484 70.7515 12.2098 71.5373 11.9325C71.6665 11.8771 71.7591 11.8124 71.8051 11.7477C71.8512 11.683 71.8697 11.5721 71.8697 11.4057V10.7033C71.8697 10.4722 71.7776 10.3983 71.6945 10.3706C71.6566 10.3555 71.6007 10.3589 71.571 10.3606C71.5645 10.361 71.5591 10.3614 71.5558 10.3614C71.5365 10.3678 71.49 10.3787 71.4513 10.3879C71.4344 10.3918 71.4188 10.3955 71.4077 10.3983C70.6593 10.6016 70.0767 10.6848 69.6426 10.6848C68.7737 10.6848 68.3487 10.5739 67.9603 10.2874C67.5443 9.99165 67.3596 9.46484 67.295 8.79018L68.2656 8.93805C68.8663 8.97503 70.6408 9.03045 71.5464 8.19866C71.6109 8.1432 71.8331 7.94912 71.9808 7.63487C72.1849 7.19122 72.1845 6.86681 72.1841 6.5635V6.52581C72.1841 5.60161 71.6295 5.0286 71.5373 4.93616C70.9827 4.38163 70.2619 4.10436 69.042 4.10436C68.0714 4.10436 67.0362 4.43709 66.3615 5.16722C65.6867 5.88813 65.2708 6.88627 65.2708 8.19866C65.2708 9.81605 65.7423 10.768 66.2413 11.2763ZM68.9679 5.63855C69.6147 5.63855 70.1417 5.85114 70.1417 6.59975C70.1417 7.20052 69.7348 7.4408 69.3007 7.51473C68.4688 7.65339 67.3226 7.4408 67.3226 7.4408C67.3966 6.85854 67.5629 6.40567 67.8402 6.10068C68.1269 5.79568 68.5425 5.63855 68.9679 5.63855Z" fill="white"/>
<path d="M46.8779 12.1081C46.7763 12.1081 46.6932 12.0989 46.6286 12.0712C46.5636 12.0434 46.5085 12.0064 46.462 11.951C46.4159 11.8956 46.3698 11.8124 46.3328 11.7107L43.7078 4.88069C43.6926 4.83498 43.6774 4.79203 43.6638 4.75344C43.6527 4.72188 43.6424 4.69304 43.6342 4.6681C43.6157 4.60343 43.6062 4.54797 43.6062 4.50176C43.6062 4.34464 43.7078 4.2707 43.9111 4.2707H45.4453C45.6119 4.2707 45.7321 4.29843 45.8057 4.36311C45.8798 4.42783 45.9444 4.52949 45.9814 4.6681L47.5621 10.1025L49.17 4.6681C49.207 4.52024 49.2716 4.41857 49.3457 4.36311C49.4198 4.30769 49.5399 4.2707 49.7061 4.2707H51.1943C51.3975 4.2707 51.4991 4.34464 51.4991 4.50176C51.4991 4.55722 51.4901 4.61268 51.4716 4.6681C51.4609 4.70538 51.4469 4.74266 51.4321 4.78343C51.421 4.81346 51.409 4.84543 51.3975 4.88069L48.7726 11.7107C48.7355 11.8124 48.6895 11.8956 48.6434 11.951C48.5969 12.0064 48.5418 12.0526 48.4862 12.0712C48.4307 12.0896 48.3381 12.1081 48.2274 12.1081H46.8779Z" fill="white"/>
<path d="M52.6449 2.73651C52.8761 2.94905 53.19 3.05997 53.5784 3.05997C53.9664 3.05997 54.2717 2.94905 54.512 2.73651C54.7428 2.5147 54.8629 2.22818 54.8629 1.85847C54.8629 1.48879 54.7428 1.19305 54.512 0.980466C54.2807 0.767919 53.9664 0.656997 53.5784 0.656997C53.19 0.656997 52.8761 0.767919 52.6449 0.980466C52.4137 1.20227 52.2935 1.48879 52.2935 1.85847C52.2935 2.22818 52.4137 2.52392 52.6449 2.73651Z" fill="white"/>
<path d="M52.543 12.0157C52.6076 12.0804 52.7092 12.1081 52.8388 12.1081H54.3081C54.4467 12.1081 54.5483 12.0804 54.6039 12.0157C54.6594 11.9602 54.687 11.8585 54.687 11.7292V4.65887C54.687 4.52022 54.6594 4.41855 54.6039 4.36309C54.5483 4.30767 54.4467 4.27994 54.3081 4.27994H52.8388C52.7002 4.27994 52.6076 4.30767 52.543 4.36309C52.4784 4.41855 52.4504 4.511 52.4504 4.65887V11.7292C52.4504 11.8585 52.4784 11.951 52.543 12.0157Z" fill="white"/>
<path fill-rule="evenodd" clip-rule="evenodd" d="M59.3826 12.2745C58.7169 12.2745 58.1347 12.0989 57.6451 11.7569C57.1551 11.4149 56.7762 10.9343 56.5174 10.3336C56.2586 9.72361 56.1294 9.02121 56.1294 8.22636C56.1294 6.96021 56.4343 5.94356 57.035 5.1857C57.6356 4.42784 58.44 4.03965 59.4287 4.03965C60.2326 4.03965 60.9353 4.27071 61.5266 4.73284V1.14682C61.5266 0.998952 61.5546 0.906544 61.6191 0.851083C61.6837 0.795622 61.7763 0.767891 61.915 0.767891H63.3846C63.5229 0.767891 63.6249 0.795622 63.68 0.851083C63.7356 0.906544 63.7635 1.00821 63.7635 1.14682V11.7292C63.7635 11.8586 63.7356 11.9602 63.68 12.0157C63.6249 12.0804 63.5229 12.1081 63.3846 12.1081H62.1552C62.0351 12.1081 61.9425 12.0804 61.8689 12.0342C61.8039 11.9787 61.7578 11.8955 61.7208 11.7754L61.6282 11.4242C61.009 11.988 60.2511 12.2745 59.3826 12.2745ZM60.1219 10.5924C60.6115 10.5924 61.0831 10.4445 61.536 10.1673V6.11916C61.0925 5.86037 60.5934 5.74023 60.0203 5.74023C59.4748 5.74023 59.0777 5.94356 58.8095 6.35022C58.5416 6.75688 58.412 7.36683 58.412 8.18015C58.412 9.00273 58.5507 9.60347 58.837 10.0101C59.1053 10.3891 59.5398 10.5924 60.1219 10.5924Z" fill="white"/>
<path fill-rule="evenodd" clip-rule="evenodd" d="M74.2623 11.2393C74.9461 11.9695 75.8982 12.3392 77.1181 12.3392C78.3384 12.3392 79.2901 11.9695 79.9743 11.2393C80.6581 10.5092 81 9.49256 81 8.18017C81 6.88626 80.6581 5.8696 79.9743 5.13947C79.2901 4.40934 78.3384 4.03967 77.1181 4.03967C75.8982 4.03967 74.9461 4.40934 74.2623 5.13947C73.5785 5.8696 73.2366 6.87704 73.2366 8.18017C73.2366 9.49256 73.5785 10.5092 74.2623 11.2393ZM78.7264 8.18017C78.7264 9.80682 78.1903 10.6201 77.1181 10.6201C76.0463 10.6201 75.5102 9.80682 75.5102 8.18017C75.5102 6.56279 76.0463 5.75872 77.1181 5.75872C78.1903 5.75872 78.7264 6.56279 78.7264 8.18017Z" fill="white"/>
<path d="M20.14 16.3689V16.4983C20.1585 16.6091 20.214 16.7201 20.3156 16.8217C25.7869 22.1452 33.0146 25.343 41.0462 25.343C46.7762 25.343 53.4308 23.4022 58.0149 19.7515C58.7728 19.1415 58.1256 18.2358 57.3492 18.5962C52.2014 20.953 46.61 22.0898 41.5267 22.0898C33.9848 22.0898 26.6835 19.8624 20.7868 16.1563C20.6852 16.0916 20.5835 16.0639 20.4914 16.0639C20.3064 16.0639 20.1677 16.1933 20.14 16.3689Z" fill="white"/>
<path d="M53.9764 17.3301C53.995 17.21 54.0781 17.0621 54.2447 16.9419C55.5938 15.9253 57.3963 15.5833 58.912 15.5741C60.3166 15.5741 61.4444 15.8699 61.6846 16.1933C62.1837 16.868 61.555 21.4983 59.0877 23.7073C58.7087 24.0492 58.3479 23.8644 58.5146 23.4207C58.5302 23.3774 58.5471 23.3324 58.5639 23.286C59.1309 21.7409 60.2903 18.5821 59.7159 17.8015C59.1243 16.9974 55.8341 17.4133 54.3554 17.6074C54.1246 17.6351 53.995 17.5427 53.9764 17.404V17.3301Z" fill="white"/>
</svg>
