<?xml version="1.0" encoding="UTF-8"?>
<svg xmlns="http://www.w3.org/2000/svg" xmlns:xlink="http://www.w3.org/1999/xlink" width="71px" height="20px" viewBox="0 0 70 20" version="1.1">
<g id="surface1">
<path style=" stroke:none;fill-rule:nonzero;fill:rgb(0%,82.745099%,34.509805%);fill-opacity:1;" d="M 46.355469 6.820312 C 46.355469 8.390625 47.617188 9.65625 49.167969 9.65625 C 50.71875 9.65625 51.980469 8.386719 51.980469 6.820312 C 51.980469 5.257812 50.71875 3.984375 49.167969 3.984375 C 47.617188 3.984375 46.355469 5.257812 46.355469 6.820312 Z M 46.355469 6.820312 "/>
<path style=" stroke:none;fill-rule:nonzero;fill:rgb(0%,80.000001%,60.000002%);fill-opacity:1;" d="M 55.363281 6.820312 C 55.363281 8.390625 56.625 9.65625 58.175781 9.65625 C 59.726562 9.65625 60.988281 8.386719 60.988281 6.820312 C 60.988281 5.257812 59.726562 3.984375 58.175781 3.984375 C 56.625 3.984375 55.363281 5.257812 55.363281 6.820312 Z M 55.363281 6.820312 "/>
<path style=" stroke:none;fill-rule:nonzero;fill:rgb(0%,60.000002%,100%);fill-opacity:1;" d="M 64.367188 6.820312 C 64.367188 8.390625 65.628906 9.65625 67.179688 9.65625 C 68.734375 9.65625 69.992188 8.386719 69.992188 6.820312 C 69.992188 5.257812 68.734375 3.984375 67.179688 3.984375 C 65.628906 3.984375 64.367188 5.257812 64.367188 6.820312 Z M 64.367188 6.820312 "/>
<path style=" stroke:none;fill-rule:nonzero;fill:#FFFFFF;fill-opacity:1;" d="M 42.980469 13.632812 L 42.980469 0.0117188 L 38.472656 0.0117188 L 38.472656 18.175781 L 65.492188 18.175781 L 65.492188 19.988281 L 69.996094 19.988281 L 69.996094 13.632812 Z M 42.980469 13.632812 "/>
<path style=" stroke:none;fill-rule:nonzero;fill:#FFFFFF;fill-opacity:1;" d="M 8.140625 12.097656 L 8.140625 13.632812 L 0 13.632812 L 0 18.175781 L 35.101562 18.175781 L 35.101562 9.21875 C 35.101562 5.386719 32.011719 2.269531 28.210938 2.269531 C 26.148438 2.269531 24.003906 3.289062 22.886719 5.058594 C 17.472656 4.964844 14.871094 9.253906 16.519531 13.636719 L 12.652344 13.636719 L 12.652344 11.515625 C 12.652344 10.15625 12.4375 9.230469 11.914062 8.164062 C 10.105469 4.484375 6.066406 3.023438 1.265625 4.730469 L 1.265625 8.910156 C 3.371094 8.195312 8.144531 7 8.144531 12.097656 Z M 22.183594 9.1875 C 23.402344 9.1875 24.390625 10.1875 24.390625 11.410156 L 24.390625 13.632812 L 22.183594 13.632812 C 20.96875 13.632812 19.980469 12.636719 19.980469 11.410156 C 19.980469 10.183594 20.972656 9.1875 22.183594 9.1875 Z M 28.53125 13.636719 L 28.53125 11.347656 C 28.53125 9.613281 27.882812 8.027344 26.828125 6.820312 C 27.230469 6.582031 27.703125 6.445312 28.207031 6.445312 C 29.722656 6.445312 30.953125 7.6875 30.953125 9.214844 L 30.953125 13.632812 L 28.53125 13.632812 Z M 28.53125 13.636719 "/>
</g>
</svg>
