<svg width="52" height="52" viewBox="0 0 52 52" fill="none" xmlns="http://www.w3.org/2000/svg">
<g clip-path="url(#clip0_4363_30317)">
<path d="M13.0634 16.3662V34.4563C13.0634 34.5803 13.16 34.6785 13.2819 34.6785H16.2848C16.4068 34.6785 16.5033 34.5803 16.5033 34.4563V16.3662C16.5033 16.2422 16.4068 16.144 16.2848 16.144H13.2819C13.16 16.144 13.0634 16.2422 13.0634 16.3662ZM3.66845 25.0263C3.66845 24.4373 4.48143 24.0136 5.7263 24.0136C7.14393 24.0136 8.48026 24.5251 9.30848 25.2485C9.46091 25.3829 9.69972 25.3415 9.80134 25.1607L10.8125 23.1093C10.8887 22.9698 10.8531 22.7941 10.7312 22.7011C9.48123 21.7452 7.79431 21.058 5.70089 21.058C2.26607 21.058 0.34033 23.0111 0.34033 25.2433C0.34033 30.4466 8.10933 28.6485 8.10933 30.9375C8.10933 31.5627 7.40814 32.0949 5.91938 32.0949C4.44078 32.0949 2.69288 31.5007 1.67666 30.6791C1.52423 30.5551 1.30066 30.5965 1.19904 30.767L0.0456259 32.715C-0.0356717 32.8493 -0.0102662 33.0199 0.106599 33.1232C1.49374 34.3065 3.58715 35.0092 5.7517 35.0092C9.37961 35.0092 11.407 33.1904 11.407 30.7463C11.4121 25.4965 3.66845 27.119 3.66845 25.0263ZM18.8864 21.275V34.446C18.8864 34.57 18.9829 34.6682 19.1048 34.6682H22.1078C22.2297 34.6682 22.3263 34.57 22.3263 34.446V21.275C22.3263 21.151 22.2297 21.0528 22.1078 21.0528H19.1048C18.988 21.058 18.8864 21.1561 18.8864 21.275ZM33.5199 34.446C33.5199 34.57 33.6165 34.6682 33.7384 34.6682H36.7413C36.8633 34.6682 36.9598 34.57 36.9598 34.446V25.8272C36.9598 23.2385 35.1002 21.0321 32.2293 21.0321C30.0902 21.0321 28.6472 22.1276 28.1289 23.099V21.275C28.1289 21.151 28.0323 21.0528 27.9104 21.0528H24.9075C24.7855 21.0528 24.689 21.151 24.689 21.275V34.446C24.689 34.57 24.7855 34.6682 24.9075 34.6682H27.9104C28.0323 34.6682 28.1289 34.57 28.1289 34.446V27.2172C28.1289 25.605 29.2925 24.1531 30.9387 24.1531C32.3411 24.1531 33.5148 24.892 33.5148 26.7366V34.446H33.5199ZM39.3937 38.156C39.3378 38.249 39.353 38.3678 39.4343 38.4402C41.0196 39.8043 42.7421 40.3003 44.927 40.3003C48.1484 40.3003 51.9948 38.8277 51.9948 33.7587V21.585C51.9948 21.461 51.8983 21.3628 51.7763 21.3628H48.7429C48.621 21.3628 48.5244 21.461 48.5244 21.585V23.0731C47.6759 21.6677 46.2125 21.0373 44.6425 21.0373C41.3397 21.0373 38.7179 23.8844 38.7179 28.2351C38.7179 31.8521 41.2127 35.0092 44.6425 35.0092C46.2633 35.0092 47.493 34.2393 48.5244 32.9165V33.8466C48.5244 36.4612 46.5733 37.4429 44.9219 37.4429C43.3671 37.4429 42.0511 37.0295 41.0196 35.9909C40.9231 35.8928 40.7554 35.9134 40.6843 36.0323L39.3937 38.156ZM45.5774 31.4749C43.6262 31.4749 42.2747 30.1366 42.2747 27.8527C42.2747 25.5689 43.6313 24.1479 45.5774 24.1479C47.3609 24.1479 48.5295 25.8634 48.5295 27.8527C48.5295 29.8421 47.3659 31.4749 45.5774 31.4749ZM50.5416 40.3003H50.7195V39.6131H50.9583V39.4529H50.2977V39.6131H50.5416V40.3003ZM51.7154 39.9645L51.817 39.6958V40.3003H51.9948V39.4581H51.7458L51.5426 39.9851L51.3394 39.4581H51.0904V40.3003H51.2682V39.6958L51.5019 40.3003H51.5782L51.7154 39.9645Z" fill="white"/>
<path d="M18.5611 15.7976C18.5713 14.6247 19.5164 13.6895 20.6698 13.6998C21.8232 13.7101 22.7429 14.6712 22.7327 15.8441C22.7225 16.9861 21.7775 17.9523 20.624 17.942C19.4706 17.9317 18.551 16.9447 18.5611 15.7976Z" fill="white"/>
<path d="M25.0295 18.0813C26.0712 17.8332 26.8536 16.9187 26.8689 15.8129V15.7974C26.874 14.6916 26.1118 13.7564 25.0753 13.4877C24.9736 13.4619 24.8517 13.5239 24.9177 13.653C25.3446 14.4178 25.4462 15.229 25.4411 15.7922C25.436 16.3503 25.3141 17.1615 24.872 17.9159C24.806 18.0399 24.9228 18.1071 25.0295 18.0813Z" fill="white"/>
<path d="M28.9521 18.9805C30.4103 18.6394 31.4977 17.358 31.5231 15.813V15.7924C31.5282 14.2474 30.4662 12.9453 29.0181 12.5681C28.8708 12.5319 28.7031 12.6198 28.7996 12.7954C29.3941 13.8599 29.5415 14.9966 29.5313 15.7769C29.5211 16.5571 29.3484 17.6939 28.7336 18.7428C28.6421 18.9236 28.8047 19.0166 28.9521 18.9805Z" fill="white"/>
<path d="M33.1441 11.9998C33.8961 13.3485 34.0841 14.7901 34.0739 15.777C34.0638 16.7691 33.8453 18.2004 33.0628 19.5335C32.9408 19.7505 33.1492 19.9314 33.3321 19.89C35.1765 19.456 36.5586 17.7715 36.5891 15.8183V15.7925C36.5992 13.8393 35.2528 12.1859 33.4185 11.7105C33.2406 11.664 33.0272 11.7777 33.1441 11.9998Z" fill="white"/>
</g>
<defs>
<clipPath id="clip0_4363_30317">
<rect width="52" height="28.6" fill="white" transform="translate(0 11.7002)"/>
</clipPath>
</defs>
</svg>
