<svg width="90" height="28" viewBox="0 0 90 28" fill="none" xmlns="http://www.w3.org/2000/svg">
<g clip-path="url(#clip0_4640_13621)">
<path d="M14.0019 0C6.26906 0 0 6.24102 0 13.9395C0 21.6382 6.26906 27.8787 14.0019 27.8787C21.7355 27.8787 28.0039 21.6382 28.0039 13.9395C28.0039 6.24155 21.7355 0.0007 14.0017 0.0007L14.0019 0ZM20.4231 20.1047C20.3634 20.2022 20.2849 20.287 20.1922 20.3542C20.0995 20.4215 19.9944 20.4699 19.8829 20.4966C19.7713 20.5234 19.6556 20.528 19.5423 20.5101C19.429 20.4923 19.3204 20.4524 19.2226 20.3928C15.9351 18.3936 11.7965 17.9408 6.92262 19.0494C6.69694 19.1005 6.46011 19.0604 6.26419 18.9377C6.06826 18.815 5.92928 18.6199 5.87777 18.3953C5.85215 18.2841 5.84882 18.1689 5.86795 18.0564C5.88708 17.9439 5.92831 17.8363 5.98927 17.7396C6.05023 17.643 6.12974 17.5593 6.22323 17.4933C6.31673 17.4273 6.42238 17.3802 6.53414 17.3549C11.8679 16.1417 16.4429 16.664 20.1338 18.9096C20.2317 18.9692 20.3168 19.0473 20.3843 19.1396C20.4518 19.2319 20.5004 19.3366 20.5272 19.4476C20.5541 19.5586 20.5587 19.6738 20.5408 19.7866C20.5229 19.8993 20.4829 20.0075 20.423 20.1049M22.1368 16.3093C21.8206 16.8207 21.1486 16.9822 20.6351 16.6675C16.8717 14.3645 11.1343 13.6974 6.68268 15.0428C6.40557 15.1263 6.10653 15.0969 5.85114 14.9611C5.59576 14.8254 5.40488 14.5943 5.32037 14.3187C5.23684 14.0428 5.26655 13.7453 5.40299 13.4912C5.53944 13.2372 5.77148 13.0473 6.04828 12.9633C11.1335 11.4271 17.4551 12.1713 21.7772 14.8153C22.2905 15.13 22.4527 15.7992 22.1367 16.3095M22.2836 12.3571C17.7715 9.68835 10.3257 9.443 6.01717 10.745C5.32529 10.954 4.59369 10.5651 4.38416 9.8763C4.28336 9.5454 4.31867 9.18819 4.48232 8.8832C4.64598 8.57821 4.9246 8.3504 5.25691 8.24985C10.2029 6.755 18.425 7.04375 23.6206 10.1145C23.7687 10.2017 23.898 10.3171 24.0013 10.4541C24.1045 10.5912 24.1795 10.7472 24.222 10.9131C24.2646 11.0791 24.2738 11.2518 24.2492 11.4213C24.2246 11.5908 24.1667 11.7539 24.0787 11.9011C23.711 12.5206 22.905 12.7248 22.2847 12.3569L22.2836 12.3571ZM38.0941 12.8685C35.6764 12.2944 35.2468 11.8918 35.2468 11.0453C35.2468 10.2456 36.0025 9.70743 37.1276 9.70743C38.2178 9.70743 39.298 10.1162 40.4316 10.9575C40.465 10.9828 40.5084 10.993 40.5503 10.9863C40.5713 10.9832 40.5914 10.9759 40.6096 10.9649C40.6277 10.9539 40.6434 10.9393 40.6557 10.9221L41.8361 9.26555C41.8594 9.23272 41.8693 9.19227 41.8637 9.15244C41.8582 9.1126 41.8375 9.07639 41.8061 9.05118C40.4568 7.9737 38.9385 7.44993 37.1628 7.44993C34.5528 7.44993 32.7287 9.00935 32.7287 11.2408C32.7287 13.6336 34.302 14.4809 37.0208 15.1349C39.3332 15.6653 39.7243 16.1096 39.7243 16.9041C39.7243 17.7847 38.935 18.3323 37.6645 18.3323C36.2533 18.3323 35.1012 17.8581 33.8138 16.7493C33.7817 16.7223 33.7404 16.7086 33.6985 16.7111C33.6776 16.7126 33.6573 16.7182 33.6386 16.7276C33.6199 16.737 33.6033 16.75 33.5897 16.7659L32.2655 18.3339C32.2389 18.3653 32.2257 18.4058 32.2285 18.4468C32.2313 18.4878 32.25 18.5261 32.2806 18.5537C33.7787 19.8854 35.6212 20.5879 37.6109 20.5879C40.4234 20.5879 42.2408 19.058 42.2408 16.6894C42.2457 14.6907 41.0437 13.5838 38.0992 12.8707L38.0941 12.8685ZM48.6044 10.4948C47.3855 10.4948 46.3857 10.9729 45.5597 11.9525V10.85C45.5597 10.7629 45.4894 10.692 45.4025 10.692H43.2373C43.1954 10.6923 43.1554 10.709 43.126 10.7386C43.0965 10.7682 43.08 10.8082 43.0801 10.8498V23.1014C43.0801 23.1879 43.1504 23.2594 43.2373 23.2594H45.4025C45.4444 23.2591 45.4845 23.2424 45.5139 23.2127C45.5434 23.1831 45.5598 23.1431 45.5597 23.1014V19.2344C46.3857 20.1549 47.3855 20.6061 48.6042 20.6061C50.87 20.6061 53.164 18.8701 53.164 15.551C53.1673 12.2313 50.8732 10.4946 48.606 10.4946L48.6044 10.4948ZM50.6459 15.551C50.6459 17.2403 49.6009 18.4205 48.1027 18.4205C46.623 18.4205 45.5061 17.1871 45.5061 15.551C45.5061 13.9148 46.623 12.6816 48.1027 12.6816C49.5758 12.6816 50.6459 13.888 50.6459 15.551ZM59.0411 10.4946C56.1234 10.4946 53.8378 12.7311 53.8378 15.5871C53.8378 18.4121 56.1083 20.6243 59.0059 20.6243C61.9335 20.6243 64.2259 18.3955 64.2259 15.5509C64.2259 12.7159 61.9487 10.4951 59.0411 10.4951V10.4946ZM59.0411 18.437C57.4894 18.437 56.3191 17.1952 56.3191 15.55C56.3191 13.8973 57.4494 12.6978 59.0059 12.6978C60.5675 12.6978 61.7446 13.9391 61.7446 15.586C61.7446 17.2386 60.6076 18.437 59.0411 18.437ZM70.4558 10.6918H68.0732V8.267C68.0732 8.18003 68.0029 8.10915 67.9161 8.10915H65.751C65.7089 8.10924 65.6686 8.12589 65.6388 8.15546C65.6091 8.18504 65.5923 8.22513 65.5921 8.267V10.6916H64.5521C64.5103 10.6919 64.4703 10.7087 64.4408 10.7382C64.4114 10.7678 64.3949 10.8078 64.395 10.8495V12.7017C64.3949 12.7434 64.4113 12.7834 64.4408 12.813C64.4702 12.8426 64.5103 12.8594 64.5521 12.8597H65.5921V17.653C65.5921 19.5888 66.5603 20.5709 68.4714 20.5709C69.2471 20.5709 69.8908 20.411 70.4978 20.0681C70.5223 20.0547 70.5427 20.035 70.5569 20.0109C70.571 19.9869 70.5784 19.9595 70.5781 19.9316V18.1671C70.5779 18.1404 70.5709 18.1142 70.5578 18.0909C70.5446 18.0677 70.5257 18.0481 70.5029 18.0341C70.4801 18.0195 70.4539 18.0112 70.4268 18.01C70.3997 18.0088 70.3729 18.0147 70.3489 18.0273C69.9326 18.2355 69.5297 18.332 69.0782 18.332C68.3844 18.332 68.0734 18.0173 68.0734 17.3149V12.8608H70.4559C70.4978 12.8605 70.5379 12.8437 70.5673 12.8141C70.5968 12.7844 70.6132 12.7444 70.6131 12.7027V10.8505C70.6138 10.8299 70.6103 10.8093 70.6028 10.79C70.5953 10.7707 70.5839 10.7532 70.5694 10.7384C70.5549 10.7236 70.5375 10.7119 70.5183 10.704C70.4991 10.6962 70.4785 10.6922 70.4577 10.6925L70.4558 10.6918ZM78.7556 10.7013V10.4034C78.7556 9.52735 79.0933 9.13675 79.849 9.13675C80.3007 9.13675 80.6634 9.226 81.0698 9.36075C81.0936 9.36871 81.1189 9.37088 81.1438 9.36709C81.1686 9.3633 81.1921 9.35366 81.2124 9.33896C81.2327 9.32426 81.2492 9.30494 81.2605 9.28261C81.2717 9.26028 81.2775 9.23559 81.2772 9.2106L81.277 7.39463C81.2775 7.36069 81.2668 7.32755 81.2466 7.30022C81.2264 7.2729 81.1977 7.25289 81.1651 7.24325C80.737 7.1162 80.1886 6.986 79.3659 6.986C77.3678 6.986 76.3095 8.10688 76.3095 10.2263V10.6824H75.2695C75.2275 10.6824 75.1872 10.6991 75.1574 10.7287C75.1276 10.7582 75.1108 10.7983 75.1106 10.8402V12.7019C75.1106 12.7888 75.1827 12.8599 75.2695 12.8599H76.3095V20.2514C76.3095 20.3396 76.3815 20.4096 76.4684 20.4096H78.6319C78.7205 20.4096 78.7908 20.3396 78.7908 20.2514V12.8602H80.8123L83.9088 20.2512C83.5576 21.027 83.2115 21.1817 82.7399 21.1817C82.3588 21.1817 81.9559 21.0686 81.5463 20.8439C81.5075 20.8243 81.4626 20.8202 81.4208 20.8322C81.4002 20.8391 81.3812 20.8503 81.3651 20.8649C81.3489 20.8795 81.336 20.8972 81.3271 20.9171L80.5932 22.5201C80.5763 22.5565 80.574 22.5979 80.5868 22.636C80.5995 22.674 80.6263 22.7058 80.6618 22.7248C81.4275 23.1376 82.118 23.314 82.9724 23.314C84.5708 23.314 85.4554 22.5717 86.2328 20.5776L89.9882 10.9169C89.998 10.893 90.0016 10.867 89.9987 10.8414C89.9958 10.8158 89.9864 10.7913 89.9715 10.7702C89.9574 10.7491 89.9382 10.7318 89.9157 10.7198C89.8933 10.7078 89.8682 10.7016 89.8427 10.7016H87.5888C87.5558 10.7014 87.5235 10.7115 87.4965 10.7305C87.4695 10.7495 87.4492 10.7764 87.4383 10.8075L85.1293 17.3716L82.6012 10.8031C82.5898 10.7734 82.5697 10.7478 82.5434 10.7296C82.5172 10.7115 82.486 10.7017 82.4541 10.7016H78.7556V10.7013ZM73.9436 10.6918H71.7783C71.7363 10.692 71.6961 10.7087 71.6664 10.7382C71.6366 10.7678 71.6198 10.8078 71.6196 10.8497V20.2514C71.6196 20.3396 71.6915 20.4096 71.7783 20.4096H73.9436C74.0306 20.4096 74.1025 20.3396 74.1025 20.2514V10.8504C74.1026 10.8296 74.0985 10.809 74.0906 10.7898C74.0826 10.7705 74.0709 10.7531 74.0561 10.7384C74.0414 10.7237 74.0238 10.7121 74.0045 10.7042C73.9852 10.6963 73.9645 10.6922 73.9436 10.6923V10.6918ZM72.8735 6.4106C72.0156 6.4106 71.3203 7.10185 71.3203 7.9555C71.3202 8.15857 71.3604 8.35965 71.4384 8.54727C71.5165 8.73489 71.6309 8.90536 71.7751 9.04895C71.9194 9.19254 72.0906 9.30644 72.279 9.38414C72.4675 9.46184 72.6695 9.50182 72.8735 9.5018C73.7313 9.5018 74.4251 8.80985 74.4251 7.9555C74.425 7.54583 74.2615 7.15296 73.9705 6.86326C73.6796 6.57356 73.285 6.41074 72.8735 6.4106Z" fill="white"/>
</g>
<defs>
<clipPath id="clip0_4640_13621">
<rect width="90" height="28" fill="white"/>
</clipPath>
</defs>
</svg>
