<svg width="68" height="20" viewBox="0 0 68 20" fill="none" xmlns="http://www.w3.org/2000/svg">
<path d="M56.4548 4.43233C53.6253 4.43233 52.3358 5.82887 52.3358 5.82887V4.72634H45.7741V14.4654C45.7741 14.4654 45.0307 14.7814 44.5224 14.6491C44.0142 14.5168 44.0142 13.8186 44.0142 13.8186V4.72634H37.4753V6.03468C37.4753 6.03468 36.3526 4.87335 35.0251 4.62344C33.0224 4.25593 30.4357 4.49848 28.3117 7.03431C26.1877 9.57013 26.8097 13.3922 26.8097 13.3922C26.8097 13.3922 25.0422 14.436 23.6465 14.436C22.2583 14.436 22.3341 13.2452 22.3341 13.2452V9.55543H26.658V4.72634H22.2583V1.10268H15.7573V11.4077C15.7573 11.4077 15.4083 9.32023 10.4093 7.82078C7.95155 7.08576 6.25993 6.87995 6.55577 5.83622C6.79852 4.97625 8.26257 5.04975 8.26257 5.04975C11.2438 5.04975 14.2401 6.99021 14.2401 6.99021V1.15414C14.2401 1.15414 13.8229 0.97038 13.1174 0.735173C11.0238 0.0663037 6.23717 -0.903925 2.1788 1.7789C0.236845 3.3886 -0.180371 5.64512 0.0623732 7.45327C0.206502 8.3794 0.540275 9.18057 0.987834 9.70244C2.4443 11.3709 5.72893 12.0766 7.26125 12.4C8.79357 12.716 9.59766 13.0835 9.59766 13.8553C9.59766 14.6271 8.60392 15.1416 6.29786 14.7888C3.99938 14.4286 1.79951 12.9365 1.79951 12.9365L0.206502 18.2801C0.206502 18.2801 3.9842 20.4485 9.51421 19.8457C15.0366 19.243 15.8711 15.2151 15.8711 15.2151C15.8938 14.8255 15.6056 19.5003 20.8246 19.956C25.467 20.3603 28.7365 17.8465 28.7365 17.8465C28.7365 17.8465 30.155 19.9413 33.5383 19.9413C36.9291 19.9413 37.9911 17.8979 37.9911 17.8979C37.9911 17.8979 38.4463 19.9413 41.9585 19.9413C45.1824 19.9413 45.7741 19.4268 45.7741 19.4268V19.6473H52.3206V10.7315C52.3206 10.7315 53.3371 9.95234 54.5811 10.3787C55.5749 10.7241 55.5521 11.9884 55.5521 11.9884V19.6473H62V10.0479C62 10.0479 61.871 8.2471 61.1504 6.97551C60.4297 5.70392 59.2843 4.43233 56.4548 4.43233ZM37.498 13.9141C37.498 13.9141 36.8532 14.5021 35.4878 14.5021C34.1224 14.5021 33.3259 13.5246 33.3259 12.2456C33.3259 10.974 34.1224 9.90824 35.4878 9.90824C36.8532 9.90824 37.498 10.4963 37.498 10.4963V13.9141Z" fill="white"/>
<path d="M64.8951 14C62.3318 14 62.0002 16.1465 62.0002 17.1944C62.0002 18.2085 62.4692 20 64.9598 20C67.4504 20 68.0002 18.2761 68.0002 17.0507C67.9922 15.8169 67.4504 14 64.8951 14Z" fill="white"/>
</svg>
