<svg width="78" height="23" viewBox="0 0 78 23" fill="none" xmlns="http://www.w3.org/2000/svg">
<g clip-path="url(#clip0_4363_30287)">
<path d="M68.5423 10.5575V4.93555H72.3312V10.5575H77.9994V14.3054H72.3312V19.9123H68.5423V14.3054H62.8589V10.5575H68.5423Z" fill="white"/>
<path d="M51.6306 6.46699H54.0136C55.4482 6.46699 56.3661 7.23303 56.3661 8.57045C56.3661 10.0272 55.4482 10.9753 54.0136 10.9753H51.6306V6.46699ZM55.7339 13.9076C58.202 13.5811 60.2384 11.3897 60.2384 8.60185C60.2384 4.98514 57.8555 3.00098 54.0136 3.00098H47.813V21.2038H51.6306V13.9076L56.3661 21.1975H60.7855L55.7339 13.9076Z" fill="white"/>
<path d="M24.8808 6.58678V3.00146H13.2578V6.58678H17.1301V21.198H21.0085V6.58678H24.8808Z" fill="white"/>
<path d="M6.08507 9.70107C4.93614 9.16735 4.50453 8.57712 4.50453 7.80481C4.50453 6.91319 5.22185 6.17226 6.37078 6.20366C7.37381 6.22878 8.15192 6.79389 8.69903 8.13131L11.9999 6.61807C11.082 4.1881 9.21574 2.76904 6.20665 2.76904C3.02126 2.76904 0.668689 4.9353 0.668689 7.8362C0.668689 9.82037 1.61701 11.3901 3.85408 12.5517L6.32215 13.8264C7.696 14.5422 8.35861 15.0696 8.35861 16.1057C8.35861 17.2296 7.47107 18.0333 6.32215 18.0333C5.08811 18.0333 3.96958 17.3175 3.45286 15.7226L0 16.7587C0.802426 19.7538 3.18539 21.5056 6.28567 21.5056C9.64127 21.5056 12.2248 19.2828 12.2248 16.0805C12.2248 13.6192 10.9361 11.9866 8.46195 10.8376L6.08507 9.70107Z" fill="white"/>
<path d="M46.7778 8.77805H37.8356L35.0697 0L32.3038 8.77805H23.3616L30.5348 14.2157C30.5348 14.2157 34.0424 11.8296 38.2916 10.9317C32.0241 15.7101 28.6199 20.4507 28.6199 20.4507L27.8357 23L35.0697 17.5749L42.3037 23L39.5438 14.2157L46.7778 8.77805Z" fill="white"/>
</g>
<defs>
<clipPath id="clip0_4363_30287">
<rect width="78" height="23" fill="white"/>
</clipPath>
</defs>
</svg>
