<svg width="72" height="48" viewBox="0 0 72 48" fill="none" xmlns="http://www.w3.org/2000/svg">
<path d="M63.1597 18.6264H59.432V35.2837C59.432 35.5805 59.6702 35.8211 59.9645 35.8211H63.1597C63.4538 35.8211 63.6923 35.5807 63.6923 35.2837V19.1637C63.6923 18.867 63.4541 18.6264 63.1597 18.6264ZM48.7811 31.5224C46.4282 31.5224 44.5207 29.5978 44.5207 27.2237C44.5207 24.8497 46.4282 22.9251 48.7811 22.9251C51.134 22.9251 53.0414 24.8497 53.0414 27.2237C53.0414 29.5978 51.134 31.5224 48.7811 31.5224ZM48.7811 18.6264C47.5303 18.6264 46.3428 18.8984 45.2728 19.387C45.204 19.4173 45.1289 19.4345 45.0531 19.4345C44.759 19.4345 44.5205 19.1941 44.5205 18.8972V12.7156C44.5205 12.4189 44.2823 12.1782 43.988 12.1782H40.2602V27.2236C40.2602 31.9717 44.0749 35.8209 48.7809 35.8209C53.4868 35.8209 57.3016 31.9717 57.3016 27.2236C57.3016 22.4754 53.4871 18.6264 48.7811 18.6264ZM20.8144 34.19L19.2115 31.3861C19.0759 31.1492 18.7843 31.0536 18.5357 31.1632C18.013 31.3941 17.4356 31.5223 16.8283 31.5223C14.4754 31.5223 12.568 29.5977 12.568 27.2236V23.4623C12.568 23.1656 12.8063 22.9249 13.1005 22.9249H18.4259C18.7201 22.9249 18.9585 22.6845 18.9585 22.3876V19.1637C18.9585 18.867 18.7203 18.6263 18.4259 18.6263H13.1005C12.8064 18.6263 12.568 18.3859 12.568 18.0889V12.7155C12.568 12.4188 12.3293 12.1783 12.0354 12.1783H8.30768V27.2236C8.30768 31.9718 12.1225 35.8209 16.8283 35.8209C18.1781 35.8209 19.4544 35.5043 20.5886 34.9407C20.8524 34.8094 20.9612 34.4874 20.8308 34.2211C20.8264 34.2125 20.8231 34.1986 20.8144 34.19ZM37.5965 18.6271H33.8687V27.2244C33.8687 29.5985 31.9613 31.5231 29.6084 31.5231C27.2555 31.5231 25.348 29.5985 25.348 27.2244V19.1644C25.348 18.8677 25.1098 18.6271 24.8155 18.6271H21.0877V27.2244C21.0877 31.9726 24.9026 35.8218 29.6084 35.8218C34.3142 35.8218 38.129 31.9726 38.129 27.2244V19.1644C38.129 18.8677 37.8908 18.6271 37.5965 18.6271ZM61.5609 12.1791C60.3844 12.1791 59.4307 13.1413 59.4307 14.3284C59.4307 15.5155 60.3844 16.4778 61.5609 16.4778C62.7374 16.4778 63.6911 15.5155 63.6911 14.3284C63.6911 13.1413 62.7374 12.1791 61.5609 12.1791Z" fill="white"/>
</svg>
