<svg width="378" height="69" viewBox="0 0 378 69" fill="none" xmlns="http://www.w3.org/2000/svg">
<path d="M51.6427 39.4441C51.6427 52.1201 41.3667 62.3961 28.6907 62.3961C16.0147 62.3961 5.73867 52.1201 5.73867 39.4441V12.2574C5.73867 11.0681 6.64267 10.0908 7.8 9.97344L49.1147 5.84143C49.192 5.83477 49.2693 5.83077 49.348 5.83077C50.6147 5.83077 51.6427 6.85877 51.6427 8.12544V39.4441ZM50.496 0.000105786C50.264 0.000105786 50.036 0.012102 49.8107 0.0347687C49.8107 0.0347687 6.2 4.39477 6.2 4.3961C2.72 4.7401 0 7.6761 0 11.2468V39.4441C0 55.2894 12.8453 68.1348 28.6907 68.1348C44.536 68.1348 57.3813 55.2894 57.3813 39.4441V6.88677C57.3813 3.08277 54.2987 0.000105786 50.496 0.000105786ZM40.74 14.4374C40.6627 14.4374 40.5853 14.4414 40.5093 14.4494L16.4147 16.8588C15.2533 16.9721 14.3453 17.9508 14.3453 19.1428V39.4441C14.3453 47.3668 20.768 53.7894 28.6907 53.7894C36.6133 53.7894 43.036 47.3668 43.036 39.4441V16.7321C43.036 15.4654 42.008 14.4374 40.74 14.4374Z" fill="white"/>
<path d="M220.386 3.09724H211.536C210.722 3.09724 210.062 3.75724 210.062 4.57191V42.5252L192.458 4.79857C191.972 3.76257 190.93 3.09724 189.786 3.09724H180.567C178.938 3.09724 177.618 4.41857 177.618 6.04657V63.5626C177.618 64.3746 178.279 65.0386 179.092 65.0386H187.94C188.756 65.0386 189.415 64.3746 189.415 63.5626V25.6079L207.022 63.3359C207.507 64.3732 208.547 65.0386 209.694 65.0386H218.911C220.539 65.0386 221.86 63.7159 221.86 62.0879V4.57191C221.86 3.75724 221.2 3.09724 220.386 3.09724Z" fill="white"/>
<path d="M271.519 3.09724H237.599C236.377 3.09724 235.385 4.08791 235.385 5.30924V62.8252C235.385 64.0466 236.377 65.0386 237.599 65.0386H271.519C272.332 65.0386 272.992 64.3772 272.992 63.5626V55.4519C272.992 54.6372 272.332 53.9772 271.519 53.9772H248.659V14.1586H271.519C272.332 14.1586 272.992 13.4986 272.992 12.6826V4.57191C272.992 3.75857 272.332 3.09724 271.519 3.09724Z" fill="white"/>
<path d="M163.101 28.1682H147.616C146.802 28.1682 146.141 28.8282 146.141 29.6428V37.7535C146.141 38.5682 146.802 39.2295 147.616 39.2295H163.101C163.914 39.2295 164.576 38.5682 164.576 37.7535V29.6428C164.576 28.8282 163.914 28.1682 163.101 28.1682Z" fill="white"/>
<path d="M131.625 3.09706H121.301C120.487 3.09706 119.827 3.75706 119.827 4.57173V44.3904C119.827 50.7437 116.843 53.9771 110.979 53.9771C105.115 53.9771 102.129 50.7437 102.129 44.3904V4.57173C102.129 3.75706 101.468 3.09706 100.655 3.09706H90.3321C89.5188 3.09706 88.8574 3.75706 88.8574 4.57173V44.3904C88.8574 59.0517 96.3174 66.5117 110.979 66.5117C125.64 66.5117 133.1 59.0517 133.1 44.3904V4.57173C133.1 3.75706 132.441 3.09706 131.625 3.09706Z" fill="white"/>
<path d="M376.478 3.09724H338.134C337.319 3.09724 336.659 3.75857 336.659 4.57191V12.6826C336.659 13.4986 337.319 14.1586 338.134 14.1586H350.67V63.5626C350.67 64.3772 351.33 65.0386 352.145 65.0386H362.467C363.283 65.0386 363.943 64.3772 363.943 63.5626V14.1586H376.478C377.293 14.1586 377.952 13.4986 377.952 12.6826V4.57191C377.952 3.75857 377.293 3.09724 376.478 3.09724Z" fill="white"/>
<path d="M253.821 28.1682C253.007 28.1682 252.347 28.8295 252.347 29.6428V37.7535C252.347 38.5695 253.007 39.2295 253.821 39.2295H269.306C270.121 39.2295 270.781 38.5695 270.781 37.7535V29.6428C270.781 28.8295 270.121 28.1682 269.306 28.1682H253.821Z" fill="white"/>
<path d="M328.793 3.09724H317.911C317.052 3.09724 316.271 3.59458 315.907 4.37458L307.284 22.8479L298.663 4.37458C298.301 3.59458 297.517 3.09724 296.659 3.09724H285.776C284.663 3.09724 283.953 4.28391 284.477 5.26657L299.837 34.0679L284.477 62.8692C283.953 63.8519 284.663 65.0386 285.776 65.0386H296.659C297.517 65.0386 298.301 64.5412 298.663 63.7599L307.284 45.2852L315.907 63.7599C316.271 64.5412 317.052 65.0386 317.911 65.0386H328.793C329.907 65.0386 330.619 63.8519 330.093 62.8692L314.732 34.0679L330.093 5.26657C330.619 4.28391 329.907 3.09724 328.793 3.09724Z" fill="white"/>
</svg>
