<svg width="42" height="32" viewBox="0 0 42 32" fill="none" xmlns="http://www.w3.org/2000/svg">
<path fill-rule="evenodd" clip-rule="evenodd" d="M33.723 11.3203H9.29858L11.2451 13.3548L33.723 11.3203Z" fill="white"/>
<path fill-rule="evenodd" clip-rule="evenodd" d="M9.90898 8.17206C9.06027 8.17206 8.43897 7.34501 8.43897 6.30003C8.43897 5.2564 9.06027 4.428 9.90898 4.428C10.7577 4.428 11.3587 5.25505 11.3587 6.30003C11.3573 7.34501 10.759 8.17206 9.90898 8.17206ZM11.3357 3.0013V3.29368C10.8795 3.00536 10.4707 2.83887 9.91033 2.83887C8.18855 2.83887 6.88232 4.3928 6.88232 6.30003C6.88232 8.20726 8.1899 9.75984 9.91033 9.75984C10.4707 9.75984 10.8795 9.59335 11.3357 9.30503V9.59741H12.849V2.99859H11.3357V3.0013Z" fill="white"/>
<path fill-rule="evenodd" clip-rule="evenodd" d="M23.4546 3.00087V6.87623C23.4546 7.60312 22.9497 8.21765 22.2147 8.21765C21.481 8.21765 20.9748 7.60312 20.9748 6.87623V3.00087H19.4614V6.87623C19.4614 8.46672 20.5606 9.76076 22.1686 9.76076C22.9118 9.76076 23.4546 9.35333 23.4546 9.35333V9.59833H24.9679V2.99951H23.4546V3.00087Z" fill="white"/>
<path fill-rule="evenodd" clip-rule="evenodd" d="M37.554 9.59876V5.7234C37.554 4.99651 38.0589 4.38197 38.7939 4.38197C39.5275 4.38197 40.0338 4.99651 40.0338 5.7234V9.59876H41.5458V5.7234C41.5458 4.13291 40.4466 2.83887 38.8386 2.83887C38.0954 2.83887 37.5526 3.2463 37.5526 3.2463V3.00265H36.0393V9.60012L37.554 9.59876Z" fill="white"/>
<path fill-rule="evenodd" clip-rule="evenodd" d="M2.51986 2.92267H3.55266C4.2633 2.92267 4.844 3.49525 4.844 4.19912C4.844 4.9057 4.2633 5.47828 3.55266 5.47828H2.51986V2.92267ZM2.51986 9.59865V7.04304H3.63929L5.5763 9.59865H7.55797L5.21624 6.51514C5.94583 5.99671 6.42501 5.15341 6.42501 4.19912C6.42501 2.6303 5.13773 1.35791 3.55266 1.35791H0.9375V9.6L2.51986 9.59865Z" fill="white"/>
<path fill-rule="evenodd" clip-rule="evenodd" d="M29.0464 8.03783C28.9111 8.12853 28.7392 8.20026 28.5416 8.20026C28.2952 8.20026 27.8282 8.01347 27.8282 7.39081V4.56584H29.1222V3.00107H27.8282V1.35645H26.3149V3.00107H25.5149V4.56584H26.3149V7.41247C26.3149 8.88519 27.4357 9.76503 28.5646 9.76503C28.9855 9.76503 29.5689 9.62832 30.0441 9.34948L29.0464 8.03783Z" fill="white"/>
<path fill-rule="evenodd" clip-rule="evenodd" d="M17.5004 9.59874H19.6201L16.6097 6.09426L19.2046 3.00128H17.0835L15.2697 5.2997V0.8125H13.7117V9.59874H15.2697V6.88747L17.5004 9.59874Z" fill="white"/>
<path fill-rule="evenodd" clip-rule="evenodd" d="M33.8627 5.44866H31.1378C31.4559 3.9042 33.5676 3.81486 33.8627 5.44866ZM32.5402 2.8335C30.7886 2.8335 29.5325 4.3563 29.5325 6.30008C29.5325 8.34266 31.1094 9.76665 32.6904 9.76665C33.4891 9.76665 34.511 9.49593 35.3706 8.28987L34.0332 7.52644C33.0004 9.033 31.2773 8.26822 31.0783 6.7603L35.4355 6.76165C35.8105 4.39285 34.2633 2.8335 32.5402 2.8335Z" fill="white"/>
<path fill-rule="evenodd" clip-rule="evenodd" d="M11.011 16.7974H15.2952L9.8415 31.4826H6.45479L0.9375 16.7974H5.24331L8.14815 26.4147L11.011 16.7974Z" fill="white"/>
<path fill-rule="evenodd" clip-rule="evenodd" d="M20.7379 31.4826V16.7974H16.6636V31.4826H20.7379Z" fill="white"/>
<path fill-rule="evenodd" clip-rule="evenodd" d="M28.2531 26.0831L27.1255 27.2418V31.4826H23.0498V16.7974H27.1255V22.3823L31.6398 16.7974H36.238L30.8439 23.3732L36.6129 31.4826H31.9308L28.2531 26.0831Z" fill="white"/>
<path fill-rule="evenodd" clip-rule="evenodd" d="M41.5454 31.4826V16.7974H37.4697V31.4826H41.5454Z" fill="white"/>
</svg>
