<?xml version="1.0" encoding="UTF-8"?>
<svg xmlns="http://www.w3.org/2000/svg" xmlns:xlink="http://www.w3.org/1999/xlink" width="61px" height="23px" viewBox="0 0 61 23" version="1.1">
<g id="surface1">
<path style=" stroke:none;fill-rule:nonzero;fill:rgb(96.078432%,72.549021%,9.803922%);fill-opacity:1;" d="M 16.242188 12.734375 C 16.242188 11.617188 15.609375 10.644531 14.683594 10.15625 L 7.191406 6.753906 C 7.140625 6.726562 7.085938 6.710938 7.023438 6.710938 C 6.828125 6.710938 6.667969 6.871094 6.667969 7.066406 L 6.667969 9.0625 C 6.667969 9.328125 6.828125 9.558594 7.054688 9.664062 L 13.148438 12.195312 C 13.359375 12.285156 13.507812 12.492188 13.507812 12.734375 L 13.507812 12.738281 C 13.507812 12.980469 13.359375 13.1875 13.148438 13.277344 L 7.054688 15.808594 C 6.828125 15.914062 6.667969 16.144531 6.667969 16.410156 L 6.667969 18.40625 C 6.667969 18.601562 6.828125 18.757812 7.023438 18.757812 C 7.085938 18.757812 7.140625 18.746094 7.191406 18.71875 L 14.683594 15.316406 C 15.609375 14.828125 16.242188 13.855469 16.242188 12.738281 Z M 16.242188 12.734375 "/>
<path style=" stroke:none;fill-rule:nonzero;fill:rgb(96.078432%,72.549021%,9.803922%);fill-opacity:1;" d="M 20.636719 12.738281 C 20.636719 18.4375 16.019531 23.058594 10.320312 23.058594 C 4.621094 23.058594 0 18.4375 0 12.738281 C 0 7.035156 4.621094 2.414062 10.320312 2.414062 C 16.019531 2.414062 20.636719 7.035156 20.636719 12.738281 M 10.320312 4.183594 C 5.550781 4.183594 1.6875 8.011719 1.6875 12.738281 C 1.6875 17.457031 5.550781 21.289062 10.320312 21.289062 C 15.085938 21.289062 18.949219 17.457031 18.949219 12.738281 C 18.949219 8.011719 15.085938 4.183594 10.320312 4.183594 "/>
<path style=" stroke:none;fill-rule:nonzero;fill:#FFFFFF;fill-opacity:1;" d="M 42.246094 18.753906 C 42.003906 18.753906 41.804688 18.554688 41.804688 18.308594 L 41.804688 7.164062 C 41.804688 6.917969 42.003906 6.71875 42.246094 6.71875 L 44.785156 6.71875 C 45.03125 6.71875 45.230469 6.917969 45.230469 7.164062 L 45.230469 18.308594 C 45.230469 18.554688 45.03125 18.753906 44.785156 18.753906 Z M 42.246094 18.753906 "/>
<path style=" stroke:none;fill-rule:nonzero;fill:#FFFFFF;fill-opacity:1;" d="M 31.636719 18.753906 C 33.042969 18.753906 34.265625 17.957031 34.875 16.792969 L 39.152344 7.371094 C 39.183594 7.3125 39.203125 7.238281 39.203125 7.164062 C 39.203125 6.917969 39.003906 6.71875 38.757812 6.71875 L 36.25 6.71875 C 35.917969 6.71875 35.628906 6.917969 35.496094 7.203125 L 32.316406 14.863281 C 32.203125 15.128906 31.941406 15.3125 31.636719 15.3125 C 31.332031 15.3125 31.070312 15.128906 30.957031 14.863281 L 27.777344 7.203125 C 27.644531 6.917969 27.355469 6.71875 27.023438 6.71875 L 24.515625 6.71875 C 24.269531 6.71875 24.070312 6.917969 24.070312 7.164062 C 24.070312 7.238281 24.089844 7.3125 24.121094 7.371094 L 28.398438 16.792969 C 29.007812 17.957031 30.230469 18.753906 31.636719 18.753906 Z M 31.636719 18.753906 "/>
<path style=" stroke:none;fill-rule:nonzero;fill:#FFFFFF;fill-opacity:1;" d="M 45.570312 2.054688 C 45.570312 3.191406 44.652344 4.113281 43.515625 4.113281 C 42.382812 4.113281 41.460938 3.191406 41.460938 2.054688 C 41.460938 0.921875 42.382812 0 43.515625 0 C 44.652344 0 45.570312 0.921875 45.570312 2.054688 "/>
<path style=" stroke:none;fill-rule:nonzero;fill:#FFFFFF;fill-opacity:1;" d="M 54.675781 18.753906 C 58.316406 18.753906 61.054688 16.460938 61.054688 13.636719 L 61.054688 7.164062 C 61.054688 6.917969 60.855469 6.71875 60.609375 6.71875 L 58.070312 6.71875 C 57.824219 6.71875 57.628906 6.917969 57.628906 7.164062 L 57.625 13.035156 C 57.625 14.296875 56.304688 15.320312 54.675781 15.320312 C 53.050781 15.320312 51.730469 14.296875 51.730469 13.035156 L 51.726562 7.164062 C 51.726562 6.917969 51.527344 6.71875 51.28125 6.71875 L 48.742188 6.71875 C 48.496094 6.71875 48.296875 6.917969 48.296875 7.164062 L 48.296875 13.636719 C 48.296875 16.460938 51.039062 18.753906 54.675781 18.753906 "/>
</g>
</svg>
