<svg width="1000" height="238" viewBox="0 0 1000 238" fill="none" xmlns="http://www.w3.org/2000/svg">
<g clip-path="url(#clip0_4654_7014)">
<path fill-rule="evenodd" clip-rule="evenodd" d="M735.278 71.6555C707.654 71.6555 697.143 81.3577 697.143 107.23V130.407C697.143 156.28 707.654 165.982 735.278 165.982H777.321C804.945 165.982 815.455 156.28 815.455 130.407V107.23C815.455 81.3577 804.945 71.6555 777.321 71.6555H735.278ZM721.668 109.117C721.668 96.8542 724.498 93.8896 736.221 93.8896H776.377C788.101 93.8896 790.93 96.8542 790.93 109.117V128.521C790.93 140.783 788.101 143.883 776.377 143.883H736.221C724.498 143.883 721.668 140.783 721.668 128.521V109.117Z" fill="white"/>
<path fill-rule="evenodd" clip-rule="evenodd" d="M524.442 71.6563V130.408C524.442 156.28 534.953 165.981 562.577 165.981H603.5V151.973C603.5 149.648 602.577 147.419 600.933 145.776C599.289 144.132 597.06 143.209 594.736 143.209H563.521C551.797 143.209 548.967 140.109 548.967 127.982V80.1624C548.967 79.0454 548.747 77.9393 548.32 76.9072C547.892 75.8752 547.266 74.9375 546.476 74.1476C545.686 73.3578 544.748 72.7312 543.716 72.3037C542.684 71.8763 541.578 71.6562 540.461 71.6563H524.442Z" fill="white"/>
<path fill-rule="evenodd" clip-rule="evenodd" d="M611.395 71.6562V130.408C611.395 156.28 621.905 165.981 649.529 165.981H690.453V151.973C690.453 149.648 689.529 147.419 687.886 145.776C686.242 144.132 684.013 143.209 681.688 143.209H650.473C638.75 143.209 635.92 140.109 635.92 127.982V80.1624C635.92 77.9064 635.024 75.7429 633.429 74.1477C631.833 72.5524 629.67 71.6563 627.414 71.6562H611.395Z" fill="white"/>
<path fill-rule="evenodd" clip-rule="evenodd" d="M487.693 71.6562V165.982H512.327L512.295 71.6562H487.693Z" fill="white"/>
<path fill-rule="evenodd" clip-rule="evenodd" d="M308.998 71.6562L333.107 153.989C335.937 163.826 339.036 165.982 345.908 165.982H364.234C370.163 165.982 372.994 163.557 375.958 153.989L394.014 95.2374C394.149 94.5637 394.419 94.2936 394.958 94.2936H395.497C396.036 94.2936 396.171 94.5637 396.306 95.2374L414.093 153.989C416.922 163.557 419.887 165.982 425.816 165.982H444.682C450.341 165.982 453.575 163.557 456.54 153.989L481.917 71.6562H463.252C461.124 71.6563 459.054 72.3564 457.364 73.6488C455.673 74.9411 454.454 76.7539 453.895 78.8075L436.596 142.4C436.327 143.074 435.923 143.344 435.519 143.344H434.845C434.441 143.344 434.036 143.074 433.766 142.4L414.766 80.5492C412.745 73.9463 409.376 71.6562 402.638 71.6562H386.737C381.213 71.6562 377.441 73.5421 375.419 80.5492L356.959 142.4C356.689 143.074 356.284 143.344 356.015 143.344H355.341C354.802 143.344 354.532 143.074 354.397 142.4L336.472 78.7895C335.893 76.7364 334.66 74.9284 332.959 73.6407C331.258 72.3531 329.184 71.6563 327.05 71.6562H308.998Z" fill="white"/>
<path fill-rule="evenodd" clip-rule="evenodd" d="M827.082 71.6562L851.191 153.989C854.021 163.826 857.119 165.982 863.991 165.982H882.317C888.246 165.982 891.077 163.557 894.042 153.989L912.098 95.2374C912.232 94.5637 912.502 94.2936 913.041 94.2936H913.58C914.119 94.2936 914.254 94.5637 914.389 95.2374L932.176 153.989C935.006 163.557 937.97 165.982 943.899 165.982H962.765C968.425 165.982 971.659 163.557 974.623 153.989L1000 71.6562H981.335C979.207 71.6563 977.138 72.3564 975.447 73.6488C973.756 74.9411 972.538 76.7539 971.979 78.8075L954.68 142.4C954.41 143.074 954.007 143.344 953.602 143.344H952.929C952.524 143.344 952.119 143.074 951.85 142.4L932.85 80.5492C930.829 73.9463 927.459 71.6562 920.722 71.6562H904.821C899.296 71.6562 895.524 73.5421 893.503 80.5492L875.042 142.4C874.773 143.074 874.368 143.344 874.098 143.344H873.424C872.885 143.344 872.615 143.074 872.481 142.4L854.555 78.7895C853.977 76.7364 852.743 74.9284 851.043 73.6407C849.342 72.3531 847.267 71.6563 845.134 71.6562H827.082Z" fill="white"/>
<path d="M55.2987 16.0819C54.4394 16.6452 53.7612 17.4447 53.3456 18.3843C52.9299 19.3239 52.7945 20.3636 52.9556 21.3783L66.3241 108.281L70.1116 138.106C70.2749 139.387 70.9001 140.564 71.8698 141.416C72.8394 142.269 74.0869 142.738 75.3779 142.735C76.6689 142.733 77.9147 142.26 78.8814 141.404C79.848 140.548 80.4691 139.369 80.6279 138.088L84.3081 108.281L100.026 6.12069C100.153 5.25814 100.068 4.37747 99.7765 3.55563C99.4852 2.7338 98.9971 1.9958 98.3548 1.40613C97.7125 0.816466 96.9355 0.393072 96.0918 0.172949C95.2482 -0.0471741 94.3634 -0.0573287 93.5149 0.143373C79.948 3.19168 67.0186 8.58886 55.3109 16.0911M146.989 0.143373C146.14 -0.0573266 145.255 -0.0471702 144.412 0.172954C143.568 0.393079 142.791 0.816473 142.149 1.40614C141.506 1.99581 141.018 2.7338 140.727 3.55564C140.436 4.37748 140.35 5.25815 140.478 6.1207L156.195 108.281L159.876 138.088C160.035 139.369 160.656 140.548 161.622 141.404C162.589 142.26 163.835 142.733 165.126 142.735C166.417 142.738 167.664 142.269 168.634 141.416C169.603 140.564 170.229 139.387 170.392 138.106L174.18 108.281L187.551 21.3784C187.712 20.3636 187.577 19.324 187.161 18.3843C186.745 17.4447 186.067 16.6452 185.208 16.0819C173.5 8.57944 160.571 3.18224 147.004 0.134171M215.683 60.9623L190.29 203.17C190.099 204.257 190.251 205.377 190.725 206.374C191.199 207.371 191.971 208.196 192.935 208.735C193.898 209.274 195.005 209.5 196.103 209.382C197.2 209.264 198.234 208.808 199.061 208.077C212.088 196.804 222.534 182.858 229.688 167.187C236.842 151.516 240.536 134.488 240.519 117.261C240.537 96.9447 235.364 76.9609 225.491 59.205C224.944 58.264 224.12 57.5141 223.132 57.0572C222.143 56.6004 221.038 56.4586 219.967 56.6511C218.895 56.8437 217.909 57.3612 217.141 58.1336C216.374 58.9059 215.863 59.8957 215.677 60.9685M129.247 126.247L125.521 96.4306C125.362 95.1472 124.74 93.9659 123.771 93.1093C122.803 92.2527 121.554 91.7799 120.261 91.7799C118.968 91.7799 117.719 92.2527 116.751 93.1093C115.782 93.9659 115.16 95.1472 115.001 96.4306L111.275 126.247L95.3673 229.649C95.149 231.008 95.4689 232.398 96.2591 233.525C97.0493 234.652 98.2476 235.427 99.5995 235.685C106.42 236.897 113.333 237.513 120.261 237.525C127.189 237.513 134.102 236.897 140.922 235.685C142.274 235.427 143.473 234.652 144.263 233.525C145.053 232.398 145.373 231.008 145.155 229.649L129.247 126.247ZM24.8417 60.9685C24.656 59.8957 24.1448 58.9059 23.3774 58.1336C22.61 57.3612 21.6236 56.8437 20.552 56.6511C19.4804 56.4586 18.3755 56.6003 17.3873 57.0572C16.399 57.5141 15.5752 58.264 15.0277 59.205C5.155 76.9609 -0.0177682 96.9447 5.82976e-05 117.261C-0.0169256 134.488 3.67724 151.516 10.8312 167.187C17.9851 182.858 28.431 196.804 41.4579 208.077C42.2848 208.808 43.3186 209.264 44.4162 209.382C45.5138 209.5 46.6209 209.274 47.5843 208.735C48.5477 208.196 49.3198 207.371 49.7936 206.374C50.2675 205.377 50.4197 204.257 50.2292 203.17L24.8355 60.9624" fill="white"/>
</g>
<defs>
<clipPath id="clip0_4654_7014">
<rect width="1000" height="237.525" fill="white"/>
</clipPath>
</defs>
</svg>
