<svg width="114" height="35" viewBox="0 0 114 35" fill="none" xmlns="http://www.w3.org/2000/svg">
<path d="M27.1377 7.64697C27.1377 7.64697 35.8833 7.64658 38.0645 8.23486C38.657 8.39529 39.197 8.71024 39.6309 9.14697C40.0648 9.58375 40.3777 10.1276 40.5371 10.7241C41.1199 12.9136 41.1211 17.4739 41.1211 17.4995C41.1211 17.4995 41.1216 22.0805 40.5371 24.2759C40.3777 24.8723 40.0647 25.4163 39.6309 25.853C39.197 26.2896 38.6568 26.6038 38.0645 26.7642C35.8833 27.3526 27.1377 27.353 27.1377 27.353C27.1108 27.353 18.3886 27.3517 16.2109 26.7642C15.6186 26.6037 15.0783 26.2896 14.6445 25.853C14.2107 25.4163 13.8977 24.8723 13.7383 24.2759C13.1538 22.0807 13.1543 17.4995 13.1543 17.4995C13.1543 17.4583 13.1566 12.9098 13.7383 10.7241C13.8977 10.1276 14.2106 9.58375 14.6445 9.14697C15.0784 8.71024 15.6184 8.39533 16.2109 8.23486C18.3886 7.64748 27.1108 7.64697 27.1377 7.64697ZM24.3408 21.7222L31.6064 17.4995L24.3408 13.2769V21.7222Z" fill="white"/>
<path d="M56.8482 23.6413C57.0013 23.2391 57.0781 22.5815 57.0781 21.6687V17.8237C57.0781 16.9379 57.0013 16.2905 56.8482 15.8811C56.6948 15.4718 56.4248 15.2671 56.0384 15.2671C55.6649 15.2671 55.4013 15.4718 55.2482 15.8811C55.0948 16.2905 55.0182 16.9379 55.0182 17.8237V21.6687C55.0182 22.5811 55.0914 23.2389 55.2383 23.6413C55.3847 24.0441 55.6513 24.2452 56.0382 24.2452C56.4248 24.2452 56.6948 24.0441 56.8482 23.6413ZM53.7485 25.5742C53.1947 25.1988 52.8013 24.6149 52.5684 23.8225C52.3349 23.0311 52.2184 21.9774 52.2184 20.6621V18.8703C52.2184 17.5419 52.3515 16.4748 52.6182 15.6696C52.8848 14.8644 53.3013 14.2773 53.8683 13.9082C54.4349 13.5392 55.1782 13.3545 56.0983 13.3545C57.0049 13.3545 57.7315 13.5425 58.2783 13.9181C58.8247 14.2938 59.2248 14.8813 59.4782 15.6797C59.7314 16.4782 59.8581 17.5419 59.8581 18.8705V20.6623C59.8581 21.9774 59.7348 23.0346 59.4883 23.8328C59.2414 24.6314 58.8413 25.2153 58.2881 25.5841C57.7348 25.9532 56.9849 26.1378 56.0384 26.1378C55.0646 26.1378 54.3015 25.9498 53.7485 25.5742ZM96.5765 15.4975C96.4366 15.6722 96.343 15.9574 96.2966 16.3531C96.2496 16.749 96.2268 17.3496 96.2268 18.1548V19.0406H98.2464V18.1546C98.2464 17.363 98.2196 16.7624 98.1665 16.3529C98.1131 15.9437 98.0166 15.6553 97.8767 15.4874C97.7365 15.3196 97.5199 15.2356 97.2265 15.2356C96.933 15.2356 96.7165 15.3232 96.5765 15.4975ZM96.2268 20.6915V21.3156C96.2268 22.1076 96.2496 22.7014 96.2966 23.0971C96.343 23.4932 96.4395 23.7819 96.5866 23.963C96.7332 24.1439 96.9596 24.2348 97.2666 24.2348C97.6796 24.2348 97.9632 24.0737 98.1166 23.7515C98.2697 23.4294 98.3531 22.8926 98.3664 22.1408L100.746 22.2819C100.76 22.3896 100.766 22.5372 100.766 22.7247C100.766 23.8656 100.457 24.7181 99.8364 25.2815C99.2167 25.845 98.3396 26.127 97.2065 26.127C95.8466 26.127 94.8932 25.6978 94.3466 24.8385C93.7996 23.98 93.5265 22.6512 93.5265 20.8526V18.6984C93.5265 16.8463 93.8098 15.4944 94.3766 14.6418C94.9431 13.7897 95.9133 13.3635 97.2866 13.3635C98.2331 13.3635 98.9598 13.538 99.4666 13.887C99.973 14.2363 100.33 14.7798 100.537 15.5177C100.743 16.2558 100.847 17.2759 100.847 18.5777V20.6915H96.2268ZM47.0278 20.4604L43.8877 9.04565H46.6276L47.7274 14.2195C48.0076 15.4949 48.2143 16.582 48.3474 17.4808H48.4275C48.5208 16.8368 48.7276 15.7565 49.0475 14.2396L50.1876 9.04565H52.9275L49.7477 20.4604V25.9366H47.0276L47.0278 20.4604ZM68.7696 13.5961V25.9366H66.6095L66.3695 24.4266H66.3096C65.7227 25.5674 64.8427 26.1376 63.6695 26.1376C62.8563 26.1376 62.2563 25.8695 61.8695 25.3325C61.4828 24.796 61.2896 23.9569 61.2896 22.8159V13.5961H64.0495V22.6552C64.0495 23.2058 64.1096 23.5982 64.2296 23.8328C64.3496 24.0679 64.5495 24.1851 64.8296 24.1851C65.0696 24.1851 65.2995 24.1116 65.5195 23.9635C65.7395 23.8159 65.9028 23.6284 66.0095 23.4002V13.5959L68.7696 13.5961ZM82.9266 13.5961V25.9366H80.7665L80.5263 24.4266H80.4667C79.8794 25.5674 78.9995 26.1376 77.8265 26.1376C77.0131 26.1376 76.4131 25.8695 76.0263 25.3325C75.6396 24.796 75.4466 23.9569 75.4466 22.8159V13.5961H78.2065V22.6552C78.2065 23.2058 78.2664 23.5982 78.3862 23.8328C78.5064 24.0679 78.7065 24.1851 78.9864 24.1851C79.2265 24.1851 79.4565 24.1116 79.6763 23.9635C79.8964 23.8159 80.0596 23.6284 80.1665 23.4002V13.5959L82.9266 13.5961Z" fill="white"/>
<path d="M76.2688 11.2807H73.5288V25.9364H70.8289V11.2805H68.0891V9.04606H76.2688V11.2807ZM89.5308 20.6022C89.5308 21.5014 89.4936 22.2062 89.4204 22.7159C89.3472 23.2263 89.2238 23.5885 89.0504 23.803C88.8771 24.0178 88.6435 24.1252 88.3507 24.1252C88.1303 24.127 87.9132 24.0715 87.7205 23.9641C87.5271 23.8567 87.3707 23.6957 87.2505 23.4809V16.475C87.3437 16.1396 87.5038 15.8645 87.7305 15.6497C87.9572 15.4352 88.2036 15.3276 88.4703 15.3276C88.7505 15.3276 88.9669 15.4383 89.1205 15.6596C89.2735 15.8811 89.3804 16.2536 89.4405 16.7771C89.5005 17.3003 89.5308 18.0452 89.5308 19.0115V20.6022ZM92.0605 15.5685C91.8936 14.7903 91.6235 14.2266 91.2504 13.8775C90.877 13.5287 90.3637 13.3542 89.7105 13.3542C89.2037 13.3542 88.7305 13.4985 88.2906 13.7869C87.8567 14.0687 87.5047 14.4612 87.2705 14.9244H87.2503L87.2505 8.4218H84.5907V25.9361H86.8705L87.1505 24.7687H87.2104C87.4237 25.1846 87.7436 25.5134 88.1704 25.755C88.5969 25.9966 89.0705 26.1174 89.5905 26.1174C90.5235 26.1174 91.2104 25.6844 91.6505 24.819C92.0904 23.9531 92.3105 22.6014 92.3105 20.7625V18.8097C92.3105 17.4276 92.227 16.3471 92.0605 15.5685Z" fill="white"/>
</svg>
