<svg width="36" height="37" viewBox="0 0 36 37" fill="none" xmlns="http://www.w3.org/2000/svg">
<path fill-rule="evenodd" clip-rule="evenodd" d="M17.9336 1.89395V0.710449C8.02913 0.710074 0 8.68632 0 18.5252C0 28.3641 8.02913 36.34 17.9336 36.34V35.1564C11.5039 35.1508 5.37488 31.444 2.619 25.222C-1.10362 16.8167 2.73713 7.00445 11.1986 3.3062C13.3219 2.37509 15.6152 1.89423 17.9336 1.89395Z" fill="#22BBBE"/>
<path fill-rule="evenodd" clip-rule="evenodd" d="M11.6745 4.39497L11.1938 3.30859C2.73188 7.00684 -1.10887 16.8187 2.61413 25.224C6.33713 33.6292 16.2146 37.4452 24.6761 33.7466L24.1946 32.6606C19.8191 34.5686 14.6194 34.4542 10.1636 31.8986C2.72963 27.6352 0.182628 18.1927 4.47488 10.8078C6.12864 7.95632 8.65138 5.70905 11.6745 4.39497Z" fill="#7DAD41"/>
<path fill-rule="evenodd" clip-rule="evenodd" d="M25.1108 6.17709L25.7052 5.15409C18.2712 0.890344 8.76569 3.42122 4.47344 10.8053C0.181566 18.1898 2.72894 27.6327 10.1626 31.8961L10.7588 30.8705C9.56753 30.1846 8.48115 29.3308 7.53307 28.3355C2.07869 22.6261 2.31682 13.6055 8.06407 8.18709C12.7831 3.73847 19.7494 3.10247 25.1108 6.17747" fill="#F4B719"/>
<path fill-rule="evenodd" clip-rule="evenodd" d="M8.88008 9.04805L8.06071 8.19043C2.31309 13.6088 2.07271 22.6264 7.52708 28.3358C12.9815 34.0456 22.0621 34.2814 27.8093 28.8634L26.9873 28.0028C23.9228 30.8866 19.5185 32.2561 15.0875 31.2799C7.99621 29.7184 3.52246 22.7419 5.09446 15.6979C5.65965 13.1513 6.97883 10.834 8.88008 9.04805Z" fill="#E55824"/>
<path fill-rule="evenodd" clip-rule="evenodd" d="M20.5215 6.93117L20.7803 5.77093C13.689 4.20943 6.66642 8.65355 5.09405 15.6979C3.52205 22.7419 7.99655 29.7184 15.0874 31.2799L15.3462 30.1212L15.3443 30.1208C8.89692 28.7003 4.82967 22.3583 6.2588 15.9548C7.68792 9.5513 14.0727 5.51105 20.5189 6.93042L20.5215 6.93117Z" fill="#B52C80"/>
<path fill-rule="evenodd" clip-rule="evenodd" d="M26.7157 20.3337H29.7431C29.8076 19.9148 29.8496 19.4888 29.8691 19.0568L26.7153 19.0722L26.7157 20.3337ZM26.7157 16.6782V17.897L29.8635 17.8812C29.8418 17.4783 29.7996 17.0768 29.7371 16.6782H26.7157Z" fill="#FEFEFE"/>
<path fill-rule="evenodd" clip-rule="evenodd" d="M25.3944 21.5091V15.5031H29.4901C28.1439 10.4076 23.477 6.64893 17.9251 6.64893C11.3221 6.64893 5.96899 11.9664 5.96899 18.5252C5.96899 25.0843 11.3221 30.4018 17.9247 30.4018C23.4905 30.4018 28.1675 26.6241 29.4999 21.5091H25.3936H25.3944ZM31.4277 20.6882L32.0821 19.9269C32.564 20.3713 33.0721 20.6451 33.6312 20.6451C34.3542 20.6451 34.8275 20.2348 34.8275 19.6104V19.5936C34.8275 18.9864 34.3111 18.6017 33.5795 18.6017C33.149 18.6017 32.7792 18.7217 32.4695 18.8668L31.832 18.4476L32.0045 15.5151H35.6022V16.4469H32.9169L32.822 17.8494C33.1062 17.7467 33.3732 17.6781 33.7775 17.6781C34.9479 17.6781 35.8689 18.2938 35.8689 19.5591V19.5763C35.8689 20.7988 34.9737 21.6028 33.6399 21.6028C32.7189 21.6028 31.9959 21.2353 31.4274 20.6878" fill="#FEFEFE"/>
<path fill-rule="evenodd" clip-rule="evenodd" d="M23.7931 16.6786H20.5107V17.8973H23.7931V19.0726H20.5107V20.3341H23.7931V21.5093H19.1888V15.5033H23.7927L23.7931 16.6786ZM17.7987 16.5072L14.4728 20.3509H17.7987V21.5097H12.7625V20.5054L16.088 16.6617H12.8667V15.5033H17.7987V16.5072ZM29.8643 17.8816H29.8205L26.7154 17.8969V16.6786H29.7383C29.676 16.2827 29.5934 15.8903 29.4908 15.5029H25.3947V21.5093H29.5013C29.6018 21.1249 29.6828 20.7331 29.7443 20.3341H26.7162V19.0726L29.8276 19.0576L29.8696 19.0572C29.8871 18.6656 29.8857 18.2734 29.8647 17.8819" fill="#020303"/>
</svg>
