<!-- Generated by IcoMoon.io -->
<svg version="1.1" xmlns="http://www.w3.org/2000/svg" width="20" height="20" viewBox="0 0 20 20">
<title>cast</title>
<path d="M0.82 8.32c5.039 0 9.18 4.102 9.18 9.18h-1.68c0-4.141-3.359-7.5-7.5-7.5v-1.68zM0.82 11.68c3.242 0 5.859 2.578 5.859 5.82h-1.68c0-2.305-1.875-4.18-4.18-4.18v-1.641zM0.82 15c1.367 0 2.5 1.133 2.5 2.5h-2.5v-2.5zM17.5 2.5c0.898 0 1.68 0.781 1.68 1.68v11.641c0 0.898-0.781 1.68-1.68 1.68h-5.82v-1.68h5.82v-11.641h-15v2.5h-1.68v-2.5c0-0.898 0.781-1.68 1.68-1.68h15z"></path>
</svg>
